<mxfile host="Electron" agent="Mozilla/5.0 (Windows NT 10.0; Win64; x64) AppleWebKit/537.36 (KHTML, like Gecko) draw.io/24.7.8 Chrome/128.0.6613.36 Electron/32.0.1 Safari/537.36" version="24.7.8">
  <diagram name="Page-1" id="Ubuo156wxUqqybgZAEo1">
    <mxGraphModel dx="1434" dy="836" grid="1" gridSize="10" guides="1" tooltips="1" connect="1" arrows="1" fold="1" page="1" pageScale="1" pageWidth="1100" pageHeight="850" math="0" shadow="0">
      <root>
        <mxCell id="0" />
        <mxCell id="1" parent="0" />
        <mxCell id="rraX06ucM7AwQiWW7n5B-5" value="" style="rounded=0;whiteSpace=wrap;html=1;strokeColor=none;" vertex="1" parent="1">
          <mxGeometry x="269" y="260" width="730" height="700" as="geometry" />
        </mxCell>
        <mxCell id="rraX06ucM7AwQiWW7n5B-10" value="" style="shape=image;verticalLabelPosition=bottom;labelBackgroundColor=default;verticalAlign=top;aspect=fixed;imageAspect=0;image=data:image/png,iVBORw0KGgoAAAANSUhEUgAAAY0AAAFfCAYAAACyUZD1AAAAAXNSR0IArs4c6QAAAARnQU1BAACxjwv8YQUAAAAJcEhZcwAAEnQAABJ0Ad5mH3gAAIdRSURBVHhe7d358z1ZXR/+Y8i+ryQmxmhUoiAgm4LAsA0DjDMgCoiCRFBjShOtWFblV/+ClCYpK66xlBhAwGFfZoBxBhBlVRC3xKhkNbvZV7/z+J7PM9M09/1+3/e93fd23/t6Vp3qvn379u0+y+v52s7pT/vt+9AKhcJ68H//b2v/43+09t//ey//5/+09rt+V2u/9/f28nt+z40TC4XpUaRRKKwN//k/t/Zbv9Xaf/gPvfzP/9na7/t9rf2xP9baH/kjrf3hP9w/FwozoEijUDgGDLthYS2wIBSfs6/87//dC3L4L/+lE4by7/99a//u3/Xjv//3t/Yn/kQnDeUP/aF+DHn87t/dLZEHPOD+8mmfduNGCoXroUijUDgWQgT/7b9160H5r//1/vKf/lMvw+POjWsqx1wHMfyBP9BJAkHY/tE/2tqf+TO9/Kk/1Ukl1gjiKBR2QJFGoXBo/K//1YU/wW/7H/9ja//m37T2r/91tx5iQfzmb/byb/9tPwd5IJkM2VglCsvhd/yOvkUiSAFRfN7ntfagB7X2F/9ia5/92a39+T/f2p/9s51ACoUdUKRROF8MhW5KjnMXEb72gTAef0/42zoed0+2fssicE6+t3WMdYAw7CMNribEoIhRIAjEMSQSv9kFf+EvtPa5n9vaZ35m3/+Mz+ik8cAHduL4g3+wWyWC57/zd974UaFwMYo0CucLAp3mnnhCtokdRLOHCP2Qhe8Id8Lcb6Ll0/Cdx630r/5VF/rOTxwBmYxLyGNIJrbuIcd2HaZcVn/8j/fguMJlpSAMVscXfEFrn//5nUicWyhcgSKNwnmCUCf0CeuhAEcKhDSNn4vI94AUkINz8j1ScI2QhkJbN6T89h//49Y+8Yl+PtJIHGE85PLZdri/aXtdIColcH+sCoFyLqvHP761Jzyhtb/0l3rsw/FC4RIUaRTWAd00Qluhvds65jvCnlUQyyHHorHT3oFg91vHEIfjzhsW1/Adt5HfR/Dmmn7je8TA4hhaGiENZPJP/+n9lsoS8af/dGsPe1hrj3hEd2GxPBDHn/yTPVjO8vBchcIARRqFdSCEQPOPwOe6QQCEtuMEtULQR/hzDxHe4gXOi7bvd4rzDIFhcWz4/RDD75GHrWMhFgX8t/v03VLB4kAOSOLTP73HPVgf3FVf+IU9BrJpvkeet3CWKNIozIdh1xp3s3y2vagLsiTi67fNfuYoII4IdgKa5i947BzHkMe/+Bet/aN/1N1JhYuBQATJP+dzWnv4w1v7ki9p7cEP7gFzFoeZ5oXCfSjSKMyHoTuJVj7UzH1HqHPvEPhxNfl+SBSxMFJcw3d+43vkoMRlpNjPtRAJa6NwNUwG5J7ipuKuQiC2UnX/3J/rwXPzQQpnjSKNwjxAAkhBIeQJ8wSeCXnf+8wSINSd45jvWQvmJyAU53KFhGiUEIXieL7Lde3neMimcDW47lgcJgciB/M8vuiLWnvc43rsQ7BcHKRw1ijSKNyPCNphiQDO9xHOQ8Gc4jgBHaJAAPZZBVxKXESOR7hzMf3zf96zkGJt+B6JlHWwDJgcKMPqkY/scQ6fxUAQCzKvQPnZoUij8MkguLl1uHgi9ONS8h3tn/C3dRx5OBcpsCZyfq6jIBLXUuz7jYIgWBt+6zgycb7r+H3h+JCCyz0lQJ4St5UYSMU6zg5FGoWOCHFCn3BHCsNspJCDLCTZSFxIjhPuhDxrgUvJNYAGGgtE8ftsA/uxWnI85wzPKxwPrAlWBfJgYYh3PPShrd10U2uPfnSPgdRM8rNCkca2UE3RnBXCUhm6aobwmeA0oPiHM7Bi0vuc9M994H/cw/A+FPs5NtwOS44NrYqUuJSUBJZZA0hDHMLWcXWAYBCG350i4usPEeaYNlS0aQrknMuQc0EbpF/ZT/upW9tjwP2Nn8OzIg6xjcc+trVHPapbIYjDLHOB9HJXnTyKNLaFAc0tk0IDp2FHOzfYIYPNYKehZckGa/wQNAYVk97nDDLnX7cZMjgJFgJeIcTdR4jAfYUMbN1rzrWfew8J+p2tgiBcw9Zn9+d71/HctjnuHNdcKjYJwOvAXAUBYO2mDlxLGqo5DtpRO2vbIRFsA79xLe2AhMV40pfUvT6mbi/Cvs91GS66tjqwUq76MK/jIQ/pFoflSGRYWaqkcNIo0tgWBvRv/EZ3zfzLf9k1a+mcBjaBSfAaaEo0eNqpwcWkN9AiXAgcnw0wx5x/3WYIaRAqSMz9RZC7F4KIBZBC0CcY7dy4nty73+Teg9zP+L42Hb/o3FOAeqZNf9ZndReNuvWcCMMcBu1IkNLCnXuRsN0Ev3Gudvhn/6wnBaQ9tJ8+xqrzn0vB8Pk8r6yqpz+9tS/90j4pEJFQhgoniyKNy6BqCH8C1zpCH/lIa7/8yz2zJ64bgzzCGgwkJBBLg5WBOBAEwlBorgRQrA//c91miJAnUNyfEi3VvdiPNRErI+Sh2HfuOYFwV+/qPy5DbaQM99MmgOAt5qcQhurWd9ouCwG6lt+EyLdF/kdbIAhxIm2lXbSfz2JFiN5xx7QdZUV7LgHIk6WR7CrEQUliYW+aTV5YPYo0LgMtHjHQAN///tbuuqsTh2MERAR0BMkQPjuHtREhFUEfARXtdNcmcC3khDjcq/txLWV4b8Pi3JRzA/KW/cMHT9gjhJC3fVsFOYQEtJvPSiwDRftlToNz07awTXvmfOdql5BCiFz7UEhYIVxXFJXMbv+5n+sLIQ6Rax0a6oi1xTVlBrl5HbbcVSw0dVM4KRRpXAaDmCvnn/yT1u6+u7VXv7q1D3/4xpeFrRFhOtxmX/dLyec5QLgTZjRiKaOsBIRBI0YgNOYUBIIsjg11gUz0QYTxq7/alZaf/MnWPvSh3j+XBIRsCRKF9cF1haDVfeFk8IDvvA839gubQLuk/fE5f+xjfVu4HtQha4sWTyu1OB4XBs2fkE5MQD1H054KrstKMKcgs5ttacHug1ATm5AVhEjc41K0Y8RK4MbSUWj2rMpYlgpL5dAI6Q8heM9CGrpDHUPA6rVwEijSuAxxT9A8aXtcA0tf7nppIIBp8jR6gpnwlrLJfSFoijTUcbRqQmZKaDvEYDKaRfie+MSuASOMWBYEWohrkzA8NtwTwmAZcYnlmDojmLmxlgDk5V6MFTEa8RjWEDIWE1pi3RaujSKNbUCYiGPwIwtKRssTTzhlGOSEvuen8SoEPMGVWE004OF+YgU0eBaFkteNcg0hDO+t9r3rqcekmE4tAN2L/5H9xG1ibgEh5pk8g/+3n7jEEpH7cp/qmTLjGJKVyScwvhQgDkRmnAjaIzbW5XAeR5HHqlExjW0he0pc473vbe1nf7a1X/zF5Wh4c4LwN9hp4gqhRRCHJGwJXsJAIYh9r+Q3IRj7rsfisCVU+OnV5Uc/2v300pqnBIJAVjJ7br65tWc9qy/Et1YYrkhCf3zHO1p7xSt6YPyYQAKbxIg2F+d4zGN6MZOcwqD9C6tFkca2kP7IPUW4vetdrb3znd38PmUQ7Fw7NEX7Co2RILZ1nHsHecQi4eohlH2HTAKCBak4D3nYV6dSmNWp7LT3vKfX8ZRwHywdQfCnPa21Zzyjf147uIDe8pbWvud7er0tFfpH3IMWPkTaYkqF1aJIY1ski4WG9/a3t/a61/XA+JKrj9BWCOyh0Cbc45JRYiUoYIsIaIQIAEEgA4UQ8DlFvIJGmWs5x9yUbSBY+ku/1C23n/qpnhXk85Rwj1xjNNyQhs+nAIrL935va297W3ftLRWUBMRh6ZHbbuuxJZ8d1w8Lq0KRxnUgjmHOxp13tnbHHa198IPdVSDGscT4BoHPKhCLQATcRIQ6i8GWCwk5xLcfN5JjKXErJZ5hP8X5iu9CSs7xeRvwfYc03ve+ThosjylxyqQh/Vs/VG/cfJkcuEToa+JYCENciatKQoT2KawKRRrXhYDtu9/d2pve1F0q5nCYeLW0jCqDkUtAlhABzwpAAkiEJZDgZNxLIQufFb8Z+6p9vmwbjD9fBMFSpMEn/9M/3do997T2K79y48uJcMqkwZXHNfUzP9Pnb/zCL3RreKnQ7yQkcBU+5Sk9xnQKrsIzww1/RGFr0KylDwqsKuYaHAO0edqb/ycQrf3z1Kf2wWgtIL5j+094Qv9O4R4w6YpPmaZn8NL2vFhHVpO5C1JiWSKuz3Vgm3KRWwtJDEvhMEDsyJ9Fiei10ZLBKk8MS8LD0iYnFrZCkcYuIKgf8YieEbJJU5pbcLo+8mI1sCaQw0te0tpf/+utfcd3tPbt397aN31Tay94QSePW27pWt2TntTaF39xJwxE4d4TtOaucs3CeoCwEQcLUdstnbBZrTLmxAXNcC/SWCWKNK4LHZ9WR1jT8KVzjgO/h/D40fS5lAh9Fg8r4/bbW7v11tae+cxOEKyKWBTulU+ZNWGdoGGAm+ARi3DNwnqANGINxvJbA8zlOPU5TieMIo3rgjZngHLhiBdY1ZO7h5+cxncoCMpbsgFBIQ/EVUL//KA/xkW4JFx0PxQVSo7xot8WVocijX1gACANS1PIChHrOBSyCqoMJEH4Q1g3heVBu9Pal9j+Y+LgBpU5xSq2lAvFq7A6FGnsA5YF9xRLg/bE8jhUXGBIGjK6ytw/PyxZUXBvw/tLyi3S4DY1U/yQlnlhMhRp7AO+ZOsaCSqLcdg/BGlEu0QaJnWZJMddVTgvxDW19HgGxcpscHE2FjkFS1xNLK2wOhRp7AODViBZmqqBwdKQ0XTI2IJsFORRmSjniyVbHFxQSdR48pN71qFkDK6qpacIFzaiSGMK0Jik4ZrrkPckM8cPAa4ppJEVRQufjPjVo5Xvq5GrY65B5dhZQKzLvLuC0nBsF6U6ZmkjCqRgHLAspHkjC2ND3K9Su1eNIo2pkKwQJrgB4vMhEDeVV4KaPJWMqsL9iAtH2Ve7JahD0gS2+r4Kc7WHBIi8Dtb9HPJlTCHjIdSvdHTKk3lBf/kvt/a1X9tn4ptEKs27CGP1KNKYCiwLA8Osa5khBsihQNMkOJSlrj10TCBWwj5pyruCULaysRdxfeITfet9FpbuuIwYNgnYKYA0LMVizalDk8am56UomTBqbhCi+MqvbO3Zz+6Bby5crtzC6lFrT00F1WgQEyoWkPOeg3vv7YN5ThioeU8EsspkwyUHRoNDrD1lFV6xJskKN93UZ8/ThAlyFgMS4eJL2rJ6QzLI1/eOO+Z8x1hztHvnsFq4Js03IBCH7xq3z00zZ7D353++tbe+ta8/5Z0kiEw23SGhbjy/FZFlRD3kId3iZm2bVFpEcXIo0pgafMte1PTqV3ch6J3iEU5zgIAyT4RmJ/VXFhe/cZFGh7TO+NdpvN4RThvW7RG6wlIIEZhhra1iUTiOMLheWCpjgnHcvi3BKa2U4ERSAr5zrk1mdWBL9FNOLF7oFauszkMCKahbzyud1tI66kBd+G4N/bBwLdTrXqcGoWPg0kiRRQLVBM0csPyHVF+FcGRlsD7WMFgRLJcaAY1cf/3Xe71NCQJfUR/qyj6isMS9RfOsUoy4LKTn/92HYwSy1WMdt+y49ZJs/cY5StxUiuO+Z434D/+lHbQJQpkD/tfy6KwMKy37b8R2SHgvBpJkWSTonWC3eiicHIo05kB86EBAzbk4GxdJXCKEFM1WPGUNpMEHz9og8CLEkcjUYAloExYE9404hP/6tV/rRGFfG4kNsDpsnXNdV482J7gpCASm9pCCLd41hwBFZF5exVJTb/7/kI6DTNgzB4MFZ30zJFI4aZTtOAf4s/lzaV3cReM1dqYUIATFb/1WF3I0dlbNIQXHPkBsKXNppciCEEdOSOIDH+jvQ8l7KAhcwpflgDhYD7bqcRcgHVaKF3SxUrSJ9pnaPem53CPC9R+u79ghwHLSp1m3+nfcUtxUhZNHkcYc4Ec349WA2uTXnlKoIw0CkaYe7XippDG0wOwTpu7dlktvjuwfdeE/EYf/IWSRgiIGQEMXtyCAFfVnu4+QZ20gH//F0mRl5rmngmu6T9efmpCuAtcbF5R5F5Qj8QwWVeEsUKQxF8Q2DCRBV4MLgcimmdq/TRgRfLRoPm6Ccam+ZKRAyLlfJMc1JH6g0JYJ27ViXOdIcVimInLXUdQj0pg7zdZzjZ8NaSALyRfiGCyOMZaquBT2RpHGnGDCszikIEqHtT/10gkEEsFBayaICZMlDlj3KMhNw0cSXDdeT6rImHLvh878mRLjOhcI1taUhCndb5QEZMFCs53aghljU18SP3v4w/vSII98ZP88xlIVl8LeKNKYEwQH15QAIc1MkHCuTBqI9jlX0H0MAoVrhIXArZPZydxkrB7ZRMiBj18MQdBWaq2S91rL/EkAXKbZqUDdIA2Kg7kaU7U7klDXCHiOWMkmDIlDvE7wWzEvw+c5+3Rhcfi0mqcxMwxsWjQBeccdrb3pTX3QzwED+a/8ldZe+MJu1cwNAszzIStWguIzLZhQ49NnAQkO+05cATEQdElFdi6yQTyOze1uORTUv1fufs3X9LjWVNls6kzQXpowIn7zm/s7t+cGYjBxlPJjvosJpYLfXFWFs0JZGnMCH9PEPuuzekyDpTHnDGEuAcKXICakua7mAmsGIcSiIMQ+9rHWPvShPrnxne9s7Y1vbO2Vr2zt5S9v7VWvau0Nb2jtzjtbu/vubnWwQMRiEIz7PRXCABPbkgo9FWEAwkWyCFm9Hco6k9xBKTGRVHqtZUHKwjhLFGnMifh1EYUZsuZPzLkmFc0facRNtavrIplG5ivQapHCxz/e00ilq7797V3DtYTFO97Rl02h9b7vfa29//3dqrLEhVnKfu8+EChSsJ/is3ueMlB8THBHmlwphvWlX9otjHG69b5QZ0hD4sAhScMkRZaGiXzIQ38u0jhLlHvqUKCVW/Lhta/tGrkBT8BPWf2E1HOe09ehMrAR1C5LtCMLMQYWi+Kz+6fdKj4TXHEnDUnAMYUlwno4VHxlCbDGFZcNTVzig1gWjXzK5AfxIsuGIG9zTCQSIJA5QOlhJbEyPMtzn9val39571tTWk+FVaFI41AgZLllaOncMrR3g31KF5LJVc94Rk+F5HuW7mtW8kXQ9EosIgIeIWTOh30kYZ/FkAlwa0+P3QfjrCCEoHBDmq+g/hXuSIQt9XpKSFNm4d11VyeMrI81Bzwr9xq3qmwpK9beeuvlfapw8ijSOBRo3QKWMoe4ebhxZA5NWf0mXD3hCd3vTNO1VPtFC+ZxCyEJriwkQBghC0Frx7inUhxjebCO7J+T9bAJ4hUEJ1cUN022LD0pqOre5zkgG80Kyq9/fVc8JFWw8uYC8vNMgt/6ltnfFfw+axRpHAriBISyQY8w3vKWHgye0tLgjjLAuUhsDfCLlnbgQqKh0lQtrSE2wd0hFkI71i3GMYgUhHOuEJ+ieUs35bJhXfD1y5YyyY1mzsKY0iU1hHjR939/TyxgCc4NCsjtt/dJfJaUp4RMbT0VVoVyTB4KgoZmiNNG886LqTU2Ah0RJM31siBpSIGbiftJnCXvZDD5TlYTQknAlfXBwjhFwuCGIQi1B1Lgw0/2kwAwq4LlIAtOIJglYRl62rf1xQhURK1dnTsXYSQIrj2UuaEOWK9iGMhxLQthFmZF9YBDwWDj9xYsNRARCOE0JQiVZD0JYLNuLoL7ISRl/Cinpj2OYw+XQV0QkCwFgp8FwUqjZT/zma294AX91aUvfWlrL35xDwjn/SXOn3vdJdYoBYAyoG25Oud0EKgP5Ml6UvRZhKG/FGmcPaoHHAoRYoSTAUhzpZVOKayvSxrIApG5n6uC5qcMFgUiZwVKIPBuCCmzlsm47bY+WfJlL+uk8dVf3d01/PtiRtpxLssiYN2xMLg3k4QwZ7prFtzkgtMvkGK5pAo3UO/TOAa4eSydQQDQIAl7ZQoQMAQKvzuN2aC/CIjM+YSQQjAgNT55WqXvabRzThKcG54DMXIzEX7D4DXLAlEQ/oqgL7+9QmCm+MyiQC7qh1BFuMhCXV/HqtkF3I6sDC5DMTETKWWyzdUu6oo7yru+ueK4p3ZJ3S6cJCoQfgwgCxPivN5U8JkgcGwqEG7SPr/xG/tyD5sQMkAWBNLwZURKZno7zmpZKxADoR9LKqRI8Jt4Z9/qw4pj3DKOKz4rfoN8jgXuqEyuVGTgmTw5RXwpisEQiPSWW7o1hTjUnzooFO5DkcYxIEgtx14mjIX7zKY2e3pKPP3prX3Lt/SJfpcJvJAHS0ewW1A8Gq0lQZAaAvHdGoPgNGaxCfEHLijEoSBWRIEcYjEM/fWEaSyI4f4xoO7NtqdoeL0rAtEmc7WHAP9XfVV3z7Gw1NMxSbOwKJR76hgIT9siEG+Oo+1PCQLShCwZP7Tni0AYEpZcU9GsuV6iaXPtSLNMQJRrh5tn6KqJZh4B7HqebQn6CK3Z60iTMspt53kUzzZ0M7nvYQlZHJMwQBq0CaGIg2tKzIpbc8r69YzqgGWm37AyLIeSeMax66CwGBRpHAMGIM2NYEIW0l25hKaE5SsMesKeMI8QvAoEB0GKFFyDpu46Uk29TIqPHyEJnhMoBC9NNJo7gvJfrJfLAvGXYUoBxR8v08nSHu5bXYQo1gJBcHN63vWuThpzZE8hf+0tEUDmmIJw1VMRRmGAIo1jgFAluAhoZME/bW7ElGAVEJg0awKBtuj/rkLuDQEIFiMdwkNMIGQR906Kz85VkEisD9chcBCIrXsYlqF2P5dgQnTiOojPf/jPbephSZA1Za0pMTCuqjmg3SQDcOOxNOxrz0JhhIppHBOyYvipLR1uKXHBcLGFKbJiDH6LF950U3fLcDsQ5PuA5UDrtaQIt5r0XstYyAZz33zs9h3jUlFoxXGlENoR3D47N5PVWFziKa45JSQE/M2/2dpTnnLjwEqgftSnurT8jD5i+ZBh/ajLqYav/qGuEKzgN4uSQlAojFCkcWwINnvvBE1SMBxxELT7gpuBADDfwL6AJm1yHyCzLCWihCgU3UhJUD3HlSEJEnRcHs5FFgm6E4zqQrbWlJAQ8B3f0bOB1gR1JmuNlSGe4V0kFipEslNgTDgsSRMXv+IreuqxeBVrsFAY4Xfc2BaOBdocgS52wKXEpTMFaPeEMhIifAjyfRHXFYEil5+rivuLC4s/nODxLCwbrjHzRLiF5Pqn0GK5jHwnOO0YISUwfVnAflesWfBpN2nPlAnB7yks0GCsK2pH7ZfU5CKMwgUo0jg2zBMgcJPZMxVpcP0MSYNlsDQkvhC3lTIlxFYSz1kbEDQ3oCQJqdlSbKduQ/UimQGxI3P9sOZjFK5AkcaxIc4gwCw1lrY9paVBOxVoF39YImkI6op7IDj3N5UmjXyQEY1ZQH9NmVKBuvAuE3MyuO64qaZuQxl8LEOLLVo6hcVY8zEKV6BI49hAGsiCW4DWN1Vmj7iIwDINFXkskTQIRiXxkLHLZFeoQxYc0qA5r5E0xC5YiVYatmSIgLj40JRgzbBuk1KtH5ZbqnAFijSODZodsmBtiG+MBeeuLhukQdhI5ZWZtOuciTWC4GNhqFd1uibtGTEgCG2H9FmJLLEpMO5L4lwma0qUEGeyP7WLsHByKNJYCgg4mjEf/BD7aN8EELeG2MY5kQZLgwUnW4zFsSbtmbsOYVglgJUxZQryuC+xwlga5uFMmYRROGkUaSwFModoevLjTapKgHhf0FIVMY5zQWIayELhhlkLxHmkIFtjSubUHJP51Im+xi2lv1FYCoUtUaSxFNAC+ZQFJL0NToByCrcK4SlucE6koS5TEjNZC8QyBL4tG5IlQ6aG+Jm1pSyvYub3vpM+C2eFIo2lgGBjYfAvm7sg/XGKAC4tm++a2yNa65qE6K5YI2GApIVf+ZWeNcU9NTXZU0SQhowp82SyvlShsCWKNJYCLhUxDam3BjKXwVRBSe4pczUEVWmuhGlhedBGkhaUZLxN3VYSAygkAt+sDMuHFGkUroEijaUAQcj4EZA0qA3uKXzxNG0vWhIMJ4hYHEUaywJyQOhegiUIjjymypgKklEm8P2Zn9mVE/1M4sWaYj6Fo6N6y5LAtyxASftjacj8mQIEEKGEOIo09gMSlpVG0HMdIWR1Kk2W+0+2k2LfMd87z/l+t8ld5hxrcFljKu/LmBrIgVuKdSH4jTyKLAo7oHrNUsDSUAxuhIE8xDj2dR0QUtJtCTEFgazNz78kaCN1iIDFHKwLJf5A4HsVqxclvfe9/ZWs3nooPsF6QNrIYVPdcxn6vQUJ/dakvn2wya3JyrDkuVWPZU35XCjsgCKNJcKARhp5fwULZJMg2BY0XdqvzByCqyyN3YF4xRy4klgFiCHv7fbaXkvde1mSd194lW/eAe98v9MG48UjrTElxfYd7+jkse9KtpuIST+SmSdrirUxx+KQhbNAvYRpieDGoG1yU9BCaba2u1gIyAYJiZGY7Catl2tiCbOkPReB6Vlp45ZFp8HvC8/mWQlKqcsJ+G6COo27iUWWuuZaIrzdn3YwO9vsepaDwsJQzKVw35ZrUVgfJlRaN0psIgkIimsl0O17bi3HEIX3qdgOsY+iMASL1Zv4vFPEe1asUCwVu1DYAfU+jSWC0KJ5ytX3jgn7BBXhdl3wWwuuW36cwJCbz0WBRI4NAjXaOk2ddu4594WZzoK8ll/3rLff3lcR3gRav/oeFtYEwhgKesQR9x5yYbE5N59dR0nGk8AzbZ6VOCwIjcvRPuHtHItKautf+IUbN3UDSGOf4ena4hgypbxXxTtFuKiKMAp7oEhjiSCIuDMIkQ98oLst3v/+T3VrbAOkkawZ8z+e/ezWbr11GbOA5yINCQRWbGVhcMfcdluf/zIE4U7osyi47txLXHisHURBmLMcWBisCKRBkEfoZuiMh5DPsRLG25yLPLQBi0i7Iif/O+VwZF099rGdMJCF5c/VS6GwB8o9tVQQ9gpBFTfIrgIlGjBh6uVIVjQdr3F1DMzlniLU1Z2tZ2Z5qDtE8Iu/2N/Jbouwso3LyZpP6lqR0YS8FeQCrsOSGBbHLirjc1O0B5Jy3WRZ7WJJXgQkxTVnAt/jHtcJlLuu5mQU9kRZGktEmoT2K5vmB36gtTvu6McCQuG6TYcwvv7re+HnPjbmsjQQBvcQLd4zP/rRPamAuwkZIKYI6KFbKVtF8gBSI8znTFN2r2nLKf7DtVzTRNFHPrK15z2vv/ubu67cUoUJcF/vKiwOBr6SV6oSAHzgQ+zC9VwvBODUS1MsDYSvOIM4BOtBXOjee1t7+9tbe/Obu7vv7rt78W52abIyoASipc8irmQ7sfTmIgxwbQQ21X8gS24vE/jEcawuUIRRmBBFGkuHeIRANleDwCYtclfQoJEGDX8J4CJDhpbk5jbZ59kuAhcQtxeLBhF4/lMC5WIIBCRuwS1l4UvkMSaMci4U9kCRxtKRmbwygWiN+0zKImAEf2ngXDXcMccUILRiJTGIsQCcArE4BLVZDacOdWnG9xOf2IPgEiDGmKOeC2eDIo2lg3XBH/95n9e1xn2WFkEQSANhsDb47KeE69N0kRFhPYwLZN6D/81+5jjkPeZ+MzW4fRKXmOP6x8aY9BEGBUO2mH2p1WVZFCZEBcKXjgSL+dsFi/nmdw0Wi5EIin7Zl92//Lp4yVRuoQhoRKEQ0lxi9mn5iAJhOO48mVNSWqWzJktpiuypUwdLYTxsrSCAKMz6ftKTesbUJiujUNgTRRpLB8tASiqiQBhveMOnzhzeFgjiyU9u7elP73n7NFEzxKcgDRYGUshcBySRyW+OCSqbKc1V5HsFISIJ+0gEwcwZdD4VbCINrijzUcQyBMARxjh5olCYAEUaSwdXD4FKI5f186M/2tc02gXiIYSKWdI0UgvXWSJ7DF0iGT22cTkN9xVCPlYDCwJRDEusDt9ZNsNSHKyLkIrjvh9jk1AsbIYkAjGvpz61T9zUrtKp633fhZlQpLEWELRvelNrf/fv9iUnhthWyIqHmNjnrW2KmcJiJWO4FishRTzAlpC3T+C7H0TAgmBJiF8klpGCVHIsvw+R5JxNODXSmOJ5XAOG1zEPhZsxrwjWppSAIozCjCjSWBPe8pbW/tbfau2uu24cuCYE1WVghTgsYGfiWwQSEP7cRkghrqYUwWqFSwlZmDGtOMYqkQk1FJDDrmX/ouOF3SDgLT6VlWul2u6TXVcobIEijTXBJDSzw9/2th7niAtpW1jvyJwPxGEdosc/vruoHEcEhD9LImVoWdi3RSSK82U9nVvgmhYvViAOpO6RpPrLQoRZpoNlJX7DspoaiEESA+tCfCoz3oswCgdAkcaaYAFDhOG9DfZlGxHk24IlIINKkJQbA2EQPkjAOx/ETbiOdInELriYhm6mxDFYJASjz+cEM/QlDyAHdYI8uInMwrbGlYJIEKpZ5up0SiAnVqLsKKsWc09pyyKMwoFQpLEmEEDWabJUOqtDQJybaFuY+CWuQchZAVUAVR6/ALXr2p4iCPGUIfJ5fBxyvuGBHOwjBplJ6o3FgTzVqePqU10qzuW280ImadLINdfcd7hZ4v5Zz+pL3FvyvCyMwoFRpLEmcB+Z02B9JHENrwe1Ouy2ILRoqmIbyIPVQfi5LiG39q5wkVCOBTB0IaWkPmwRgGvYckEpzmF1uS7hzEozJ4LV5rjzHUcWZu+rV8e4Dz/60dY+9rG+tDrC567i5rsuXNP/ciuyDmXAsTLEMGLZFAoHQpHGmsB1JCBtzob5Gq96VRf21wF3ikLoEYj2uZj43k+BNGD4HJ6TZUDoEu4Ee9a8Iowj8G0Rh/qwRahSV50L4hfIBMn63n/5H1vH1aWt/4O0FVL/yEf64ojm13BbXWfBSNe37phlQcyxEfxGFqwb9+Z+C4UDokhjTdBUXCWI4id+os/ZoMkWPhkEKQGOFPLWQoI21oDiO4WrzqRHW4Tgt7aEsuP7AkEgjTvv7K4qbSdVWRwpKccsliGQElJjAbkHy7sLeN98c5+Q6f4KhSOhSGON4OZ43evun+g3R4bOMREtflcgB/NPCFsuHWt2iTkgi6FbivAlmB23ZSX4b1uEYn8KiDuNX/TEzcjqyLvCA2SXJc3FK5SkSYthTEFkhcIeKNJYI7g+xDNe+cquvRJKjo011nMFkvA+bLOkkYdsJ5YEskiKMkJQWBZKPue7HJsC/lPbmP+CMFiH4lKKrDUurFgd4iVcUTKkkATCiGsNycX9VSgcCUUaawQhJO3WZD+WBg2W1nrM9FcCNjGSCF0CjkYfDX54nEbtOZK+i/SUKZ6BO+oFL2jt9tv7pDfxiaUgC1BqM1skYk0uy6sAkkg6LcKTEs0KKhQWgiKNNUKTebf1+9/f5wJIvxVkvU6AdWogBMKZLx4hIAvaPc05Wr5zaMs+cwkhDK42qb5Ij8tGJte+QBpf9VWtPec5XfAuyaUjJoUgTIrMVkZV0nLdK6JgXYirqKtCYUEo0lgjaOhZxkOQ1YS/d72rZ+scC1xAgs7cKCwJ2rE4AgGIOJAFMkEqJsiJO/DlewYuGq4axDfFZDik8fzn91Vf7fuvpQSPDbdhibsswzDWWLY5VigsBEUaa4Qm48qhlf/8z/eguBRcM8R3BUFPsCaziNAn5Aku200lgs1vaMVSVP3Wd67F8kActnFduW7OS/owH7/3eIvPeDHTvoh7KqRBWz82aWizEv6FE0CRxtpBS5d++5rX9KVFrpo8FsE1bnYWAmEuW4d1YD+T2wj6FMJ3vB2WxC9CHDkn2rPjCMN53DPu32x0rrZ3v7tnF+2LWBpiGkshjULhRFCksXYIrL75za29/vX3LwVCg4/b4yoQ5vzoXEvmMgjEmgvAp064E7YsCQWJDLcKUtgV7lMw2H2Ly3jJFBLZFyGNJbqn1gyiYlwoAsMC2RZOEkUaa4dgsrWovGODi0eMg8uH++oqiC2wKsyYNuvYFnEgDESCEFgamdOQrcJS2BcWWxy+ytZaTUUay4Ugft6lwkpk1eof3I/q2JImcU8WThb3qZmFVYOlwDrwTgUl7pirYLCbROY33hvOlePdDN4vbeVU1zHfgbsqcQkuLETiP6cAa0iht2RbWC7MYpflxg3KKmThWgNNBp/UYett7bK2VmFVeMB33ocb+4U1giuAu4hAt08TlL5J22MZxDqIW8lx+1JRTSDzTgYkYSKZJbaTDhvLQkEwLAu/TWxiCrCGpNwSNia4/fqvT/N+DkF5M6jNCLeP6KawjE4dSNskRBYFC1b7IAFtIqvNwovIQbo365CVqP2keit5D4vi93GR6i8phdWj3FOnAoOdFih11aC2nzkAhABhHxJAMFmTKTOOBb6RwyGRiW5iGtxT99zTXWv7otxTu0Ef4npiUdjqPyYemj9juRMKif7ENaV/OUe9cnNKq85qwvbj8uTuZK06VjgJFGmcCjQj7Y6VYXAb2DR4A9ssa6TB0kAOmXCXQDYiYUUcWhMs0lgW9BkkkcmWUrilQ1vi3WfKh37CgtCnkIx+FSvUZ31IH2O5Pvzh3eKznDtX6DZu08LiUaRxquBaIARojQa7wYw0uGvEJ5aAuUiDgBqShqD+uZHGOF5EoCv6gkLoUzIc41rST1gTFA0TR225pMQvlOtCggXCsIyLkoy8xMaSmVdYHYo0ThmsjviWkQaNEHEsxb8/J2k873k9sI80CKp9UoPXCMRAcdD+WdtLrCHZTyaGUioQRZZq11+smGzLDeWYmIV2ui5YsdxW6h5p2xcz8z4QbWIfsVScY3Uo0jhVpFmHzZsBupSBWpbGPCDw1S2SQBZxWSILRMGS4G5KcFvMwvf6BTfTsO8olI7rwrW4rmLtuK628NbBRz3q/uQL1kdhVSjSKBwPc5GGrKmv/drWvvzLe6CflUFoLRmEK5dRBHRcSSwF2wjwHGM9OD8l5yeLCXGwGmJlxHpIgJsFgTxkrfluGyCCq8TFZedoBy4r1oZ2ibWRtO6KPa0CRRqF42Eu0iCYvumbWnvhC7tbZA0g4An1EIct7Z+LyHeJSSAE9ab4zm9SYlmERIYFoYRgQiSu6ze7WBK7gOXBXYUcEAgXlrlAj31sXw5eGjjyWIolXNiIIo3C8TAXaXB9fNu3tfbiF/fMsH2xaYjk2GXfwUX7BDVhTojT9EMCBLrvbGMVEOwR+smME4cIeTgvv18bBMSf9rTWnvnMnm0lTTerIoM6KxJZFIo0CsfDXKThBUbf/u3dRTUFCPFhQgEksEy4Ay0aCdDeo+2HGPzWMefaj8vJdyEI10IejjsWMmFB+K1zc/1YILEunOeaS8VVbi0WxiMf2bOsuK3M8eCystw+q2TprsUzQ5FG4XiYizRorEjjJS+5cWBPEMyENIGeQDHtXkzAFhwnuD0T6yAE4BjhHksgwh5RRIsOuSiOpfgcEskx+46l5HeOrxWsCuQgKM7SEDA3t+MRj+j7UnQLi0GRRuF4IHCRRhYsnIo0CJxv+ZYe05A5pYsT4gRrBHDg81BgRyuOcKbZu0+F9i9d2fdIwCQ4WwhpIAzuo7iUHGMZSHHNdZZsFRwSYwvEZysVmNOhDS1zI2jumHbkyjr0qgWFT0GRRuF4IMiRhpV5LY1+993TrHIre+pFL+opt/zjBDjBbUvLJ7S5kwgp95C5CEghxw0LROJYXE4++953jrEabH1GGkjCfyj+w/mOsSr8j3N9LvQ6hrH4ESA3o5xrKkuRcFshD9lWrBFzjQpHQ5FG4XggXIekMdXS6DJyBFYf//ju9vA/NPwEkAlwQh4BsAC8LdCcBcI9xwPDIxbKEDl20XG/G5YcG59f+GSo++HkUysYcFNZjVnc48EP7u1bOBqKNArzgrY9FpS0TJq4mAB3lFfWWl7bO0GsorovpNkSMCaP0UpZCXERIY4habAwrK6LWArLBIvDaswSHKRTi3OwOLIUibYsHAxFGoV5QUDT4IGQTlYQAS4mQGB7xavVecU2aPz7Qv6/fH9uDlprYgvcQ0rcUIBQWCE1DJYLxJ/XELMyxDy4ILMQIvIoHAxFGoV5QEiLHyAHWjzrgkZISNP2LYiHNBSzkn/t17qVwX20L/yXMnYzDbdDOFbDYPlAHiYHWm79oQ9t7clP7hMDEYrvhu1dmA1FGueOuI8iOBO8tU3JZ9th8TvFPmtCocXnGLLgFqLdR4gjEy4hWUYIxb4tsuCucv6u8B9QXfo0oD03tSUL0nwOsQ4uK/M8fBY8Z3UUecyKIo1zB1cRQU7QE/gEP2tAIeyzVZyrIIO4eRSfWQ+K8wPE4XuEA4SAff8XkrGv5D+dX1gmLhLih4ZZ/sjB/A2xDeTB6rBlddS8jllRpBEMqyEa67FwWZPku/E5w8/ZzyAf/mboy6flSxslvCPMHUcCQ4JQMvuYJeA39iP8HbNqKpdTYXton0197aLj22DX3w0x7C8KhWLJkI5rGXwZVtJzua+KOGZDkUYQV4tBt4RsDBo3TV3zRBBESNsS8r6LNq84rtj3HYJwXmYkIwTXipsoxOD8uJTyH8MSK0CJ1WHf+YprcDFVV7oeTFTzNjuas/pXf7KB8o52Qfy0F2yq37Szc10vxWfHt22TtL++kHamDLAete0Q6Y9LaW+vmOWmYmk8+tE9c878DvWoDnK/hUlQpAFDYYswjv1aSoOWILYl9CM0aPcyfTJBzXeEeiwCxxND0KwEh/O8wlOWUga/474nJEKWPqf47Nr5LiXHss25SoiqsD345qWTcrVoC/VHQzYhMcuER/jDuH59VvRZk+JcR0CYsLSN8nNZu0Sg+n/9LX3MhEfWo/fNe3Pf8BpLIw3w/LKrnvjEPkcHiSTGoQ4Lk+H8SIPAI+AI27hbIqAd18GQRl7cE00lA8V2fAxUYwTpRfBdSgQvuI79EEAK4e+8IWkQ/O4ZGRjoeQ6EocR1BJ7F93nZzmX3du5Im2YbpJ2H3w2/B8eHv8s54wJpd+RAG1ZoyiENfS9vvBuSht+P2y99yfdIwnUQRsgjwjL9bBP8FmJh6FusUqSh33hHuLXBvKhJn7zsWofGpjphbdxyS5/XYU6H+kUohclwfqRB6HphvhTP+OENEsIVaGfcBRl8BrfB6JjvmP46oQFtPx03g851hmQQYeFYCMvgy8J1Q1IgOGL1KM71O9/7D8f8NhaI75zjuP9VEI3P4Heu6fn816kjdb1LlyZgo6VrW3Addeiz72wVfcF/pW2i5aePOOZ6+odj2TrmN67rOmY7szbsa0/Hh8Lf71wrzzWG83OPzs292ea3Oe8i5Nrpm+lDFA8ZblE4zNQ3c998muH1/P6y68+JTf+NdE3+46JicVh2nQJYmAznRRoe1QB473v7shUGAgLhtzVgDOp0RAMOYcjOMFHMIM6AdFwhLJxHEBDkIQKCOoN9PCgNSELc/ATaHAFP0OR/x2UInyN08l32h8ftQ67pv5VTR+raM18H2pU7iHCh4SMA11Jn+gQhThhFgdAX8r2281u/853zHdNPQkLZ+h+/0z62OTf3DfZDPPm8DZyXkr53HaTO0nd8RiD6tf7K4njNa1p7/evbKhQQxPGyl/XCTVWYDOdBGh7RIKKlW7LizW9u7R3v6OsemRtwGQgLPuZofoQB4aCMSYNpP7QeMojBMWSCNPiMWTgZoIVpERLQdtoMIkzTLqn7tKdzQxxIA5wT0ghh+E67u0ZIw3dIQx8JEbgHZKHYXzsoWK98ZWuvelWPc+jLSwZlz9sb/+pf7fuFyXAepGHw0+iZ2x/6UGs/8ROt3Xln99NeBQIghEHgRCAQNvYJD1U4dC2lSkMY4Jj7cB6CUQrzQExAFo1lJghz7aRoM21HsGsPZdiecTv6nLbL73ynD/itfgDa03nD70NKfuez7SnA5Mt3vrO1t72txzhioYd8lwRtoe29ufFrvmY9r/xdCc6DNGiErAzavfc20JZ0fub3VYjwGBIAjD/DtlUZgVWYB9Yjet7zuk9bzj7BrbASaP6EufaLwNvUxuP94ecgbbjp98GmY2sEC5qL6v3v74qXLYvD2FoK1HUy0ryI69ZbW7v55q44FCbDeVkaYgjveU9rP/zDrb31rTe+vAEdrgT5bqB9E8RKtPZo2eqV9p3vnatA/OXcdfa10RRCyGSvb/iG1p7//C5A9oV7cm+ew7OdI8TjWBfSbxHGXXe19jM/syw3FRejhQwFwZEGa1MGVdyNhUlwHqQRsDbuvbe17/meHtAbokhjNyCGxHj49hMUNoARiO+Rhe8c4+pT1DeXh2wcGmtenTqF2y5v7uOa8J+7giWaLCLxKs8jqCrGdW5ADurBfB9k8brX9ZdmIZNjQx9D5pYQMStcyq15GmIZ+l2UlMIkeMB33ocb+6cPwosflqDyHocldPhDg7CO9j/cVwy+7OezYtBlP98RoAiCEPU6Tm6gvGmNe8jy1fZNuLK1qJwlHvIWNucQ6Jl7YjtMF94HhIUXMNE43fN1QXlAEpng5iVNCpJDJCzXxDNc3/bUoU60u60xJInEqsRLcE+xJPRDfcyqtzfd1PsYV6R7LkyK87I0QBbIHXd09xTiIBjOLShtkCFQAwohGFw0MtsIQcfjarL1OeRh6/cCjrEcXFNhcSAT2/yHbb7LfwGhIyEhr3k1c13a8r7gmvi2b2vtJS/ZjTQQgvkJ7k+KNsJwb47LrgpJWlnVluXh2U4ZxITCGvSyLC5e1sYUJH8dhKCHYgthPO5xrX3Jl/Rigl/NzZgN50ca3CBe9sMv621xtttkUZ0KCHrzTgg5wh8pCB4ShLYIgqB3nCWgEPh+l0Lw+55Adq5typBcfGeQRyPPcf8BhPHb396zcvjKCWoxjn3xsId10pA9k/+6DrhiBH3N5ZEpxH3Gnx9C435jMRFU3CD86KysXf5rbWCdI43v+77WfvzHl0EarAoKArcUq1afpagUZsH5kQYXiIl13hYnvvHGN7b24Q/f+HIFiOCNMFaGwtn+8DNoYvssAoRBM4uvFwnQlLmRMjvZ7x1nMcRqQBSOuYbvp4CXL7H4BFW5DJH3eHG8XYA0vvVbO2l4nusCaciyYwXx37s3vvwh4gJ71KM6aXzWZ91Pxv4z1tkpQp2IC77iFdtlIM4J/VOG1Nd9XZ/9rZ8WZsX5kQYXA20JcbzrXa39g3/Q2j33HF5j2hXMbgPF4KBNRUApjqVEaNk6JwIfWSghB9cg6Fw31geCcXxoVfg8tRAMaZhoadLlUkhD/5Bl96Y3dfLgOhsv+65exWVYGMiW9SEQi0CUuK1OEZSsv/N3WvuxHzsMaQyVn0D9y4xC2uIYWRa9MDvOjzQCATyk8ff/ftd0BTmXXhUEYPzoTPBhLEFBBiEV34Uo4mZCAKwUiCWiII+hOynf5/O4TAUkYb4M0qDNcwFN5Z7alzTe/e5OGtyX3GhIY5g4oW4ILoVlol60C+vDC4G8jjTB/lMD9y7SePnLD2dpqN/h+OROlVL97Gd3kraOlzFQmB3nlT01hEEvQyZ+dALB4J8rG0SnJ8Ai4Gn1BAoBT9DTVBWdn4YaN5ItTZY75PM/v6eT0qiQB/+t4mX7yvAzAZZCG/Yf/heJKLFIEIv7IvxiTaSESIbkMSUEVbkJCWUJCVOl3Ko3AVHksYt1RDjJmkJqlAn3pa8M+4Zz9BdCU99RZBWpI//pOynevvc7Fi7EtbhmqBMWmHjPobOn1J8xIjOOW4qFwcLTfwsHwflaGmClW64pA8AKnoKxU7hHNoFARgaWNCDAI7wjtCO4FcI83/sdoW2wEPpIxtb5vougz29zLcf9JtslgmURS0PdL8XSIPAFwi1sKVmCO0aKKRK4CggeaSN5hE8jlgrKlYLoCbxdiGxJ+OhHW/vu7z6spQH6MsVJdhS3lEQEFp0xVDgYzps0aEzSbg0C5PGTP9n97HMAEXBXsBJoRpkAx+IIQYQskAJiiUtpqPUHQ201+5uOwVI126WSBu1Zqq1+gTC4qj7wgW5tbAPt5H+1HSVBhhWXFe0YoSAWAnCtYGH87b99eNIwJp7xjNZuu62nVRtHji1VKTpRDKTQGYKGQhvkwpl7IOvYLA1aJ+1Ip1cIOFqotEGE4nvkws3EzYI4EEmshxREkuLaIZUURJGyVLg395p7X8q9ug9krv5ZCtrgsnvz3fB7rihZemZQs2ZZLdJUKSW2yIhyso3lUrgfrDSkK4bBajNmizAOjvtG6hmDO4dA0BmTOTQXCHoEhRgQBeJ48IPvHwCIi5DKvcxJYEvCUkmDtcfFhDS4BN3fRWCsX2Swi3WwoCRdeB+FFZYlXlj0z4TBQ8cEpsAh28l/GZcsirSHcWKMFI6C8yYNglnnS7bRnFoLoYOgdHqBaRoT85q2xFXlHtwLlwYyW4oAnRMELaGaxQoTLF4C9IckJGg3bbILPBO3lqC62JlUXpMGkYY4CeLw7JcRz9JwyPsMgSMKilXao3A0nDdpEOSEA6FtO+dg0PmRUoLVuwqhUwJhKWuKQJXSyqWzBKStCKcQuv4xBWRlZaVY7iqz4U2Wk8WHQNcARHhI4tAOWcMMke8SpypMhvMmjcD8BvGNObV7g8xgk5lDOKxlMuGcEEQ1ydIaT1kMcGkgsJCGMoX7klVldrkAuwQAqy1zV1mqRGrvGqwNffhQVqExqe4Rhln3SLxwVBRpAMKIm2pOGGzIQrG/BgExJ9QB142A8ZSYsl65Cwkq7hGZUPsqF+6NRcUthSjyQiOpvQLkAufqZKl9QwwG8R2q/6prY1M8g3vKGL0svlSYHVX7oBMKtNFkxBoIiqnjGwYYC4PAOOSgWwOmrofhZLp9wboQd0rfILR2IY1Nv5E9xT3HXWU5FWs5WcBR4HxpfcP9qFPWkHIoq1C9GY/agGsKgRRpHBVV+2BA0CY/93N7dhOtcupMKv/BwvDeCMJiLf7rOUEgIOep69p1dxHsm0BAsTD0De8I0U92ufYmEnAdSgSSEN+wauxb3tItkCnmq0wJhOFerfTLEjqkKxFpUOrUvdhSkcZRUbUf8F3nJUJz5H8XaVyMqQR8QBudKmUZoSEN82ekRk/pwtQnWEVJu0UUXFSyrGRYWWLFu7mXAvepD+u7SGQTEU4N/yHwLRW9LI1FoGofCC3BcCmwsjTmmGVqkNHOkIZSpDEtCJIIeGmZ0jSnICPXzLpfrA19I0J+DsiuYm2YbW1uhwSBpUB9qmdlaqK/COp6SBqUgSKNo6JqHwyA5IJnMlfFNNYFggTxIw3ChRtjCsGmH+gPgrAJxE7tThtC/zCD/A1v6MuXyLTSX5aCQ5FFoK65p+YYk4WdUKQBBgIhEy2VCTzH4GBtxB1RhDEttBeNVNtRAKaaB5N+IGsKKekfyGNqATbub9xSUpG9Z0SMQ4aZ/nMs6K/6LWuZi2pOa2sI9S2WgTgKi0CRRqBT6pzM4Km01DFcM6UwLdQprTQTJ6cW6tH2WaOSJcS+ENSc4Joy8Y/FYfl41umxgDQQhnjcIWJySJpbUBwJccxp3RWuhSINiMARDOezpqnOtfZTEcd8SFxDGfvdCT2a+rDE6iOMCUGFFq045jvxJ3EGq96ate53XCXKlLP6x5an+7dMP1eVORxI45hBcfeXRA4utLlJg+KGNJAzD8C5rMW2AhRpDEE7pT3GxVFYDxBESIO1of2G2intWHYSwW+FWct2fOITfWl8b6Lz7gxLeliq3Sxt6a9eBSwg/cpXtnbHHT0wnRVqpZ7OKTgJafMhxDTcI9JCXgT3MTAkjSRyjIluSmhDZCHGyANQpLEYFGmMwU3Fdz21Jlk4HJDHUMgQdt6qR9gTvt75LU7gFbOW87j33j65DjGYYPcjP9La931ff6Wp8r3f2wkEmVhw0GQ8ApzGPRcipN03cnPfZoubSc7imFNgbwILK9l/h3JPSX1nbbD+izQWgyKNMRAF0hDb0FlpPOVKmgdT1ishSpARamZZ09BZE4Q760Dx8iBWhbc0piAN7h9LeWR+hMLy8OKlBKIRDaHtetxGBOehYgyIw/MgK8Fx/39o0gDuOnWsIJE5YdwZg+IZxuHQaiwcFUUaY3BRJUtmytTNwqeC9jhVwJpAo4HTxJHB617X2vd/f7cSfvRHW3vta1t74xv7Mh3cUFxNeSkSMjGRDsn85m92oXwsN9Am0PARFmJDclxsxwALTnspc48Jyhuy4KISayzSWAyKNMYwGEIaOizSKMwD2vJUGjPNd0waXExI48d+rH8Wr7j77p6NxJJgUThXzMBqu2IeXE5za9HXhTriWrO4IUvJvR7rHo2PlDkR0uCiMh6LNBaDIo0xaFMC4awMHVaMY8oBMvdgWxri0qAtE8iJA3DtcLv4PAVxuIb/SrDWtQlXReqqzywIxCCInYJo3IP7c5+usTTScE95kRNr6BiWkPqVdiw4r97U15xAGuKKsTQqprEYFGmMgTRk3iAMPtUpJxWFMM6JOAjiLH/O9UNjlj7qrXVcLmt5h8R1oY2nbmeCOkQnpnJIIC6Eq/3EdeZevp0LjKVBeRMUNy4Li0C1xBg6p05Ku2EWTxkIzyA7RSE5Bk2YRkzA0JARhCAushCU5hayzwI4xfrwTHM8F20fYbCmDgmkgbBYbsjfPczZbhmDc0+gLFwbn/bb9+HGfgG4KmjCJlXJnhEsFXzcN1MGAT3mMa094QmtPeIRrT30of0dDVMFgqeEZ03hqiEwFJ/jasp3uo9jhIiCLPIbn2nFCmHnd3EDqWfxB9lJ6tv5SwUBxlXCArWvsEAVSoZnIVDzrgn7cz2P1XZf8pLWvvIr+2xpbpxDaOGsDG8alJosriKbS5baHK48df2sZ7X2zd/c2hOfeONgYSko0hiDAJBJQxuWinnPPV0rJiT3AdJ45CNbe/zjO2k8/OH9/QxLIw1CgOuBwI+gt1XUje8IEFt1QjjaRwCsimjArDPfIQjFfoou57f+I9c6dDd0f9v+Z5YOsQIyHzuXifkDjvO1y2YSTFekxeo/6moOWGn3q7+6tec8p/cfmvgh/P3aSRKB7DOkgehZHFOSRtLdvezqqU9t7YUvbO3Rj77xZWEpKNIYw2DnRhmSxhSWhsH9sIe19sVf3MnjUY/qgmhb0tBMw5JjF2GTS23T+Qa94vkQxJAUCHX1kS2LwXc0TBo1MvA7xzL5bA7Nc27Q1NVX6szWs4HZyA95SCf5z/mcvlghwiDYFL/lsiFI9ReWqaws1sYcQBrPf35rt93W92nlXKhzQxvPbWkYI+rXuGCRP/OZ3SIvLApFGmPQqDORintKTr/8+H1JQ+ou1wLhgzAMCiRyVSqh5jEwCTFCW5yAQI+bx3fOGZMEMnJtx51Dw/cM9kMQrAJkMDzuc447h7spW3XjOwLRNpaDfVqn3+wK93msrpiAa3zo2iouKAkReTkXspAcgUhYHENhrc/oJ69+dZ85PqyLKZ8NcT3vea192Zf1/uTe3evc0O/MdfF8FCqJDfrDlG3mWTyTcfElX9Lak57U2oMedOPLwlJQpDEGAcnNwsVACNCs5PTvSxoEDPeGQSC28fSnt/bYx15NGoQycogLiBUkg4WmTzAl9XJMGkx9/+n6fh/Bb99g93uCXiDa8fjFQwRIZFNRD4pz0nV8dg3HloLrCOov+IJetA+Xkzk6toiBJo881KU6VbiDxrEE9UoD/6Efau2Hf3he0mBpII28FOoQpMGq8Gw/+IN9dvwcQNAIg1LFLcUqF7cpLApFGmMQfgYIV4tlqc0i5qIiFPYBIUMY8UMbDLfe2q2Nq/zRhD0tjwsEkQkccwXR9Agm96UJI8DsE1L+jzBhcRDqiMK1QhrcDcjR/ilDXahj5Kku4opCcI5ZEI8L5Au/sLubfGZReIsjIXYdmENh9rnCUp0DiOIFL2jt2c/uBMI60tZzw7P9vb/XJ0saH3MAURsblClxPwTCXVVYFAaqUuH/B6FCq5Qpw00xZZCRsFKyvw0QA9eH2cBIjMtMYB55CLwKSCosECX7vrNmEuFlm3ORYZbLOHXCCAijBz+4a6+ycfjKv+qrWnvpS1v72q9t7fbbe4IC1yH3CEFFg78uBHER0DOe0V0r/ndqUAr0SdZPlIJDgGuU0sHanAuehXuQ+09dTjn2CpOhSGOMaKZJqbzKfXQduDZSira7DZAGIS8FmPvDNhPjuKtk7iAA22Hx3W/8Rj/PPAlWRdxRrIxzIQzuJdad5AOW3c03d5L4mq9p7WUva+3FL+4kglC4DlkYtPdYbtcBIc5iYUVyP7IEpob78j+Ju8xJGghKEbPizkQau9TLtvAsnkubFWksFjP2gBXDwBi6M6YCLW0YM9gGBm1cSslssu/3jnOnbSoGuPNSfM53frek+MOuiJChmXIpCVgjCC4cAlvW0+Med3/GWlKduT1YBL4Xx+CGIqQoCVw92n5bUh/Cb7m3XNf13Yu4yJRwn7Tx8ftC5oK+gzD0OwqM/jgXtCci9HxTK2yFyVCkcRWmGiSuQ1BHaG9LGgYOQUGwcZkMM3ZOGdsI7cSJBLH5wW+5pbXnPrdPfjMx7Nu+rbWv//oeNPY9QR73E212arhn7eOekBHiUnzep91cV3HP6QfIcm7os0hDTI2FyuKY0z3lGbUpwlBfc1o1hZ1RrbIJBovBMaVW5VoII3MeEMc2YKJL8yTo+MgRyDngsronTLiQuJJYFV/0Ra196Zf2CWFcQ4jjRS/q8Qr73FK0f5k4LAHCd04t1rVZGAiDu4rFsU+70cDds+dVWFYE6yGgvyIMwW9xjTlJQ7sii0O43go7o0hjEwisYZkCBhtNzQBM5tM2oHmZQ5DZyOdmskdzJ4BZCtxN4hKsCtubburuJ8Qh2M2SQA4IluAhiAgf9Wbrs7KNJbMPCHaT1MRKbLmTdoV7ZWHE7Wb/EP1A39dPEYaVgg9BGupJ3R0qK6xwbRRpjBGSMDimtDZci6kvIC1QjUC2uTahSQDSVmnJ4+BgXBenCho2ocuSsHQG19M3fENr3/iNfd+xWBIm4BGoyOLYYAlwm7k3ZDcmjeu0G2Gq7VktrkmJOAT0T/0UYeizc66pBZ4TWVAS1J/PhcWhWmUMA1lnpckpU3dc5CGwiEC2IQ33YCARGlwTBtQQrjEVsR0Dqe9YA0NSpHHSrgld1oQ01qGVgUgEtWnfcdtwbSzBreEeuKQ+//M76SG0IUlcp92yvIZrqY9d0oF3BfcU0pB5JxFjTksjQXD9vbBYFGmMYWDT7pOlwkTeViPcFplRfR2tzb3IDjKb3JyCMXmA+5z6XucGDZxAJFhlOJlHISXWYnXiEiaxOcb9RGAiB9bHWrRQ5MFKfMpTekCe6+w6967/yQyzIrLr6AOE6qHaOaTB0kAac1kannNJpF+4EEUaYxjQtF3anMGJQKaG/6CxIY9t4Z4IDD58wV7po4fIoJkbXC3mR/D9E6wIg9vpr/211r7lWzp5sDDEK/bNQjoWkKI2E5jXfkhvG3DRIElEo5ixzv02hyJzERLTmMvSQBCekwtWzM7+nNZMYW8UaVwEA5NQJqznGKCyp7YNhgcEBuHJVUPI2jfIgqW6qpAkYc9aIjBZcUgZWfDTsyJYGZ7Jswl2s6a4Y7h1uOZkkK1VC/XM2krar+ezn7jLRVaH+vLc6iAZWIeKZQSUGjENiRvKHCm3np9yxpqiFJyCInTieMB33ocb+4UxaFcWLbSq55RmOQFIcNAeCVCCcBtich4yI3CSZUL4mrhnUC8V7pkA5IIKSSAIQpS7LfMnWFKEB+F4iOygQ0L7xkLQdtrNMxLE2m8MCoJ6YZmoJ3Wn31xEMnPAvVmF4Kd+qi9NM4dCok6S6EGJQJIss0M+Z+FaqJa5DDruHJ0XAfEVC4hLY9x2zoZ7IXAIYMLW29ssk01LX6rbhmAkAMUjCD9vZLNKK1eNlwnx88swEtBGoghjnCF2KiAgZT+J01h0kDXF/TQmSJq3FGukoW5YXnl3xyGBNLik9NG5LFiKEEtMn6YwsEYP5Xor7IQijcuwrQVwXRiAWU78OrPDAwRB66SdWxbDuwcIFgPPADTwDi14/Z//5mJgMeTeEEXcMsgty3iwOGiWuWduCRYUwXqqWqb+xMJAoKwtxK9utB/LU32kPZVkhqkfdXIoYUqpiVuKYnNdN+p14Lk8H/JEGuPU5MLiUEujXwYryX7Xd/Wlrje5EHYFoTHV29doglky3Yq2FjS0oq0FCw34ISJ0tm1y5297LlcZS4GGTABwOSA2WrPnE+RUnIfUxGLOWaOkvX/iE31BScvem/RJOKsXxEuAiuewMIZxq0MAYQh+e2/Gm9/c2h139PucA0j0aU/rFiiS9MyszVNVHE4ARRqXQSzju7+7tZe/fB7SkClkf58sLc1H+BI4Brk3Dd57b18O3eq4SGVusDK4XWjPtvzvCARJeDYWBC07CFmcM2lk2LEyCems7aQfcOept2PFddyLd7ZQRN71rv6aV31pDnhW7rqv+IrujkMYrM5z7hsLR9H5ZRB3uE5a7LYgKFw3K8/uk5GSwUUb5crgAuIHN7eBS4gAp83tC9YBCwLJcS0lkO1/xCVoiz6HOAQ2BTQF+pEKzTHFPZ+7UEgdIFMEQcNGtLYstGMmAuiTXFPmZrBW5xgDgb6PJCgYIYzColGkMUY0QO4DyyZsO3P7OjBQXJdmyUKYalAacAS690NYqM8SGxbx4ysfavq7wKB2bcFb1xeAt5zH3/gbrX3rt/aJeP6LtohcavBfD8iURbaEJACkYWVbk/qQxraJGttgrCwYCxQeFod4RikUi0eRxhgIwqBJ1siUAyYwUFgZSAN5TJXOS/AYfIKqAuMsDkttEOQ02ACB0GRth8UxheCKpmsAIwEWiyAt6wVxPPnJ/Q114jIm5Xmvs3NYF8d0rawZ2mAJAlO/lG7uXfQsjinHwFgBY8HqLyzSwipQMY0xCHACnZb1vve19g//YWtveUsnkqkgWEwrN9OZ9j7XxC3BTMFWvmn59l4bG+sJISJGz0pYsQxofHzqMphovfZpfwKzCcra5z4R0EZQRQ7bwTBbgwbtPvX7V7+6tbvv7m9/1Gem7P/qQb9BFhQaqddifPpUYfEo0hgDaXAZ0bQMnle8orW3vnVabUuaqVhA5ieY0CTbaGq4Z3EZ5ODNa4hQVhUN0mq7ybBCEkgLCdD4FAM4SzsY3EmHRSQskRTWTeFqrIU09P277mrth36otTvv7FbH1NBnjAHxMdarV+OaxKifFRaPIo0xMvFOEBBpvPKVrb3tbdOShnRKbiPFoLGst0E0NzyDLBjpk4jDPjJBBCwIxGHgKggkcygK00Eb0Nptlbgmad7K0F1IuKbMTTjEgNia9F/9/Qd/sPf/OeDZJEuYpyJxw5bFXXM0VoEijTFCGgbPT//0PKRBg5dpJO4g2yjB40OA5iilElnkvc8GMeuCf5lFwU1lABdhTAuxLBYe0mbl6WMCzkiByw9xs/Dsq3vtoR20h3PmBCLjzrRciDRb7ikp53MAOcq+46LNGmrcn/peYfGYuSeuGDS7lKnhmoRAtMlDwsBk6ZixTctDXGYfJ7Yi3sLiIKxKn5gW6hNhf/zjrf3kT7b24z/e2g/8QGvf//3dDSp2Zo7Nhz/c59yIR3GTciHGIpkL4lysz1/6pR7H8Hku6P+JlemLLNtDj4PCzqiWOgYMENoj7d7gOWQwGVGJTfj/YeZKNNoEwt3THIR57oiywBXEBYoYCOmPfKQnK9h+8IN9oUyWrsUCuYl+5md6QoNJd6wUVkESGVgw+0Kw+1d/tbWf+7m+woDPc8H9SrxgcXOB6oPqpLAK1Cq3Y9AGuaJkF/H5W5aDyT7FwAy4HwTAxTNkJHFJENaF04f+RUDqY8hCAe4hREJYsy6QCeFtZj/LxBIxrAAZcBIauBmd71r6zr5C133cc093TfmfKa2bsfKhDvR/adtcU4dwvxUmQ7XURdDRU6YGLZ52xQ1ktjbNvnD60JckGJjPIo4la24YN8ryHWIJrAsCnMvq9a9v7bWv7eWNb+ypsB/4QCeTrF1FydkFlCFzMZAGgqIkuY8pU2zHbk79n3VLeSplaXUoS2MMHZyGJUDM0jCALQA47vj7gOAgNGSQ2BdnKPP89IE0tDMlgbDWx/Q1VkeWrNHPfKfYVxx3LneUWAOXlPMlMnBTIQ0uq7itHGeJOI/wj8VAm48S5DvkwJrhDosLjIUzxNRKE8Lw6tqs5Is4CqtCkcYYGbQJDPIzM9enBHcUwpCnHtfUIeMaheOC8NberExZc6wNWVTcUpdBv0QgCIGLioAXMBfrUFgeXKmug2AQDXJAGoR/5tU45v8QhoD8G97Q2rvf3V1fU1oYY3hOyRYUJisIjC2twipQpLEJBhjtT6DSQBQgNFinAutCtpJBE0ujSOO8QFEwcVIgWNtLxdXPrkrt1g9ZGWIOrAq/41oi8Ck5CIOrCjEgDecqsVCQSQgnq9gqrJU5CQMe+MCuLInl2YrnScAorApFGmPEhWBLG0tOvYE4lYvK4MlLiaQccldM7QYoLBvaWxEERgRIgGBHGrasiuvA+bEsQg7cT/ougtCPWRZ554rC9WrrnCFyb1NDthTCUKzIjDRrbsbqUJP7LoPA4Ote15cRMeAEDGlt+4KV8c3f3NfcmWLZ8sK6waKV6iq4La4g1ZYFsQtYLQQxSyap0wpFyBYZxM2FZGRr7RpEvy64pbyi2AKXWW+tSGN1qOypy8DfyoSW7eIVplMt982vbFCbJ1Eo6GfiW2ZHWyFAn9s1ow4ZIAFWBuJhZcjISvpuUnfFPmJBwxyWxRD6vKA3d5w4jlieGEthdSjSuAxIwotxDGSDmithjF0GGxfEdd0PhdMFBYKb0ntPrEPGEqWoELKsg0NhDuJAFsgBWVg235ZbSiyjMgZXiSKNy8B0tiYOs9qA3uRK2tW753dTTZ4qrBuENYWEUNXPKCmKvrdJUZkD+uMcnmoWkxged5RUW+RYGVOrxumRBj+tTBDmd8xx+zJGBAivAxqS7CbuAhaHTs+s3ge0K9ckDOZ2CRTWBVYF141Z0oLFBK1JoGsG0uDaZUEhRHGMwqpxetlT0g4FE9/znj5h6UMf6j5dWhSBf504AqFOyCMPGS1ZuiGT/65jKRAIZsHGcpGnzuVVJnphCP2EW5SVK6NKOu1V8zeWAuNlrAgZb5Y+974M/Z576lDWU2EWnJalIc8caSCLN72pL+9sJVFLL2S2q4FI8F8HBjHXgfVypMrSmBDAdUAYMNP9VrohAitLozAGzZy1YR6DlYitOswypVwsvb9scnFx6eZlS7bXHTeFxeE0SCOaf95VwB1lpqxtPls91IqhtlIcrxuINnAN5Ec8ogcpmdnXGcTONYAIgbxHu0ijcBEEwbmn9DfxDUQiqLwWsM7NyzBmPEdmvh8ysF+YBadBGmIV4hiIQmoha8Ocimg9rAt58G9+c3+VJRK5rrVBQ8o7KPicCX4ksK0G6ByDJhkklW5buAz6lRia98g/7Wm9741dmUtVOhCDGKA3U3pfC8u6LIyTwemQBisDYYhfWF5huCSCeASLwzsKTKByDiK5LrgODGQuJtaGgbFtWiQfNWsFacggQRplaRQuA3cmt46YANIYZ+/Nke00BaTTGht5natAeE3iOxmcBmmY9yBYaO0eK9NaQmEIg4sLK8sqCC4qlgm5aq2f8cCk7TG3aYDeB4BEtgmIi2Ew0Z3PRUXzKtIoXAR9g6BFHIQubR1xUFK4fpbcd+JaEwO0vpp5GWtyrRUuxWm0JKtCSi1rgpvqstRayyYIiHNlIY6rllDYNDgNYu83ftazus/2MksDySAMLim/kz1lEJnQVaRRuAqZSY00WB1co/rP0vqO+0Fm7pVy5H5Z45SkqVZSKCwCp0Ea1oNiabAybLmjLgKSQBp5C9ou6+4YHAaumbsKd1UG8VCjQiZcUhlACMPncwJLTdIBayxlqW6VpYJVqu8gDUrKEvuQNhWz45ZiXbA0KEqb4FwWvnHLK8BV7B0g1yl+47fS4F1HIkyK8U9x9B9JkdcHlep7e+M0FiwUp/jRH+2LCyKEyzKj+FtN1qOxPf7xrT3zmX0g7gKdU0aWN6l9+MN9MiHrJZYO94JJTY99bJ+XofgvpHMO0LVCGBm8SFWefrkrtoc65Fql5Ohvr3lNfw/GEJSWQw7lTf+HLLhsvVzJOlr6+jh4DzwDWdYdARD0w6V1LrOick7WbjOejSf/o08p9sUf9TMl7rwcL+yF9ZJGbpu7ybyMH/mRTho0j8tA+9fRxBVkpbzoRX3uxS4gCGk8srVMIvRqTpMKpfS6PwFvk5puu+3+ZdBpjZsG0imCcMi7HBSCQf3TSAV1iziuB8JV//re7+1zkI6JTaRx8819PMma0tcvWl+KhcA97AVniNAYTv9w3Yv6hf8Labg2a5/VhRj8j76lIAnH9DF9jfLme8cRTWUu7oX1kgatlWtJYBtpvOpVrb3tbZ/akS8C3+vTn97aN3xDJ4/LtJurwLLg7rrzzq4JcpG5nk5N63J97qn4dvf5rzVBPUhvplEiD21jUBu0BrO5KkiUAKA5+s7gHpZzqatt4cVJP/iDnTRY1UsAocx9duutrT3/+X1uyUXZUoS++KPl3738iXWORIxnBbYlDYQhXui/QhghB8fSx+y7pu/9zrH0Oecq+W2uk+OOFT4J6yUNWqxBY20pqbRvf3vviNs+jo5BmCMN5KGD7QPug2RvEZCQmeT8vDr4uWnWXHavf313H7IAM7gNRPtIle9bsNRkyZCIeqMp2jq/cD+4P8030t/1fUoTTf0QCIEPxxhtPq5XCpI0Wwkfm0DgZ9x6Rw03m/lTLHbtvY2C4BrOI9D9RtFHjC3HbRXfI4UoI/lO3+Oi0reMyQc+sCuQ+h1lxjZk43gUvcL/w3pJgxAyuzvrSym/8iv3ayvb4AlPaO3rvq6b1cxpHW1Xwa4zpwyRTqzTbjMoTgksr+/6ri7kAnUcN4RAqeCuNYm4C5GIgUoQGbwGrn1aYaGDlq7fU5T0eYTMxXMsSKt97nN7CrqED+R/kaA1NrnYzJO6447WXv7y7qYKrjv2Mp4uGlebvncPxiilJQqdbawW968gE/1TJlgRxydhvQsWMmn5RLmDvMdbqm1cINvCMgfcRjpNtNpdzVEdM5rMsJwrYQCBIElAKnQwJFVt6DPtU2yIQBQPoj2z2Gikfqs4JnjqPG5JwsfvtHfq+ZygP7EwEIZ6OzSQOpJgXTzxiZ08jCfC+CJkDGg77ZmVG5I4oi13KVHWLipxfSnOB9aN+qPAkBvmbLkXHgP9TD/kVtUP0/cSewHWyjmO6fuwXtIwUN773tbe+c5OGoTJdaGT6/g0Ctps3CeFacCVgtjFNQzeTTBotR3SJwCdKz7Ed++3NGqLTfpsABvUMm4QDmFj4BrA55IVgxzjclEXcVHNBfU7Fo7GicQOc5UEvVmKFC/3dRlcJ64kQttnlify16aHhj7pPvQlhBGFhZLCa5FX8HKzso4Qiz6nryFN936GWCdpYHsN++53t3bvvbv7dJmgzFPkwY+JOM5F+BwCea+JwabNDNJoegGBYdA6JxqegYsgkI5iwCIU59FSWRr2aYh+b+Arrj0UcvmvsdBbMwhcQpvAUr8f+9gnW3KHgBgU60J6LQsDYVzHhWiMsQ5tPQdXMwKMFn9IUFrSpygvyINCyspgCbF2LU+U1SNYK9pg7EmwPROsjzQQhIZkXdACbDVmcB0BwY9pzgbSSHreVdpSYXsYhBEG2ohwGLbVdeB3Ck2PVpqBrS9IQEAqPhvcBIDzkMY+Lsclg8BFriwNBIs8p8SmcSTeZO6FFHULEYpHIQwB5OuMO+ciiwSxI7T1k7gclwb3SDHRhyk2CMXWcc/jOc5E4VwfaWgs2hXTEWEQFLsKIoNAAJbFgUB8vswnW7geCACaGRhsBH0yy3aBQUu4ZGIYopCyqS9waRGiCCXkZDAbyITTqYFmG0tOvSLJTZbcrhiTgM+WaJdxmBgGhYubZnzuNtAuEh0oado1FqP+Me4ju1x/aqhX9yWNnOuKDCKL9G/9i9xIXPTEsS7SoIloMBYGQcEsp1nqbLsgpCFzKsRxigLmWCDEYr4z+7ma9vFdG6CEYzRTVqfimkgkFobv9RX70V7BwI9gzX2tGfo+wWWbZ911LFwG9cSNy7owWXVIGPtAG3BraZO0i7bjepzactoX7s09IQ5KCSua8hILgzWLAM+AONZFGgaH4Og99/TgFE3LQNGguwBJmJTExEYcUu2KNKYDoRB3H6FOK6apzQXWhYFtQHMdcF2Jh/hfhKX/IB6uEZqh+1szIryMAcIMedrfFZtIVBoqNxTCUBCGeRhTzaqOsHU9bYI8tCPy22dsT4XLFAtErb8hOffqWfQtpGG79v51AdZBGga6QUGrkkkjjZMvV6Pt06mQhqCeQRDSKPfUdDCIkLCBhzTEHsQ4DLQ5tHx9QT/xH/z8CINlKvWXK4uQNaAJKe28dgVBPUbADq2tXbGpTcQwzGNiYSAPY2VfC2MM7WDssTq0ofHuuSKMlwykTXllIYUsQoInGuNYB2loGK4ofkSzvlkZBECwqwBKIJylIRhe7ql5YDAlB54QIBDm0CKHAodA9R+EqP8lgHznnHxvC/oPrXBtmqFncc+0c4Qhy2fXTMIxCD3p6BbbNAk2WVLiEFPB/Wfseo6Qhn1bgtg411ZLgnseyhz9yL3mGBcV1/eUdbUgrIM0aI3Sa63sKZZhgGTA7wMNizTM+kQa5Z6aBwYTbZgwQCAEOO2MYAiGg3AO+H8DO0F0/28fqbgnQpKWuCa4b/0VaVCquG4pWMFldXrZdzIJEcUtt/SVoK3UnLTaKdtpfC3PQ+AmQI7ktZuxzoIcYu7+chn897DvAq8HwkZy+hK5YoWDtSkiW2D5pKHDsDCstWNOhsGxr1sqSExj6J4q0pgHBDK3BsFAWIs3aMdDQX9BEMhClpXYihgHa4QbgbCydX9rGeju0z3bcv1RqNTtvuCSsjLzM57RJ+4ZG1MTxkXgNiRsQxoIUT+haByyv1wX+ldco5TRrDcXF9UxSW5iLJc0dBasLYBpjR1LQkux1TBTEAawLrxAyaJ5rA2NrLMWpoUBgzQSLyKsDS5CnFIwVXtuC+4O/YgQQhr2aYnRZg1097uWgY40EKGxol5ZVNtCf9fvjQXk4D0zrAyFhUGRQqRzIu2f+rZ1X2Ji/tv32slzHaO/XIZxH3F/5nshPgqo56CQnJDFsVzS0EloTxZnQxqsDQNjSiAKmpSXx1hKhFkczaAwLQyakAZhze1gwGnnYXzqUKCUIA8BZAHzzPo1yJPJsyYFglsK6XkudUoz3wYIg+JkOXNzMLzCmEvqcz+3Z04R3HNDPxgLX+PQeHQPCJzVoWzqL+PfHhvIIiTBupbOPzfxHhDLJQ0Tlpjb1h6y7lCWkZgS5mgYLEiDpsUEP6HGXSQIAILNQCcECDvasWOHBG0VaRBAiENmHqGLMOKqQhprIQ7P4plCxOrVFuJyS0ldi1183uf1rChLmrMurCUlo5CwOwRhXATPoe6RmnuOqyqEuFRXlXt179rDlsXB/X1Cbu9lkoaBzMqQKWXpc2mTBAvtdEoIVnkPAJM8rimNXpgPBFjy2bUn5WDfmeJTgUBKwJwARh4GOwIhAJYK96awjtyzOtaXkQJliBXN9cSyFsNjRXi3vb6PLMz0Fsfgpt33vTL7IsQX2NdXPE80eOQRq2OsbCyhnbio9CH9XAKB+AaL6USwLNLQYfi5ZbdwR8mYMi+DFjg1YYABZGlnvtuY4kvodKeMCDcavYEvIG0iXgTAWAgcErRD96PoiwSo+ySwlKVCnbo/94soWAmCsUiClqvo60iBVe393awKbijEkdcDeNZjWhewafwhC+PT8+k77lE/EYciL4ZYwvjVr5EGguPNYLm5d2Tu/pZwj3tgWaShomXVCHjnBTPDl7RMDaY5c5ylQUNbeWOuBgYTQWDgc6MkIK79j+F2GLY75cScEvfIXcnKUGJxLBXul0YewYoABLG5R2JtIA9aL+KgKLE4EsuLMF4ShlaHZ0OIcbUBRUPf0W+WCP07Vh75EuWjSGNCSBdEFHfd1d1SXFRjt8VUFa7xkIWlEQyipQ2Yc4A6J4gNKNoZi3I4OU1bH2KAbfqPCCQFYRDANPilDfixOwcIViSAQFgcIY4UgVma+5JJMBg+m/0QOFJUEnvRbygegXOP3Vb+HyFH4XCv6v3Y97UnlkMaNExzMLxU6Y1v7EHwOfzc6UxiGLQt7ikzXwuHB+1ROxDItEVWJdfkEMcaYEjDpFKWEOHL1UMARNNdysDfdB+EaKwN2jlBhTzi4iHEnLOUZ7gIm+6Pspdn0m9safRcnBIahjj286lj/cX96esIWz+KpbRSLIM0DEzZUR/96P1xDJpnMGXjY3ydjq9RMNAbyDRk4fCIS4UwptGbeCfhIamjx8C4r9Fg3Z+i7xDGh5rotivcWwSWoo5TfF4DYYwxtKjcP0LUDtqDrJBRpWwKjh8L7pe7kwXEmhZXUrTDirEM0pAnzx3lfd+Ig7apkwRTdnCNhzC4pJCGrBHme+F4QB4GOoFGGNhHHmPF4RCCbvwf7kVfZAkRACwjSsYh7qVwPzbVN6sDkRPC9pGIPjNO4T5U3xkj/UbRr8VQeTVYeivG8e0k2oGlq6XXJlOKJjHEkED2Bc3EoNeAAoNIpHB88LNLSnjmM3saqM9D6ANT9oOLMP4PhMZNRanRP+3PkclXuD4QAbebsSwbzORE867GSuCh+s4Y+U9WNPeZBAv7K8fxSAP7imEYiB/8YH8Dm2UQuKqGGubUoJUQSLJIsgjbEqCDqZOsBotMh4G9U4cgIQtQ+qcVVc0d8JkGeUzQWLk8rEagaJtjzGAvXAxxDWmtElu4mykdxvcmjf5YFqI+Q7ZZdcDYXrHicTz3FItC/ELg26xv1oYBSVDOqRXQTOSpe89x8qeX4GNElAgjgkk9uC9l5YGzrWAwe1YuKvuJHxDY40X4jjXwCafhJLhj3Ufhk6EdKBeKPkMBoQwS1OOXfjn3GO2mv2SNO/fmXpcgd3bAcaRRXFKsDMQhjsF8O4RmTfvgl5Y/LftCJzsmECStQ50gDO+6Vh9eMmU9JNYXMjkXq0PA2eCiLXqXA8uDsB7iGK4GQGDaSZYON0O5qZYDipVxbR0t/cbERevKHcvNOYb/RGIsDRaHiaQrxWEtDYNO0Js7Kj5igpFQnNMlNYTsBXMzzIQljI6tLUo11pFYXsiC1WU2vHr6xCf6cZq2LB5CigaunCq0h+dD7gQB4ezZ9R3EOQxwHhq0Rf5zfYg2S1tkGRWWA31Hu8RSFYC2T2DrQ8eC+2BlmOgne1NZimv8mjgsaVhj6L3vbe3OO3vgm7VxSMIQ9DYLliZikbYlCN+kmlpfy8RGlhdStUijeQvIgxVGw6Wt6GyE1ykjKZUEMo0MseojYj7HjCfExSCBgkWkPxFQheWAosHtQyAT0FzQ+hI3FQXsWBiSBg8Hq4jisULM754i6OKvJwS9qpVwtFTIoVxShJBOxFRVDP6lDHZCkbmKUGXmSA5gWbA+zF1RVywyFogJj4jWAFBvxzCzDwltheQRvCCnQXdMdyIrB3EhcHNJyj21TFA2KFdxc/IsCJAje7JASezskEBo/tv22B6OPTA/aRhoXFAC3iwMpEE48gsfatBpKMxO67CyLdLQcEsAQqVJx3we14n6E+sQ41B33HqIBKGs2C+6FViCBro0SiWJC8cacMmkYh0WaawDrEFzI269tbWXvrS15z63JzNQIjcpXXP1LSTFOmVlILQVW6jzS05aNF+917VaU4qFQYs+pG9ag8nd5o9O5suStPTUBXLb1Jlot+Ib6tEESIXVdgI531dCuxnk0nAFOaXhyoA7hmtROyFqhBGXWWH5YLGaw/Gyl7X2ghf0eCY3EZfRGHPJBS4zZBH3VJHGBtDIzOwm6Lx9j2uF355L6tAaMmGsoWgc8rc13lLg3rhc4h/3eRPUGYvDfJbUZZbwPnUY3CxExCFdGnlsGvBzQ12zLrgGbc+h7k8BBLbxJYGBm8p6cwq3Z5RIiuWcYMGIYVCCJOAUaWyAVNF3vau1N72pB71pynNP3LsMSCPT+GmqS3FP6TzuhzaEzC7L3UbE6pWrSmqufbGQc4hvcC8a6Lff3meOG+hDGJQr9hMXDgSa/pOe1Nrzntfac57T9y0nZAxOhU19kZLBJYY0bC9SDleAeSSnQCH3yT339FgGa0Nw91iEQTAjDZqGWeBLyloIaVgBE2lcpfFwiyALcSLEYfl4dXvq/nUpuAjfIDcxU6xjCKR5COKkbKw8kHnWILAlVdx8c2u33NLaE5/Y42Vkw1Ta/6a+6H/FNJbk5dgR05IGgcaFwh2l0IiljNKGjxm0xe4K4Zzsm6UMer55nYnJSjBuuq/xMfWsXllwUpjtO3YO4JbinmJtyIxhgRyqLf2PQkss4lg3jDWJFawM/cjaVQjEZFJWPyE/hTfC+I5rVfbfEtL898S08zT42KWGvuc9PcOHJowwDhn0DgxofkwaPCHDF66DHMMXfhncJ5cUoa++1JtEgeAiwcSaM7/DlhUlNVVHPwewxmKd6Vuy8YZKiTqbQ6AjdzExJSsKLK0/FbZH5nPoS9pTkoU2RRZcwZuyGS/Dpj7HqnnKUzohkT+U1zn65gExraUhyC1IKy3U5DSEcSyXlIbh92Z2CnbRHo69ZMhl0HkJoLHgv8jtIo6hvr0WN7PqzwWsC9rh05/e4xzaeIiL6mxfECY0RVqqvjR38HQfpA4UxDpHfawdLEYWvlin/vTkJ/dCwWRxsBB8n/jDVcrIuI7JHEuZsGJcEzGdAKazNCyyhyjMaDafQOYUpj4maA7YXcN5f4ZGuyzQfEzocJIFzL9AANGcxx1x3Gl9jxRpvzRhQm0Ks3rJUAcENh80Cy0TRO2P3/Z42SC/LtSv/sTVoG9RSqbyg08F/YF2rC4U6dq2sNS+f2ioo2G/sG/cUARseSiQBUs2bm3HjCtK8FXWB+WPvKHQWANLxhYCEktFQFP2ySNgf9Ig3LhTCDxxDFaGWEY66rGggbN4mdQ62qhBvtSsBR1ZQBv5qlOCEOleZanRevlKmdUEmI5/Lm6qaP6CiwS6eSv64ZBopxygBIkcf0Igy+ovzdrw7PpN1uySsWiftRHBN8RYgJ4DLnpedaOOsvyIkrFlXKnDKCbDPjYGuSPILtguyB6LRV85gbrenzTMZDZQEQXS+Nmf/dTliI8BApSFIWAaX6Jj40GzJBjgCu3QgEfGV2k1tEeaja1OSXgSokslxynhGZEmZQB5qDMu0WFMaEoY/LRHpEEL9Z9LEwKUDHEu1qpxaGxacwlx6PuE31DbPTfCuAzqxzjSp4yhBz6wWweUA22d7xGLbc71vX31inAsW/LUp3YFI8rqCdXz/qRhgHJHmaUsniEddOwiOAYIUi/y4U9kKmp8DbfkxjOw1R0iJvy2nQhJsyQoaEI6Oi14aW6TuRA3lQFL+/PZAFaXY/foLm3vN65NU4zLgTKyVEHAQmWtSg6Q9i6xIkv3UEaQiucxPpY8FpYA9aQvIVrtTVFgfbAkBLgf8pC+VXgz9A3yBmnoI6wUBHNi9bw/aRBs4hgm8umktL1jBb+DMD6mZ2kkp3/JjUfgxS2FNKQuI+Cr3HyIwvliSOBZacQsjiVbVVMig9sApSHaJzhllw2xS/u7Fp82jZGQSJB0aW6pQP9hYVj4UoxRJmMm1+pL+gvtWDLBuSgW+0Df0q94KowrhKEfIIXESi1zo1/IkCJvfI67WJ8r0hiBsEIaLA37xyYMDSzgnTRbPkVawhqgcxH0NEJzL5DwZckE486o7lkahBxhpzCrzwEGKI2QQFSH6k092iZQvgsIDcKCgBAAJzAEwZcqCLgzuaaMRX2Iu5h7yjGE4b7VFZcKa2OJLrYlQV+K9ap/kS+8FizPBMkRMOueJaJO1a/f+O0J1u3+pEEjNsHMOyCOHfwGDclUlELHPcWc1NBLRwazTqcerTElRjSs06s6YDo4IelcHfoEZqBujZBkfNK0PcckGFxGvoE6G9cxQas/mYnOckUgS1pRYIzENMTGeAFYHIkxOq4/IRaWrWdTP3HdFq6PEMq5KGf34T4psyd0wpQlgKCMG0EqKkG8Juh8XGs0GZrNEJdlbACyMGeD1Wf+Bg1zHy17bUCa3HLSj/mWb7utC3uKwzZQv+M6Rj6uhzi4HWiVV7XDMaEO4qYzFpS40hCnhS6zxL6JuD6f0xyfOcAaXXKfmBj7WRqCttY+8pIgryhdQsVxSxEYtEKBqLgr1gQaoJctZc4GzXAbTdDvkLfYiOemacdcpg2dizZJSHK/IF19Uv3pA9EI1cNVZKr+xDGsc8VXLWNKf3LtJdej5/Ws7lF8kaWhH+V5WSL21UliaLY+q5+xolK4HOo55UywG2kQTjqazCnCjVZLY3H8mDDQWRk33dRjGczutREGqFsuBYNenRrQ/PNXkbLvIxQIAGTh+W3FdRw7JxDwtG7CnrWRdaoQK4XnsvibAOezn91f3kMBESdbg0DV3u6TsuAZWZ5iG5IlAv3LZy9Ck6Wnr+lf+ggrt1C4BLuTBlNXp9MhrWKLPI5FGsxDhCFAKY5hFibX1FpB6EsZjSbIP83i2NaSQzJAQPoNrZvAXLIvfg7oF9xVgpSIA3lGq1YvqV+CFsGk/xK4rAukYSsjzW/XpE16Hs/G0uCmDEl6Rs+OOCl9+pVx7Lg+IpFCfykULsBupKHT6ZC0FR1Sah+N5likQZuUBin4zZ0g00VMYK1QjxFuBrtkA2Vb0gC/JRi0EyFAGPBzn1HA7v8BKegjBCktnHBEIoLalAuLPSrWIGJhxCUlLoZw1up+0PaIgYKHMPQlFsUQ+oiibyFZ/cbv1BVFbI3PXZgVu5OGTqgDhjRYGpeZ+3NCsE8cwwJ23FJrcSVcBPWbwcpFxZpTrksaLBSCAmnIKmNpII349c8N+gTyzAQtgW3uTERhghY3FLLQlygemfW9VhiP+gy3pP4gm2rTbPkQhb6WZWz0Fe4qFlahMMD+7ilBNkHwY7qn8nIesQyaIyG5xlhGQKDT9Gh+BL94kYQDg/u64OYiLNVJAsHZPyeoU8/s2SkZFAv+ewU5+KzvsFiRCkv1FKwyQt9zSLc1VlmsYyAW41lfUZCN3+h/6Yvn1l8KF2I3yYocdEIBNDnwtNlDIwE/bgYpkfzOmVyjs68ZeTbZTywEGt+2c002WRD82nff3drb394JHhEVeh1z2aljfYfbatt6XgMQBssq48OzXiT8jWmEYVKg+UGvf31rr3xla/fe28d4oXADu5OGDibzQofaJrNnatB+DHSuBdoh3/OpBXoNehovzdiA98xXYVM7aCN5+e94RxcI3BT82IVOsrRqZHEKlsUQno0CZZywqJCjfnQRMq6tRPDWt7b2qlf15YG4Ro+hGBYWid1Jg98zgTX+0EPDgDAQLO3A/8zioDmeGhCh5xS0NfgFJ7fF2OrgnvB2wI9/vLsTy+K4X7Aqa3ZpXgbPhTBYHIL9XHGbYhUUDi5Q4xu4sixDQuEwF4uLlEt6Fzdp4WSwW0wDSQiYMWV1LAvrcVWls00NA3ssAEGWyzOe0bNcklJ5akjsCDkjaprgMOf+MozrjFCgTWsn+3HNFE4f+g7rEoHYT5+6Cs4ZrrhMaVGMtU1jsnDy2I00aBo6HbeHzvSJT/QVRecijU3gtrFm/bOe1d1Tp0gYgKAN1qRMqu9dl33g3nI9xIM0EMZFWmfhtGBsUhj0ARYmRU+21FVAGpZVVxCO+FpI4zpWb+FksHv2FAGmsDi4PaTeHoI0dFSuGmvXe5+vNMlTdEsFiVHYZgZ+FqDbBUiD9UJLNPAJEa4ZdbhNzKSwThD42tsYRQDS5C9yT26y7IfWLaUx11PWnnhSuBZ2n6eh0H5ZHHydMnSmJo1N5q98+ttv7xaGORm05VMWdhHuBikrQ/YTt+AQm+ppE9JmiEORAYeItJssG7OnC6cJY4TCReALdFuVekgaY6LY1Kf0F33QmEcUkgcoG9KYt+2DhdXjPkm0AwgwHYZPfM4JQNGyA50TabAwnvKUHtQ7tYyXMQx2acSC4JnVPca4nq4CwggBeRdK3utegfHTBsGu/yQbb4gogsGmPsVVJZPK6rjeCJjlg/SlQ3gZCovA7pYGjYV7auoZ4Zs0Frnl8sytNGrGLteUz849Fw0HeeQ1noQ7F9N4oF8HBrlYSQKk/NtiVK5LI0XQhdOD8ZL5VdqaAmEsX9SPNo0xv9N/bMmAXIP1Eau4cLLYnTQIG+aqgBqNdaq1pzZ1Ulo2shi+rP2UJmFtAwNSfSMMAzSBce2wK0L+BIiXPpl57phMNG6/8lWfHrRv1pqiiOg/3E0E/7bwW0oGC4N7kwXi96x+Ls5TjjEW9iCNaBr863MuWMg1Yy4Gl9RjH9uXDGFan6NAMzANcoSRyZWIYx8kxmHgy4AjSMxEZ22oYwReS0icDrRnCAMoDLIft5nsOVTm0geRh31Ff0Ec+kvGZ1kdJ4fdSEPn0el0PtqGCUCIY2ogCK4oL2s3J8Mic/yxpx7HuAwGpIGIMFgGBu6UiKtKWi9BwE2llNVxGogSQCmgLEhiMXaHlsaQHIZwfPwdJcZvZVexhFkttkDhmyveWTgadicNRYfgH/X6yKlJwzwMZGHlWsQh6C0QfM5ar2c3EBF2YkkG6ZRAQoKdLEj/Zz2mDP4ijtOAduVG4inglhTQtr8LKI6sXW5TVgt5YJ9ixyOQ/lo4GexGGgHioJHKvDFXY9uZyhdBZ+YP5U/3MiVxDBaGdx04ds6EAepbHRDeSIOWSLjv6xaMEhC4nqC7ga894o6M+6FcDqcBbUpBkC5P4GvnbTHsL36XGCcZkDib4yxXFqs+gzyq76we+5EG6CgyeggZHSRB2osw7GxjcD2Ze3HzzT2lVtDbejnn7pIaQx0a5IoBqs65CPYhj03tQoPUrvmfkAbt8bJ2LKwD+o32ZV1qT59ZHNchjyH8zth3De5TSTLiZPpmFJBzS2A5QexPGgKoMiiSekfTuG5wlvZBEHmfgYC39zI/7nH9vQbmgZy7hTGGAa6eDU6DVBtwUxn0U0I7RiEAA18R46jBv35QMpJJpXAraetdSQNcU79BGtLwKRzGt/7CxWlb2VWrxv6kQWjFstBZuE22WdOG4BO3sKS5gLc3qLEsZEg9/OE97RNZlDn7qVB3cRcZ4PzItLopSMO1lSESbI8WGevGeXGXFdYJ/ccYo3hQEPSjKcETwS2lvybbipxI/y0PwuqwP2lo+GieNBXxjWiml4G2YaFB7igBb2/eY114P4bga1kXF4OwVn8Cjfb5pM2VGZLGWPDvA4LFQNeuNEjaI+vSf7AEayLgekH7J7gJdMvmS50fYt9+FMuDYhNSEofTVwXjlVIMV4XpSEPhImGSEmIxcRP8Ssdw3G+4ohCGZc0f85i+9c5mgrAI42qk3g1qAXEDPqmOc4B1gSgQB+WAIMg9IDD7UAJgPdBWiTVoU5lUSGNqNyfrVL8R36B0+C//zSXt/yMf0ofIiCmVnsKk2J80AoKe+0LjC1xLj/XyIBPFFEtwm8nNurAciKwoZMEtJdjte78tXB8GJMIg2Pmohzn3+8DAHQ9e/+H6/sd/sjqSZum48wmCCIDC8mHschvJgDTvitXBQojitws29Z2he9OWkqnv6L/+U//RbyrmsWhMRxo6CK3TsuUsBkFsbiaEkfd4I4jHP74Hu829sPjg8N3F405WuBoGt8FIUKtDgtwgnBP+TyBe/IqFw9Lxv9rPPXBVVqB8XRDTIMCRB0uDUqDMAaSRQLmUX//LctWvEEbN7Vg0piUN/lFWBiLwmlIdgM/b2lGOmW/h1axf+IWdVJCFmak6SBHGblBv6k890gxp/klznAuIKtoisvD2Rv+dgKfvlBBa3A1lSS4X+ou21KbJxvN5augLISXWhfiG/9RXHM82++k3JR8Wg+lIYwgNTPMNiSAN1oZiH5EUpoEBhZxp9gY+9wItLhkq+7gYrgPkQNggLMub8I+zRNyHe2CBILbCMqH9Ughz61GJYR0C+i0SYSELlLNc9SNkAom7FBaBeUgD+CaZmdJqzebmqkIWBAdSKc1hGqjH1DXtzMAz2Gn6BqPtIeB/WDncDZalsMSJgY+4WCDJ0ScACsuEdtKX9B8Bce13CCAqVg2rg7KhUHyibOgz1XcWg/lIgwasE2r0FJ/L1JwPBjztDHkQ4pZ42Xdpl6uQtkQOISlbFgb/uHvynfsQLCccaJXukVDQH5TCcaENELutfoP8uR2101xI34nLSr+JxcraibtzU9+B6jtHwXykUTg8DDIWB4sOedAWCYDAID0kYYe8WCDuhQXCdZUVdA14ykS5Ho4P/QLBaw/xDIRBUGs/bUV4HxL6DoIY9x2WtPtxr6wP91s4KIo0TgkGkslS0p1pZVlI8ligQcbtYOBzO9BgEZrBjjRCZAhPKRwX2oWFKDZmq61o/qyAQ+KqvqOv2BZxHBxFGqcIvl9amkFPU7RvsB0KQ2vG4B9qqQmMO0YoSLek1dIoI6Tcc1wQRSSHhzZIe2gjlseh+s9VfcfnEIq4B1JJDA/0F8pTYTYUaZwqaF/JXDPQLOGQgQXR8I8BWitBlOVPFPvcIQQDAYU0WCI0yWPd5zmAAB7XLyVD+yANrsTMo1gC9B0kob94+dvP/VwnDn08yRaVpTcrijROFQaOGfmy1gQVpTIa/EsA8iKUaIoydNybfQLBd0gjFgdhEFcEAcefbatAtlDkcn1sqjNWBuuPMM52KaShT1Au0ne4X/UlcTGkoZ+EPAqzoEjjVEEYELYGEM0xPmnCmI96iEMIW/9x2f+4JwQhU4bQIhDMFeDP/uVf7rOH48YiNJznWfwGPOshnuOUoS7FMszy/8AHuhYvjiD4PLRSD42r+o5+QHnQJ9wrQtFHAHmUu2pSfNpv34cb+4VTBLLgmhJI/OAHW7vzztbuuefGlzdgQB67G7gHA5zGKCZDYwwR2DfXxxL6FrrMmmasKMVcoFptd38Qtgj6p36q9xOvceaeQiZLFhP6SOaE6Rdet2C17Cc8oa+cre8UJkORxjmAJmbwf/zjrb3xja295S1dc+fqWQtoi94T/6AH9ZUFCIIshok4LEmDOAgP1pXzk8dPqAxLjue7IN+tGYZzyhAE/6bimSkWmY3Nynj/+1u7++7jZt5tA/c+fk7trk8gDW//VPQb/YNCMmzvwk4o0jgXcFFx73zoQ6399E+39pGPdPcDd8QxsWngXwSkIJ2YAEAOKSwMMRxkoUg7lgTgPNaLY6wVFox951obze8cJzwh368dXEmKekWCtpkwJ+vIviLQzd0n1pWVBHxGFpQK5w5xnbY6BC66H23KGrVwqhe6KV69YIXtwt4o0jgnCGYSDDTK972vtde+trV3v/vGlysAd5UytCJSCBDC3z7CsAy/FZe5LBAHgrBVQj40UtpnguvOCdGsESwGbawkRqSubBEEcoi/XxHgzouX9IuIAtehZKzJEh1Du2pH5GFF7ec/v7Vbbun1UdgLRRrnCAKDv/p1r2vtrrt6wJmQkeYarXvtICw+4zM6CbAsCJBsWSLcW8iFZeGZDYMQCvJgdYScfKckscB3cXNsO3yiFacQyISz4v9zvevAb0KWhDyy4IrM1n94Bv+XeQ0sCgSiD7AyEcZla0zlvtcKbeYV0i99aWtf8RW9PxT2QpHGOYIw4aqyqKBcd64qJGJ1UULsFEDTRA5xTSkEiK1jIRHHIsh953e2hG2EcjRuLq0E4Z1DWG9Dsq4B/sO1uI4IdqmiCoHvHAR1XUSoI3xF+2XfvYX08p+K/1O4q8S67F+EXH/N8CqGF7+4tS//8v5KhiHpF66NIo1zBSHCuuCi4Kp6wxt6rIM26ru1g1CIYBgKiPEx2wyBTedHIDvGMpHB5d0wcWuFUC6D3yqEOKHOCqDtq3vavnbw/b6uk/FQ9tl1c3zTNuWUIRDOPXXbbf2dPlEmCjuhSOPcQYCxOKThSsmVl89dwY1BE91GKJ4TuLXMsqetbmtpQEhDfdLsMx8FIRXmhdjWC1/Y2rOf3UmDi6pIY2cUaZw7CDL+bURhaQYZVTKszOvwmUZcuB+EDbfWMNZxFRAG5HzEgSwQdmF+II0Xvai15z63k4aMO+7Fwk4o0ijcD9qvGIeMKnEO8zpYHiGOofArFNYCczaGMQ2uxcqi2hk7RN4KJwtZQ5/92a095jF9UtSzntXarbf2mbV8+TKLdgnWFgrHgoQH6dV5c6jPRRh7oSyNwidDEJzFIatHXMN7vuXyi3dwXfk8nvRVKCwRst0sKfLFX9zTbZ/2tO6aKuyFIo3CxZDpI1jrjWkyqxIol/GDVGT98M+Li1Q3KiwJMqTEMrimHvWo1p761D4rvCzlvVGkUbgcLA9puJaWEBg3EdACiEo+s0gKhUNjmE48BAvDigDIgpXxkIf0tFtrlhX2RpFG4XIkTdSWZYFALEPC+mB5WNzOpMByWRWWAO4nKwEgCtbFTTf1OF0y3gp7o0ijcH1Iz+WmEuMwk9zidtxYiEM8xDwErq1sC4W5IRXaOmNcUlZCNgvcsuisDQkehclQpFG4PswvENNAFAhEGb7lzWdxD8VCeBfhIvdCoXAdmHPhPStWsUUWD31od0exOEzGLAtjUhRpFK4PXUbJYGRhIAzWh2IRPNaH/ZogWJgbyEGauEA3y+JhD2vt0z/9xpeFqVGkUZgGrA/EoSRQLvYhUM7yQCxiIpYmMQP9skXyCoWLQFEx14LLSZzC/AtWxSMe0S0M1garozAbijQK00Cg3AqqiMEWSXBhCZxzU4VEWB7mfXi3Q6EwxlUuS0QhC0p2FLKwLIhAt5neViC2qKRzCrOhSKMwH2RdsSwQB7KwntUv/EJfosQ28Q4+ad1wXArnDVYFEtGPQGaUyXosCW/lY108+MH9mCC4RSQLs6NIozA/WB4sC7PJuauk6LI6BNJZJlxbsq5YJ4p3PPhcOG9Y9oPlYGtlWsuBIAgZUiwN5JEXbW1aGoRoy3pphclQpFGYHzRFkwSRQ14EJDjO0oj7KhlYiEUg3WTCwvnCy7Gsd8b9ZJv3mAhwewkWIuGGYl2wVIscDoYijcLxwMpAGAmgxxL55V/ukwcRiiXEaZFiJilIKBMObasLrw9cT4hB26YQ/NrUnAtxC/MtBLZtFaQh8F3vwjgqijQKxwWrQ8BcRpVtrA+Fm4q7SlxE4bJK9lUKi4WgKawLSELgGgmIR7AcrBclbpF3uPveC68UrinnFWEcHUUaheNibDWwLHRJ+0hCLITbColY48qWK4tVkomEl00gLCwTXEwWE5T5JC7BsuB6ivsJeSAI7icWSaySmqh3dBRpFJYNcRDEgDBYHrZcWgjDVskSJogGEM+whIyGxFTLm+wHcQQCfZgim2MEfDKfhu4ncK45FlxN4hUC2giDVZFiwcHCYlGkUVg+WBzcWJkDosRllYwr5+R7x7mtlPH3is9cYdX1d4eMJRYBgkDCSMIx7ibupVgJ3pI3nIznMyuCO4q7yblIwrGUsiYWjSKNwrKR7rlpG8uB1RAyEOdgkQzjIgoXlu+TtcVSqQmGu4HwTzYTYpAZhzzEHriakAmiQBAIIfEKpGI/b89LW7JIUvK5sFgUaRROBzTeITGwJpRYHLFYEEvcXcgG+QxJKO4rxed85zgBmeOODYvvudOOAYKWNk+Ig3tO8Z3jhPXwe8cJ78QL4laKa8mWy0mx7/mA4EcOSMJ36sNvzakQsEYOCIO14T9jQZTb6SRQpFE4LRBgBLtifasI+ZQQgu+GhbDPPiKJ68txv0ESSCdZW87LtVJ8L74S4XpIIAOCnEAn8N2Doe2+EYLj4gUEOgJw3DbuI1sWBEEfEkEIiIiwd9z1kKP/irvJNRzzn87J3Am/DxG5jq1SWD2KNAqFTDpMzCPkwEqxTwArLJZYKM5HFCElJOL7BOhdJ5r8XCD4FQKfq4jLiLYf0iDMQxpcRs6xjdXgOOHPCkAcIQJC3ndIIG4l1ywU7kORRqEQEKRIICSCMOxH+CICxMAKQRKOhVAQh9/EJeZ7gpaAngvuSyHkzWvgLmIV+F/3lu/dA+GPMGx9n+OIIa6kFIThO9f1uVAYoEijUAjiflEQQQSv4/kuJDE8nuL8uKp8fwjt3P8OBXxcQI5n6z4c5zYau4j8NiSRkvvO50JhgCKNQqFQKGyNUiMKhUKhsDWKNAqFQqGwNYo0CoVCobA1ijQKhUKhsDWKNAqFQqGwNYo0CoVCobA1ijQKhUKhsCVa+/8AcJl2yvAHIVQAAAAASUVORK5CYII=;" vertex="1" parent="1">
          <mxGeometry x="667" y="655.86" width="317.98" height="281.14" as="geometry" />
        </mxCell>
        <mxCell id="rraX06ucM7AwQiWW7n5B-11" value="" style="shape=image;verticalLabelPosition=bottom;labelBackgroundColor=default;verticalAlign=top;aspect=fixed;imageAspect=0;image=data:image/png,iVBORw0KGgoAAAANSUhEUgAAAb8AAAEYCAYAAADMCvgkAAAAAXNSR0IArs4c6QAAAARnQU1BAACxjwv8YQUAAAAJcEhZcwAAEnQAABJ0Ad5mH3gAAIe1SURBVHhe7b0HgCZFnf7/vPmduDkByy45KiAgGQkqYkJFMkjwPH93/r1DJQiiIkFQDMipmMOhoh6CAkuO4unpnaIicVl2l01s3p345vf/PFVd7/TMzmyYd97Zd+atz25N99tdVd1d4futb4XuSJnA4/F4PJ4GIhpsPR6Px+NpGLzy83g8Hk/D4ZWfx+PxeBoOr/w8Ho/H03B45efxeDyehsMrP4/H4/E0HF75eTwej6fh8MrP4/F4PA2HV34ej8fjaTi88vN4PB5Pw+GVn8fj8XgaDq/8PB6Px9NweOXn8Xg8nobDKz+Px+PxNBxe+Xk8Ho+n4fDKz+PxeDwNh1d+Ho/H42k4vPLzeDweT8PhlZ/H4/F4Gg6v/Dwej8fTcHjl5/F4PJ6GI1ImwX5D0aCP3dBEIpFgz9Po+Po/PqimTjec8tPjlkolsy2WisFRixeN44mIyedcLofFi1/FzJkzMHXqVK8AGxzV+wYTeeMSl4/xeDw4su00lPKTMOzt7cXF/34xnnz8UfT0dFeEYSUV+qXGUIIy8BThtjzQz9YIVx/eUHV4u3E/7e/gYJyNHGZqPltGU7oF1153Nc4991xEo1GvABsUibpisYgXX3oJjz/2GKKxqC0721Dk+hEO589vSrXn+3kQQcOF9Xf+Sy8iRsV37TXXoqmpaVh1umGUnxRfd3c3/vmfPoi//uV3OObgaUjF8zqjVFB62m0lF3hgE8FsKUtoG38MW8kgE4Fx5vRmGD/hwx63Z/i+cBFE+VQR9MbieOy/X8XihR2YMX0WfvSjH+OEE05ALBazQTwNhVN8v//9H/DO970fJQrOeDzGEmQKDeEfs7W7m1R9V9Qc9X5ehP2MufOUxDxv63Twj0I6ygNda1ajmM3iPe8+BT/96U+RTCa98hsKa/H1GMX34p8ewRnv3gfJlm4+fRHRsp3zEwlKe7RS6t1WCiK85R5PlZnYOrJJePNXZ+QGz/HBw5u/VYfXXdgztQuvRy2NUPgIw9swhCfsvsK5OAbSF16+yibFqNDKMSSZz9GiFF8S9z+xEJ0d9N2URm8+jq/cfCuOOfZYr/waEIm4QqGA31Hxve/cizDr4GMx6YCDEWHRKZVLLEPqJdA28K8/LGPRUPE1Zc0U0j7C54XqVRh/PtgJ2Nrz9nCU2yhiJetMhvB/7+qFePaBnyOR7cC/X/QvuO6aa4bdmzPulZ8UX09PDy78wHlY+NxTeN8790JztBfxZJ6JTWFZEd5263734QRwnyBWJpVZc3Skv/BXlolAcDP+TaD/8Ryep+g2F55npbiM8qOyMwpPW3vahtcPFz444aB/E9YoP+sUIlGMmnvJULnd/7sl6NwYxac+fj5+9pvH8eprvbjmui975deASLzl83k8+sSTOOdDH8E0Kr621+0P9flE2Ggy0i/K8mfKlAlSoV6Vg2O8ntdhq/SYP0YwFJlTOXQsXIQF8x7DuVf8f/jDHT/Fe044Gjdcd61RfsNheKHGCG6M75yzz8aiZ36P979zH7SmS0gk2aqIxljg4xU3HLaYeFIMA12I/r8GYVyG76sB/X8NgpramwkfpkiLr5u15/7fLcIaWnyf/OQHMHtOOy+SQzGfDXx5Ggln8T362BM496IPY9ahb0LLfvuhQGFZjpkOT5YPq/g89YUauHFpw4gUXw/Kyxdj/v2/wrmXfwz7HH4sCjk1jKvLN0mTcYmz+M4+80y89OyfcMa790ZzpIcJSYsPiUCQbgu+gtQXEl3W7hPZaBwP/2E51nYk8KlLzsYus1vYIuzlmQLdgCamZ9wjxacxviefegrnffBD2OGAQ5Dccz+U1fCNlBAvJll2fJ2uF2xtpsVnenDi3I+ykcJGbSSPzmWL8dd77sT5l1+CPY86khZihI2XjAlXDeNS+TnF94Fzz8HS5/4PF71zf6RTXYim8kzUPCLlXroCIvRXVl8/HUMZp67Qfo5JZJzpFtFWSRYNddOp8y7ooquEY0zGr7YD3fgOL8Hi/G0aVo5/THhtFV4KbGD4svFn3abhFaJIP1HlWzELLVh55PEF6F4PXPOJ87DnzpPZoM+iXCpSAGqGmLmUp0Fwiu+///A/OO28D2HGEW9FyyHHIaKJEcWYFa6mGPd1d8qpGy7sBuLP1/K8xvhipquzKRdj44QGSoaGyivz8fJ9d+PMT34Muxx9HHrjqv+UHyW6IORwUREYV0jxaVbnReefj1f+8d847b17I5XQzIeQBWAk9yap7xkzRJCSxmM+5kutuPfh1ejsbcanr/gQ5uw0VaqRp6QiJdzYkqSQ8zQGFcX3+z/g3Wedj+mHHYfUvvuikGBDydR5lgmNGxvfnnpC43w0/JBJ5FCIdSC78nksnPcwzv3YJ7H/UW9lg1djgGpsq+rrb3W5OK6Un7P4/umDH8Sivz2G0969G5rSHYims0wtFX4jLwOsBdPHwN9bpi+uoXBxhl0fjRm+TxFtObz8Dh6+yKZjvtCM+367Gut6yrj8srOw447NVHZZxiurMIq4xnK9oGsY3Bjfb5/6b5xy+jmYeeib0P66A1CKxZAva4rLpoQtPs/2I8qMUJ0tR5hP+Y3ILH4OLz3yG7z/8oux5xFHobdg5bdFMqBPjgwXSZNxgVN8mtzywjO/x2mn7ImWRCdikR51qpFhJlbQHefZvpTV0gtae5JTmXIC9zy1BB29eVz/mXOx69wWRDTGp8ojH/xvLD+Gqb6aeOodKT7N6nzo4Udx+tnnYO5hR6N9/zeglGTjh/U3XkgGPj31gBodQo0OO9Oeyq8UQ7JYQOnVxVj44EM4/dKPY89jjkU2FkU2kWE+DmyhDPy9bYwL5SfFZ2Z1nnkOVr34Z5z11tlIpXoQ1STOcowPSVNZQlCJTKc0tOk4iFIzGeHwSq8+iKAYU6YVUC7lUIgkMe/JlejsjeCzl52LPaa1mkoTRdG6srpG6N8oS+c84xWn+B585DGc9+GPYvoRb0PTQcewzNCSyKvex6GlYm5szwle4S2+7YfJC9bYKPMvRteEGDILF+G5hx/CmZddit0PPQG9FMEa40sU0kaG99XpYLcKxrzycxbfGaedgSUv/AHvePvOaGrqQYStPZs4VaaQUYBeCW5fykgViyytGZTiKcx7bAW6e6L41CXnY84OU4yi62vQkH4txGrz31PPuDG+x554Euf/679jyiHHoPl1+yMX06CwyoHy33d91xtqy0bZIinESsgk8myodGHjor9g/j3347xLr8KeBx/HZmyCPm3+OeuwP9XV7TGt/CpdnWedhTUv/S9Of8+eaGvtRSxJE5lNusHW74x5bd+gFMoF5PLNuPux1djYE8FnPnEe9tphElJmubJQ92afdT+wYlRXTTz1iFN8v33qdzjrgg9h+kFHYdKBbzDr+ArlvGn8hq28ofBjfqNDvyRmHZW1pzG+SKED+aUL8NyDd+K0Kz+BPQ89CsVoApEtrcGsMs/GrC6Q4uvq6sIHzj0X85//I047ZS+0JrpoOPcaU9qLu7GNHdmzTv9ykTbc99RaZPMpXPOpC7D7Tu1IlDPMZTuLV4tiNb+zUh8G7FR+esYFTvE9+duncOpZ52LnQ45A2/5vQD5aZFkI1vH5TK8blBVqiITH+LTVcAWWLcOL8+7DGZ+8FLsfdSSyiQjyyZw8mrC1YkwqPyk+LWf40IUX4rUXfocL370zUukNtKVpBZQTZuBUM4fsq7ecs2gdm0OJ36+7TPSb3LJpeM9oQMEWtd3N5VIePYUi7v/tQnRnyrj8Y2di9oxm5lnOCDmhxo4Z7TNrtuS0Zoj/tA5QbSDfDhpXSPEVCgU88dvf4dRzP4hZR56MpoOONWN8bh2fG+MTZmxpM2VgS+c9I4NJY8rcRJE75Riays0oL1iG+fc/htM+oQXsxyOfiNm6zzyWd61SihmnXxZZg8YFv4fLmJPqTvGdd/bZeOXZ3+Fd79oNLc1UehH3bT4lSbXJ4tm+aB2fWiVFZEuteOSpDvR2p3HVJy7CnB3tOj51aVXe8TlklttWDeuRZ5zgJrfc/+BDOO3Cf8bMI05E0/77Ihdz63hlUfgxvnpDddSO8RXRm8ygEO9Ax+Kn8eKvH8CZ/98l2PeNx7NWx+nP9t/IgKm1FB9Tys8pvrPOPBOrXvwr3vv2vdCSpnUQdYqPRd+X+nFBtpBDJtuEeU+swtruCD59yfnYfdYEJGgJqlJoBphtG4bhb1n7xuKvddXxjDZO8T1AxXfh//soZhyil1S/zo7xVcZ++yNrw4/pbX+k+PROlnKkgHi5G/klz+P5h+7EuZ+9DPsceSyVohRfX16NRu0dM8rPKb4zTj8Nry15Fu97x15oS+YRY7EvlbWGxwu7sYxbxycBJzlVSLTg3qeWI5Mv49orzsCuO6RYaXpZYKX85EN/aflxTwLOhlI3Z+ACP57xgRvj0zq+iz78r9j5kCPRtt+BFJoa79U6vlTg01MPuG5kN8anTkopQI3xFRctxIIHHsFZV3wSsw8+FJlYFLm4Jij1GTEOW7etG2nGhPKT4tNX18858wx0LfkrznjLNKRb1yCa6NFZPkRoHZ/aF0rsYN8zFrDr+CJsFUaQQ28hirseXobubARXXXomdpvRxkaOujqL9MMKovexUuDpHaCqFlrXp7VCttVof1usQvWMbZzie+Kp3+G8D/8bZh51MmL7HWabQSwrWsenN/5IUDrnUJnwbB9MXlAGq07qCw1NSKF3wat4/pGncPoll2L3N74J5VQSEWZSspSgHylKG1b55vJxYJ46qs3autcOUnya1akxvtde+QtOPnkOmptyRgj2TV7xJXxsY9fxlaMZZCjIHnjyNcSizfjsFRdh51mTKOKo6OhL43tSaCq02guMRVMxzNsfnNVnyoUvE+MBp/gee+IJnPqBD2LqoccgsdeeiDTHmM/KY1smPPXFwHV8hVgnNrzyZ7x8z8M48+LLsOchJ7BOm7eQGP8yXjRBcWBOOsU3aG2uMtvrWvk5xXfhBRfgtef/gve9fS/zPT5EqfjMkzvrru8xfEtvbKJ3L+YLLbjvibXozsVx+b+diV2mtyARvJNRk1vY4jH7jn7ju0YTWovfVqIqa4ZnuyPFVygU8Nhjj+O0cy7CzEP0rs7XoxSPI1PIGIGobN8SkgleLowyrIPhdXzZJS9jwRP34exPX4q9DjvGrONTz42ptoET2oSz1OVd+FiFKvO0bpWfG+PTAvaXnvkjTtWHaONZ3rAf4xsPDHxXZzE6CfOeWINCsQnXfuoi7L6j1vEpv+2bOqop514Rjj2k+DS5Zd59D+DsCz6IuYcfg5Z9Xj/ge3yeekH1U850T1LxmVrH+p0s5lFeshQvP/AATrv0E9jtqCPAti3ylOU2xPajLpVfZXLL+9+PdS//HefR4ks3rQfiPawUGt8rQt/i6/89PmsBhvuGTU9Y4Dz1RN8YXzRSRB4pPPTYEpR6o/jMv52NuZObEStpfI95GrFf3NfWju7aWZ4mX81eMNbHWE2VM0rVFWub+SoSXlCOHZziu2feA7joIx/DtCNOQur1RwJJNnoLtCj02ist/greAFLmVm4oXNeZpzZIvCp99fHZMuue6aUpx9BcbkZp/lLMv+8RnHXZFdjr0GNouKh7047RK6T9fqh1dga3darN/ddpb5qB1WapYq0rnOJ7/3vfi5WLnsY73jEXrc0ZPmnBCDLPeKBvjK87X8Y9Dy9Bd08MV176QczecQorTxFaB2sXrEu9DRdfXsYaTvHd98CD+NDFl2D64Scgtc/eKCatsDQijwLU52z9ICWkzyWmNPlIczFYr6PowMaFT2P+PQ/hA5d8GnscdJQd4zON0TIt99qv49sSdaX8nOI7/bTT0LXiGZzx3t3RnO5CIdLJRJN1F9Z/QYtArYNKS98zVtAYXzbXjN88shqZYgqfvvx8zN6hjXItbxRfkS15O65rZN2gwk5njaXXrxwEzhwP0AxRT91Tmdzy+BO44P/9G6YdcqwZ4yvH4/57fHUPLXKKaNXfeKkb+cXP4rlHf4MzPnUJdjv0cNZnTW7pQ7VTb2Kq1FfjNsXlbS3yd/Arbgfc5JYzzzgDK5c+i/e/c1e0xLsRjfYyQXWbIWEWRkoxUIye+qVvHZ+6N8AGzQTc8/ga5l0LrrnyAuy8QwsLYy/PaL0PfWxNgyZUIRSmXxeKaSWpzGgb8uipS9zklocfeRTnXPBB7HoEFd9+ByJryoPW8fnv8dUTrhtZSkmTzGTP5aMamiiie8kreOHxx3DGZVR8RxxhvsendXzFWLGuamNdKD9r8XXhgg+ch7UL/ohzTpqJeKKTiaRvtMURY+GvrOOjk1yzFqBXemODYIyP+ckqgkwhhvseepUCLY5rPnEedp6URKysr+3TQqMzS9eZ5xZtBzpXfahMWQnteIE95pSgRTXUVkxP/eIU3yOPPY6zL/wwdjj2XYjv+0azji9SirOu91/Hpzx31MIi8GwdJj9Yv8Lr+IovLsLCex/G6R+/BHsceiwVImtztGheV6asstmluRkKZ35w68b3to1qs367Kz/X1Xnm6afj1ed+j/eesifSTVmJNZO4VoBtDicQPfVLMMYX60WWguz+J1awDRPH5ZediRmzEtzvoXDTuk351YC4FWpbyvkw+oRVKeqsPmf56YT++zGiekWKL5fL4Z559+Gsi/4fph/5ZiT22gMFDSJVrPdwSdAxX9+3N+F1fNlEzqzj27jg/7Bw3mM4/9Ofx+6HHM+6GFrHp3+yEJmVtp6PAFXGs12Vn1N8p73vfVi94B84/ZT9kE7qbf2FIYt3XZiqo0Fg5VbcGCdfyiNfbMOdD61GTyGJKy85FzvNbGEBzqNAxVVgQa7GQouwRtm3+rg4tG9/mxlo5hivQWE7EB3b1uMDGc043O/x4KT4fnP3Pfinj1yM6Ycdh5b99mdDSAua9KLqrcM1ljy1pV8Ss065dXwodCCz+CXMf/w+nHPNFdj5gEOZh2rUypvtnQlb630Ea3IZsW2rujq7lVSZ59twpZHFjfFpVufSRX/Hme/SOr5c37s6ByxobgQGKyTV1mkX3hSw0L5w5wa7hvPj0M+B/gYTOE6oyXff6QgK8cm45/HVbDKmcc1VF2LW9PbgGlrsmqSL0W0uz905G6+x5pRe5pDO6UeMcaoySRHqjJ0yo1anOW2O9WewY2JLxzc9rysNHS7M5uOQsh7keHD/A8+Fjw113jHw/HB+hwmfH+hXDHXMbc1yhnvvxUc+9nHMPuxItO57AMoJdYnR+i8mbR6b9FBOqidIYa3TX1kQ2tO/Ej0Z64L/LPY6npHBpbfqvGtkunV8pVeX4pWHH8bZV12BXQ49BHmahVrHZ3OpfqGMGFA6RwGr+LSc4X3YuPRvOOPdc5DUxwuVWKaAqwD3vy2b4OMXyW89uroStI3nafsya0pxWi0x9ZvbLgMn0NO5EmKlII0oLHrjWmdjPJjzySKFgQQCvRjHf9kY/dBpVlaRccbpJ6mplfxfKNpux5KuRWdb0/RjnC34RWZBgZFp2NrcK12sUDb3oX1z3vTx6zo5ZKNJtERSKHfnce/jy5HPpvC5z16E9ul8Pt1khIJO8XAb473IJTQWwBvKREqMwyo4kaa1qC866JuNBd5/d6wFueY4ysUYEpk8VWiGEen+Urw/KlNWvkS5Gzd+5W68srSIa79wC/Y7+I3mOZpiMUxssi9C7qLlsTHHeHndSYk4mpNUxky3jZksevVZJT7rjOY0YrJGCkVsyGagkppkmk9tbjZxZHl8fW/WCOjWZBLtKbZ6GYfi7swXEGXYiTyejsdQZNnvyGbRw21Kx1MpxLnV8dU9GTPK3RTj8XTCfMMsUyhgbUYf7Y2glfe9YulSrFu7zrQN7frWMEFihZFHhx5HGecwvweet7uGfr/5IxTUnuCBgeErnvp5Jqq/8s+/ynRuX37+OXz6qk9h7uFHIr3PG7AhlkImwbQrxZFgQY0zTZIFDYEwz+NFlq8Sy1bc5jEbS4ovXsyhLZMz332LlppZ/lLoYtZqGQ1Dmyt7qke5qXV8aa2zZCXKMx/aSgnzyrL5Tz2EMy/7BHY9+Aimuf06Qz5WMMsZbP1V3vNvpUjY35syVH+foCrVEijG31pM4PsfPRennnQ8Pn/dtaZ+DYdRV37O4jv91NOxZjEV33t3Y2XfOHR6BIxn5acCokwwa2XyUTRny9h7aZ5yvoiudBTrJsSxfCIFIRWcmfnGwrfHwjwm9qi1q0JZwstz01jfrJaykrKMmcvzmNpVRltW/fMldLbGMX+nBLIptaxVRKPYZVE32jtVSDXHsoS1M5qwYloS2YTSG5jcC0xaQT/dGtaWYgFe26kZG9piLPxGfmGn5RlM5HnFIYXa2Z7AyvYoNjYpRAxNmQQmvtKL1kwMOzS1sPBm0HTifkjtMxc9vBc9c/OrG7D6kT8j1p1DvlREoq0Fk99+GHpmtBplpcqWeeAviC94jTHG0NFbxuMTZ2Dp4Yeh2NaGA1rW4rDpVHl8rgdXteAfPW0saAW8eXoJ93z/F1i0uoh9/+lKLOL9ZUs5nLX3HvjwIa/Hss5ufOLR/8Wy3jxaKHg/+ca9cNzcGXjwlVfx1adfQAeV19zmFtx8/CGYxut883//gTt5TorqqJmTcN2JR6EjU8CVv/8HXnptBZoTMbxvr91w3v67YdG6jbj68T9hCQVzKpHC1UcegMNmT8f9ixbi5j//BaV8BLu1tOMzbzoMM/m8P/zb87j9+aWgfsORs3fCxQfvSYFewud+9z/426q1aGPjJP/YY3joF7czpzSmyYSJMqNc68DAfVVnFQJ3WFv32ykqprl2rZVEoVLxH/x2u8Fv57/ym9c0lzXH9Nvt99ldwp3WVk02U4VZFmPlAtp45JS998TRO0xDtBUs20m82LQDnpy5B88kKGTL2LWjG29c+xLS6GK9iGNdKo7/nboDFrRNY5lPoKWQwx5dy3H0qvlsxOWQK0/GK82z8egOe9PyYImODr48wrPtqB5q+EDr+DQsxVYn8OJivDLvEZxz9eWY+8Y3Im8KlQqDKTI2300hsLK7oZWfFF9nZyfOPeccrJ3/J5xyyh4UDD1Miqxp/Su5lHb96nOQUOEG63gjrPzS1CotuTL2WZDDop3SWNpmrSo2ho1l5WZBpmn+2Lck2MTKUrCb88FvKTyJMVlvaZbVPM/LOozT0pM3YwFqciX3dV7XkHKVUpNlqBMquEr3JP0J+clKAes0/+h6KYXlbz2DlKOswgT9l5pT2NhbwAOPvIYIC+s1l5+K2dObrdIsxyi8NP05QlUW5fW1tYrbDKRzm+XFctzRNXQ8mu+ltVjGc8+uxhe+eBeWrO/GdTd+GAe+bgrDdtPx2WhyZiNtvIcmCj4p9Ty+ePPdeHF5J66/8es48ogjaeBFkKBlFZeWIQVad6ZLjWVTx2Xhab/IB7JVg8/D43qTiAyWApWzLMM4f7s4ivxdVDwMF2M6J4Lj+SLVFANJJsQZR5Q7irPAY0Xmj54zEY+bPHDX1Fb+3TULjKOnN4Orr/88fviL/8Lux78H5R12YDpKAMlCtwpHThaztibBtOEP4+zPyjltw/4cFb/BdqD/cB3Ubr/4+VwmjPMfbA3Gg3KaBYsW2fql87H0sf/B7oe/Ce1zdzGTW0rmY7QRdCdaWN7YNIvQ4mN+xmhnR8pUdJkmni6iM51luZCckOXOfGBjKs18jpVz2GtdDxXmWty++wG8L6WuubBnJKDiU15rAXu81IPuxS9j4b2P4cIrrsWuhxyBHCuuGuaukOivXcfXx5ZndFrZNjgjr/yGF2oYqFLL4jvj9NOxbNEzOO2UXdAc38gbUN+wuidG7VbqBidMnKBQD6QU1MY0Lah0Gb0pZjgb9zkmj1VsRAWILksBm9ELfuPaxhhWHhhBcD7D8+qa0NqbziTVQ1yix7bYc5LNvKaUm/a7eY0uOtMtyuB5bnVc+3I9vD4NOHPevnmFwen435zXcX2TS8djPKGuz1xXDA8+tIr5nsKnrroA02dMRW80RaWWoN+IuYbC69n1bEVWHM34zFIj91AYypp1Yzzyl08m8JcF3bj2a3fjiLfuj133mI4YBWSC1SFW1nR43iBFpYRhqrwO6XIn99nyp5WhLkpNtE7RMksn4hWlJeJSVrzfFNNQik+oMiWMEosgyeNSQuY4N0mGTdGF41D3pPwqfqf4hBRYkumuOKT4hOLSccWRDBSf0DXpteLfXTOb6cXVV1+D7/3sDsw58d3AzDlMGzUeNP2fW8aVZ1itpcowbK9cIso0DJw7Rmf2eazf+ZCrnNtK/8YFfnv57CZMcLw7GTge79E5ugKfqbB0BZY8+TvsdNxhSO+zDzamJmN9cjI6E+3018b00HMVkWN51jP10CLsYjptYH1YT8uvJ9pM5Zdk+VH5YDmNNGNtsg0b4lNZxhM8nlfRpjRR57RnuChthRq8Zhyd/7RcQd/jy7/yMhY/9gTO/fSnsONBB5kGcS5Rf+v4toSt7TVGik/r+E59z3uwcdFzOOetuyORyiHKlr8qeUzfcWPL0SoDJrQSW0J8HCtEFS49rwqXLC11GwpVagl+WWaqxtxFk7HM1Krqc3Y9W58LEq9yPk7rQrOxZE/JaV9jd0ZpBV61r+trq3E6lXdT2LmVn/A+/xslJb/Gf+B0TC08refRlfI80EmF98CTC6mY4rj6ig9g5nQKK33WRDdAgU1JT59qvTMCRq6FsXnes563wG2prPFHPqOsG1YoCcTnXl6Pz990O044dhbedthspKWJZE3QJC6Xm+jsBAlTjvjPWERUiro3dVPKt3BKJYyODXV8sI6RbY1jMLYUh67b09ODT3/mc/j+HXdjl5Oo+HaYTWtZec/yQutZLiZnlL7dylaKRKRs+44n6CdJl9JWAozOhOU/+as4c2SAfzr9ljP+6QaL34RhvKlQ/MaejzB/qKhVJjMrF+C539+P3Y46Gu277E+hybyKZ3iNrO2RYDg504BjzCofsaLikmXYi2K825YJIxe0fCaDidkeNOXZcJDlzHNFpHhGi63VGPJUg6njTOvwOr7ulxZi/oOPm3d1zj3oSJTYmCxq/W5B9V+5ItQQVjjzw2ztPmXToG54BNEPG5WimuIsvve8+93YsPwfeM8puyGZ7GbFYIHm+aCqm7+NhOkaZOpLsbSykTqth0pO8y54Tl1/hSRFvpSYOUBnE2qrGeg9/HtzUblzg/mR0HW4fW3V3ZEyk0PYwud9z/vvxbTnm3DFlR+kxdfGyNRlwdN6WJPXtnFjFRR/6qjxYzogKcSk/KmwSgnEKNief2Exbrzu53jbCTvipDfvhqakuh4p6Fi21N3GWGwkZq/vl9BZSuDg17YzlPKqJVJ8vb29uOKTn6Him4fdTn4P4jvMMdZ9OA+2BqWvghjn9rUN0n0gFb9ygT/jd0v+5S+0rz0pr3ipgJZCBrHlC/DK7x7FzkechMTc11GJSUnRNz2rHSPLWGElaI1CV5enyoeiYlkpUolqRrCEaJwKcmo3cPiqJThy1Ys8VjI9FblYihZki2mIqQx5hs8m6/iinVg//09Y9MCTOO9T12LPQ08w+eEKhql3zCeVTynNUaHK69RU+VUU33tOQdfyZ3D6e3ZDc6oL0USGCWQLZ0RWAJ3DtRYqqBVoWoLjCxUSfblYk0nmvtKFlh5qQ1Z8lSV1LS6clcDqFnX98HcQpp4p8KY7qQB/8+giZKi0Lr/iPEyboSUr+nQJFZkEmXE2j9X4Mcf5VwpGrz8z3bKmLOgolSFyeP7ZRfj85/8Lp7x5F5x87C5o4nmNmamYmHDyqXQze4NjO3zHBnqWTCaDSy65HD+86x7Mefu7UJo506SWxiuddShlMdC5c4M5m6YWlb2RRpdw96Dxe/OPmU2bH5nltBYeeBBzDjkC7bvuR2uvjWXc3oQ2ffdoc9HkrfllYYw8SGtOljx/txY24MB1L2NG7wY8PWUOj1ihu2BCC57acQZikV4juGvyoI2CaZyql4Et8nwHehe/gAW/fRBnffYy7HzQG9Gr2ehB3g2N4gj35I0wQ1f5raJmWkWKT5NbTjv1VKxe/iLOOGUPpCOdrBBSfEqwQMipgIYKqRVrYVx1GH/I0ttxcRfWTk1hySSNlagw2TG33qS6e9Q9qK5FdW3yHJNhUGej24RB/coF5wcyqN/BXODfWmtSYUA3Bd68J5dQQLfjc5efjxnT9DA0aSNS3UNdsQ/zRhY1iIwiiyBfSOPvL6zFtTfdi3e/bS+85ag5aInmaAnnEEnQTFZ3qOn6VOlQmKGRNbHlO9j+OIvv45dcip/Mewh7vfs0pGfNYd4X2QLf/t8/2xy6M1sWbCNGDTgdzb+6FAsefAS7HHkU2ububyYYabagbeRapWa6NiQcAzlg4jJ7+i0nIaxFIGwsZqPYd90GTM7m8eSM12FVeiLri8qYXoaYRndMM4TtWKq9BcXr3da4SpoZNFkuCq3jKy5+FQsffQxnXnEZdj/CTm4pJPQ6wvotj1sDn3rkcYrvnLPPwsYVL+Lsd+2NRDIHs1atnGCasS3Hlpnt349p9rMp9xou1ZiP5vRo3KdcoisXrFOXWNipQoScwoT/mXGjkKt1+KHOR/hwmzge16u4UvkiNk5PYQ0VXyZh/ZuKzr/q4tLEBhu3hIVmd0YQY5qFnRsniTFdB7q4GXWj0++BYSR06DTz0oUP+x/SmfMMw6eQolbXRy+P3/PwQlaGNK765LnYaVqzWXaglr98ylUsFJa4CCWf25fSk6Dk49JpEgOVWqwJLy1Yh+u/8Cuc/La9cfzRuyKtqbC8pqb4F3m/JVZMs17MpNbmkeobC9XUdHV+6jP46bxHsevJ70Fp2gzkTL4nmEd0zH8nnPQ8ZkzGOR1Tw0GKXjNMA6ffOq5/8qd6prDa8j/j7O+cPNMmHL/8i4FhrH8TO4ViCb3Mp6zyijKguHAx5j/1KPZ804lo2/1g5BNNZjmMrQEqfwmGkzWnFxwwP814MMukCoYaNurmZHnTbileRKpMQUyh++KUSXhs9lysa2F4dY/Tux1hVLlPIlXkViVU4akIjeN1nAXiXci5PGVOsMrymJSeHBvn5SbkXlxMxfdbnHPlVdjt4KOQZ74yC5W69Gx2TP4Yx/is077KRSDPApk4NNbftsJLVgVvfWSxk1u6ccZp78cSLWd4+y5ojvZQYGptmfqSNXjKfW4TrJxyWkgtoRwvxgNHAcvKbrbBfkwFOuQGnq/sD3ZsFMIPdT4W9hc4nS+y4q9pSmLpJLZW41rYa/2asMUYWnJKE4ltFUsJCPphGG37uYjdakwk7JTamhasrQsfdsXwvomjv//NOwliCa84CqU47pm3BIloC66+/J+w0+R2k9e2aMltRRGlBDUCWso40oS/P7MY119zG9755r1x4pvmIJXI85waBbaW2WnsCqf6J8W6peuMeDEfcTQ8cPknP4Uf3XUfdjv5vYjOnM18cfctpVfPz2Bn+EoFtufzaC70IMpG7yt/eAg7HX48kjvvbWalGrUnbckGjho9yjGF6nOa3CSnSS0a+y3QqsuZdIgWU2ZWq8b2OhMJrEsnzZCArBAd0xhfNNJDBbmRkebo140DFqyLyxW9G+iUfsy7LNM2G9fENTW4Wb9poa97+S9Y+MDj+MCln8Hc/d/I40zQIK/q4Xt81TLi6/yWLVuGs886C6++9DROfd8+FJJdSDBRSwV7GU0LZ9r1JZxpUjI5ddyg80EL190Zf2htVZiB500rJMRoh+9/1p439Vw/Qie1m0wmzWPTnmW8avdStAV+1IeeoKV70Koi5rfksLpNb0mgZVZgmgy8CFE85rDu31zMUokv2Iaz2YShk4pyQSSatD/YNfphPEk8URBR8f3ud0sQp6V2zVXnYda0NE/SUo7ark5Z+A7b3g9DUcmL6XL2XgqIJeJ48YVVuO6aO3Dym/fC8cfNRlJt+LLe4KE3uFABxuPo7o3j+lt+j/MvfA/euO8sxiHFUKRPCU2LylO5lMQ1X/sNXl2uNYH/gaOPPRax0FKEekD5olmdV1z5Kfz41w9g53dI8c1i2tXXfW4elQetXcxharyMjS/8Awueehy7Hn0Mmnc9mIovxcYR80ZKT95NuXAuTND6N+WCDbFyM6J5zfjsojDuRi7JNFEQWhemzFAp2hC061hn9uhYg127e/DAjrvTwmSZYYM6jJ1i5+kPcyRIzwIVYZLZlM6WsWHxYrzy2/tx/mVUfAcdyoYGlZ5pf21OQNSygSZ5oT65Ol3kvmHDBhx11JF4bekCtFAOqhWnyQnxKK2LYNaGay/0FXt7ebumqw8nvB1BtamwiZCW3R1itMOH5LzBnddhxaWtFovP2GkaFq1aYxY5y48WQbtrG3/MxwTPfXjyzngyvwbP9PYgb2u68WMJInfoFJ076nyabXBwYC67KN196hY2SZMhUNgIlUi2o4QD9piDz115ARWfLLCCidPMNeDVt6T89EJrXVJqtxxJ0uJbg5tuvA0nn7wbTjp2d1rP3TxfRJQtd3WhmggoSLt7E7j+PwYqP3UNh5Uf4zbK724qv566VH5O8V162eX46byHsfs7T0dk+g7IStHzqWK8f/vQ9Y9eRRdn46RAxffyg/Mwffdd0bz361CMp1n3CxRZLPxmCCMIoOfapNI45WQ9RcpJtOfiOLLUgVRvBx5pnWmsP4V1tqKNQg3GPA7oWYXX0/L86YQ5FNYqbzYed8mhRN1gKTy4T8vW5MjYCC9f1mkYRuv1UjRSEhu78NL//A/O/tQnscv+h6Gk9ZPmvctRlsnNKZrNnauWOlZ+imbt2nV48/HH4k2HJHDQPhOYyBRcJm2tVSH024whcL+fPN8CW7rNzc86qn34MO4ZNail0YY0f6S7i5i6sAPrZ7Sge1ISxRTVgbry5FdjitxREHXjJYpR7PG3DXhtbjs2tKuwFln47LiIvUtVbAkKKVCb8eZjsWaHWwp+92kfh2t0uLcsWIXRh31PZN8zmjEYbitHKnFxq6gomH70yxfwtrceg3e95SCkzPoronChtHQ6qy+8jVPKScpPAwiRYhp/f3k1rr/mJzjlLbubWZ2JSDev1OsCU/nZMhSJJdGdSeDaQPkdus/M4FkGWn58/lIC19xC5bcsU3fKT/ndm+nFxZdcip/f/yh2ecu7qfh2NOPiJvno6rursz9qzBXXrsYrd/4KycxGJGm92tdgUWipoaeHMmP4QQCVglCZMA9syrCcymmRdaYLx7Y3Y6/Zs/CtxUvRo/eg8bz1ofpiy6wLtS+F9/Gtbbh1Fe+FlgoiXXT2gqZMhsqlML/kLdhW4AHdiqtShpC/TfwPZCyF7/dD8y9SyK16De/693/HXieeZIZQ1CBXMzXCNDWzaIekluV1U+X3Piq/G+rF8tN431tOPB4H7LIaB+3VwnSl8rOpa5VgsDXWAV04c0bwNrYvVC62UrI1zIoXLUTQ1ltC64trkZ/eivXT21BO8FkpEKJMDD13+NklJDTuOXt+DzbOasOGNlrPcQoNTQYICldlwfugyk/Kx06okQKspDvvSj6cfxeXo0xh41BUDGnyqA8nqBghn6tcTlH5LcBJJx2Nt7/lDUjSdNS1pKTChJWfi0+3pIX8EVY0dZg98+IKfP7zd+DtJ+2Dtx63M1qpSMvFblY8fcVbQTWZQeOBqoCJrVR+ErRUfrL8jPL7et0oP+V3Dy36j338E/j5A49j15Pei/j02cgpT/W8QRpuqUFWT5SVnz1dWPHbJzFj55mYfOixKBY0fsR/6v2Jx0Np78qvSoJcqEzqJxOhpdCDvZcvxLQNnfjd7rtjdaqZR1leWCD6lB6vqS3DaDxqt4712H/Dcvxm5wNM74NeeSZUhkw5GqJsahtGP00dCLy7UEP5H0i9hDfOHuoXzsUTRj1vGgNMd5Xw/G0/wXs/+lHMOGh/Hu/zOaBzbBD6y5SRheVooPJ7G5XftfX0ejMlEIWzxsicYA87DWdvcoxKs7ItstXG7UCn+DbnBgsTdoOFCbvBwoTdYGH6OZZU44L9WNF2ukQLJTRtyKKw0yRkprYgn1aiM5H4X2800UzHEkuV/aRPzDQXpIaWz27GhmbGRT/mW3Wa/EKngWgmFq0lOR432/4uGviLmvMD3ab+Bzob1rq+40F4yS1u7TWoIp0/ppHynQ9v8tIIKOPZOleRK7CylZDFs/9YxNbbL/Gut+6BtxwzC2nWWOlhfZzWfO2B//Q2EQYIXH90LVnQ3LMHKtCvav8gYbY36uq8hBbf7fc9gjlmcstck/duHZ9DT6R0kxv4dKNBv+v33dagxFXO9ZKGHMtxqR2ZcjO6Y3r1WRyZZAJdfLaNzCfjGHMHw3QMse3kdm00hWem7YYn99gfq9PNrCe0+CnkumIRxhU1cZvf5hivw/OrkpPwt0lTkYkl0Wv8BY5p2k3XGXI6pnOdzk/Idbt9+eW2Ekb77txmXL2EN+G0HwofPh92PZI9uTbki00osl6Xk+qBsJPJnKs7qqwUI/5ErL6mEuvGtuXejF8XQNuBbksMFibstsRgYcJuc1AyyOqx3mgxMVX1Imm9oaIcj2L1rCasmZJELq3XQFmlKKfEl0wZ6CRocubrC7IeGRc9aj+M/MgNFoGLXzh/m/NvHf/wf8XfAIyXkKtcgz8G8x/G3gsbOvwrZS7VWGAr4G/Pr8a1X7wb73/nvnjrUXMwMcG2fbSXCaPuKkrSIOTw6LvbwVTj9kJLgC697JP4ybyHscc7TkfT9F1N3hbNi53HLnrNXS7OLYWkXkdnXjxNZ147N8Cpy9y8tNb8TlBZ2tnO5rhmH/NYNqIZnU1YmW6jInOfMFJh05bhSnTmVWb2OupCX9kawfyJU1mU9b5gfaeEfnUP8hfcj3P6vSWHIG63HczP5txYCl9k2pt3++rtSYkckzlrGmJy45URV35GuJmWuEVvqg87Y+EF+7KS+Md2l1FjmK4t89f+0zod5+y6wKFdX6jB/w0WJuzCfgf7N1gY63QuhlRBn+eJIk6rRa9nSkfjZnCYRhKVA5UjCxZtSBpBTB91EbGBEH4+8ztwmqSmmVdFChN9y0/dFHobjL7UoPltKo5u7M7MeJPTvvmtHKCY4HmTroHTUU3aCedFP8dYzdpCuaBYaNhEr+M0r+R0Lnhu04WiZzM+La47RXej47Lt1P2qaejqshB6Y0SEwuyFBatxw43/hVPevieOPXwHtKQ0GYKVjneiN0ZGy2nGlaBj+tIxFUycxhJRPPxhLEylLe/ZXnkgukGmJ09zs13RvWoJ0Cev/BR+Ou8BzHnbKchPm4Ee5PjEmivJuzXPQqf75lb3rDRVurvb17aSFzpOJ7QxaRO44HCFoc5zt198Lk7+t9cPzrvrDObfnVezRrMstUShECvyWazTu3v1omnzpQZkuK83sHBbZkNH32Hkea3lTZUzSOW7TB1JqHeBRca+V9KW5ST3k8z9ONMrrni5r45VdYfH6FR+16di6KbwliWtf+Yc/RjH+hN2du1speb0c+7c1vof6OopfHg7VHiTV0XmDxNa4/GqUSqzcn3o6Obc6KKyWA01uONqb2msYYWrPgdkf0XRlimjeWU3kjmqFAoxKQ8Jh4HokHP9kOCjEiwykMIV1YCVIOK+cyON4jfRKvuCLHS7cuEiLhd42TyBJ8VdUgtfXaBsFPz176/i+s/dhve+fW8cffgMJNnKLJfDlp4UvtTdEFfZqov3IUtzeyIB4ro6b7v7PuzytncjMXMnNmyYsUrMcYDNLak/WrBmrFZCVfkZFFhTaK2iknDVchiJ2GgxjVghjqndGbz+lWdxyIrn6bWIvM4zDrvo2ma5daH4Qs6Ob5cxsbcJzdkmJAp6w9DgfrfW6VrmekNcc0uuXsKbOAY5388Jpp95wUCEDfcxtdRmeIx41VMyqsAqPV2rUM7BIhrsBciCqUzC2PSGBoavR3R/svJkbbX2lDDpH6vRlqf9EqNGZI3td/tGKAyCSwe6GL1M7yygKVMwM0XNgvJBGZhaAwjFWXHDZZN4+isUl9+mHpkHtsLPKDzu68vasXgU81/YiC/d+Eu892274IQjpqEtnjQNBLOIneXGYawg/jOtd12LldIpaOP6X34QdI/2PhVP/0wYPfRMenPLxRdfTIvvfuz89nehPHMmGzb2AfScxuIfkJ4O03AInnt7oOua6w9+e1uNec7gmZUnssVku+ldrpPKXdh3xXOYluvEM1PnmvNOHm8tirG10INpmXXc04sYlPeebcMlutK/ygwfA4x4CdlelXS0cUVDgkFoZmdzDmh7YSV6dmrD6ukJ9KjrR0I9arv/1A04MH30W05nnPBXF8XUJR2YnFMjokjL0XUZWjcSuOs6ty2ofV+5j0pgPgEVnWnVS3LpXkORR9COvzy9FlfT4nv7O3fHW4/dHe3U6XEtZ4h2MdxgY3wuArVeA0tC13WSURcIKcyQ94BgRxNy+g7aSUn8qW1Y4drjdJq8E6DzFb/BMaFgzv+Qx+lk8X303/4dv3joCezxrtOQmrEz9L26UixPfS6FEAQcF/QVCqWJSxdjxTNJTR4EEsdMpuC/1lwGc5YsxIR8FP+z0xuwrmmS6SZXAFuerH/Fpbrm6ttAZPXt3LMOR7/2MvepVk33nsczNDVqHqm1rQKpC8jWs4XZWj2hQkkLwhXoigtOiXq1+FT/NLbnnlHjcfqi+cTVvSjtOBmFic1moko8akavWHEjKLBymu/VqRrTfzxbRoLKLU0fShYJyj5HBdhbQCSTN3En6cJpoXQyfnjNBHVGnC7Bg2a8SNKUQpXmBDe8Po/L6f70ykVzz3QSKopH8crS1HX0mSUztkgnzCU1JlugowKJyfFZ1GFllII5XTL+E2zBJxmfxmHU7lYqlXUBWsQlXvsfLy7D1Tfdjre8d08cfdwsXqjHTEnIJxLIxSegnGg3XS4a81Pa5Wg1Z+MJs3haQ3pa6pGNNjMMLcVECxUUn4/3pselGkGWV81HkrwfWtu8bp73VdA4P61NWVn91h4ax2fiMWeN6HnscaaJun5CyK8710ffMXdccYSPy+L72OWX4a7Hfo993vZ+JKbuwPSOIl1MMT9iSObzzD/mcT7H8sStvkguV+JxbpOFPqff7nyU552TXx0fyr9zWxufi3MT/3RD+ZdLskC1RFN6MRbLQQGJbAdSVGzJbA4RhlW+ahpvnGUoyW1zsYB0uWDWry6dsRv+e7d90NGcNi940PidSoL+miJEV2lsDQXTXvGmTMPFvtjaM74x8qkKRnyd3wknnoCD56zAQXu2sehai0WoABtMl1no9wDqVeGF0a1rMoiEtLo60xTuasXq1gvZAiavyVJoswqyoucTQOdEO9NTx/gTqbU9mLxRisnO5Iw0xbFmEoU9tYe6wKSE9n2mA71JIJPSZ41KWDs9hVKLZrjp+mU09cTQtKoXLbwJ87X1RBadM9KIUJjoBqVWU+syaO8sUDjxvgrdyE5JoXsCFQSvYSauMK52KuxknoLGaGDe69Q078N+SknLERPreY1Mic9ou2N7+RzrZzQhH4viu3fMxzvefAyO2XkKWrq6KdDYUuf1CzMnIrrDNDtZJxrH0tfW40u3/xET5uyMEw7dEbs0rUVzvgc9kRReYSNgFYXmjHwE+zdRWEZ7sDQ2ES/2UvGVE9ibVuHOtJIyLKYvl1qxJp9CIZfAnd+5F5eedwJed8BO+OO6IlbFmtBE63H/Sa2YUsxiLcP+oyeOex6bj+zabnzyvLNx0nHHYUFnL25/8VVszEWx78QmvGPuVMxoacIfl6/F3YvWIEfBe+SMSTh552lUjGX8mkr76Y15tPK53jp7Ig7ls21go+QnLy3Doq4spiUTOHXX6dhjcite2NiNX724At2FEubS6v+/H9+K//zxjzB17q5ITJrGMq8ZTEx0uQq2IWGV8BCVYgwQiebYYukBVq7D8Qfsj8k770ZFlEJHqgULmSevtSXZ+EognY1gcmYNdu5ci444z03YAZkkyxNbk2qkCZNEKsN0YTmxOdkgBXxgxxK8ftUK3L7rESat9WFoz9ZTZCOlibLhhR99G+dcfDGm7ndAv0bj9kUyamTX+cWuJsF+1agS//g/f4wdJnZhFgWthLRrtangKhltu9ges+jG7RlRORzQ/2z9YGdxWiupmRZc8wurUJjehmIqjnSmyIZAGXGaLJEkLRYqjBIVgSbGqHumiQorVaIg1FtbElQWVDa9euOLlAULm565hYqrJxFBT7PGRai8WlMomi/bWjTDNMkIjRLWu1MpbHMttLl0Xzyfj9nzCVptsqikE/PpqFlCoQJdZCHX9HRjYTKAeZM7w2Wb49Cb9805Hk/zQeOMw1yL4Up8vu4ma039+bm12HO3Odhr+iQkGUYLmfO8l8h0Kr/WNnOfaoX/+c+vYl1vFEccuxfaYz2YkM8gnaO5ymcoJ5sRT7VhQiKJ9mIX8zqLjkiaSrSJCieOyZEuWhQZHi/Q8ksilkyjicf//scXcMQBu2HK1BZsjLUg3tSGibQWJ5eKmFAo8P7L6OFz//3vLyPH/DjhsMOxy+zZVHp5/M+y1ejo6kET02TvqRPQnozjtY2deHrJGmSyeUxiOu09pZ2WewT/WPoanl+9HqVMDjsybXab3A59yuwPr76GlR28r0IR+0yZgJltaazr7MHTi1Zy24m/PzoPd3z/W2zcxNFJK2jjyiXoWLkMHauWo2NNyK0OO54fo27j2pXoWLseiVwWO8/dAZi1A3qo+DpTzVjX1Ixu5m9Cr2srMw9jBezY24EpTPONzLfuJi1xkGRQCQzqe1C/zI+A0O4maEbo9J4cJrBh8sLEnczruKz08GwtZRovCdbrNX/9M15/+OFonj6Tib65VB9lKKgkpZLlGJ6+/07ss9suePMJJ1R6b7aVkbf83hxYfntYy8+13FyrzU146WvRuQJqW2kDW3f9z9YHukUpMm1TtFgm9pQx8bk1WHvALHQkNbVbFdfOVNNrn9Tpo65IVW/90/o/O5HFWo/qmtOna+RNGSmfsaz6IHlIk2ZoUWnfppkCcJMrIkXBKktRRULdj+pS1SxRixYJ0CnaQLFl2LKTMlaBdl1KOq/74C8Tyil1XUIxmWnn0Zi5BQPD6nuDWnDxg1/Ox8knHYu3H38AWhJ6lZsd68rz2UuRJB+ZuU2Fdf+D86kAn8LZHzgME1oYHy3JYlnfqOM98yIF3kiCZSfFY1EmHtUxVaC9oxQLfIznNO5WkIVA5ZbJJnDT136HD33g7Th4v1lUMElkSwWmu2b8lfjcsqgZIJHC9V++F68sy+Cmz38JxwZveDFjeupLVSoEFUdpZBtm/GvywKLaobQQ8uqO2zjsL/11FVCNnjyV709v/wWu++FP8YYL/wWRCRNRUtqbHFEk/BtEpPjtn7GN+VRXdwf+9Iv/RMvEdrQceKTpwSiyAZJno03d11rCoVRX9+TOVHwz2KhYPH0yVrW2U1KoT0SJYtNCZVPOKMCAgbIhjK7fXMwgVSxjbXICU1rLHZz08GwNY87yq/L1ZjUqHcF4UCjd7Mhf3+WMwDXOCiz3eyAmHrtbV+hWbctUQpAWk5QTs0ZKL8+Kp+8SUi9SmWjszVpNMtwk/ox/mlW9cX2OhcKSwsCoRplgjEViuJgsm27SvN6ZST+Sj3qLilknqB9UNr1UHj0sEL28Vo5Jq+5Mc1/GaXyxRGtJn3YpIyMzjlabCrPO6zpmMg7DaoKBul/dYnp73m4VZ5Z+7edh6JhJVlGYxzAFT5ZilmF75TdGy1JKmT6k/JkC5rlKyCBOiy/Sy9j0AmpeU8rKjP/wTvX9PzUQpORkhaZ1nE6fv9J19PaYWL4LTeUskkWqRsZhXr1E/4liEWnel+KIm4Kkb78xfK6AJirFZt5DGKPcGDTcYhzsmLDHrAtj/VsXpuKXSlq2RzHVxKdroYVPAU+rtZBMoUArKB+3Tvvm2Bh3ObreZBI5WuWFSILP2oRufXYooTIXQ7yobnOW/pI+p5XGkrbJ+NvcXaj4JrD8sWCx/JiXkTPt1OtgGmD9k3azyNLvTkawIaV1oWp4st6p+Hm2gaA8q36bulvfbEPxGBQWM8+2okSXxWSsKu5rzE2KQWhtnj0qXPaoQKlG9yV32NdApIBk/Zj3dTKMvrNlGwADwut04OqByv3oB7e6Lb0zVKpSgk2VSh6KUrjyxf86LH9yYQYes4u/6dk5pb129Yse+/yyArOJoRFN8/FXeaUiCmOUlrb2ZwV3bGuOh+MIK8C+48HNGXhENznOcU/snlS/zWOzDFubjz/MSY1Tx8yrz4ziMwdtaBdHOPW2hJpWKl9sQrGN1MLGkLuexzM0voQMA1VVM3OSNVRKKUuTbsPe09ClNwnxmD67YpUV/UoYhoTj1qDJKKliDImYvmYXMe9MDHRrXWKejs9tjDdKO/uxWR21zy1B5pySwm4pnrhjumYDf5vDpaN9zyD3eQnFpdjs1zEU6+AYO3XLl/CMKMorqSDb6yF1VCsUu9bZqquzHN/I+ligcu0bcvF4BsMrv2FietfoVMFk9ZUSFPolCmJj+VUna9VDOWNZLyb0yJKUDcEDNtq6xa7Dk1N3p9061Po3lp+OGVNPo2u1fiDFz/ugRtbVan65wVBrwDyz7mN73MD2Z2A9UFlWHVF5MV3a6mILzlWDGl07dXXj4NWL2CjK8cL9rX2PZyA1Un5qi/UpCLnxRqUXKxpBPqEKzaem1pJlohGvvk8HbTtKr/Z1eWR7c6DRBy2gN0sR6hor0Mx4ixSO7llHjeKzQs8oPe4zyQL/5pB1OjSiOAVsJ/uMfPxbgXkw3Ye7l8ZB6a1yLOVmGkamTNhyoYZPWy6DWRvWoiVf4DGbO2a8eZgZpZmKU3oK2HdVLlgyMcyIPGOGamvUyCs/K2/GPW5WpKlmfF5VbL0U2lR462XYKHyqGEVTMYZkwU4CqUVWjSy6SSfo5Wz6SA4Fv+jsOZNm7lCNMMrXOKWcVbSjix7OPbPbbyCCx9003W2atOXymNPRgynmRQ4atasOxWraGqyYmjka0dvhPeObKit1zSWqEX5GANW/+N5aVFE1I01bKbt4voSJ67JUVLQy+Nu859P4HB4S2BuiRWStiWSWVVQrHKpHdxB2EjdhdK8ul+3UlP5Ya9hYxKGTelbTiOAxpd1w0JXN1YM4bDyyL4LO1c2MB9YWXdc5jzCvOqMrRQrIRDpRiGoucdEWgipQ+VGd7E4GdVPF0DO+qbJajXwRcZJonOOUuipdKl9G68L1aMmpUkc0i7+qJJBV2bNjO7ra4mYm6diQnfaJdav2dvuP6umsc+6v24wEg0Vll3WM4EW2GV3buQYjeOTBi66GRTREUEAkGJurOp/YUOyJx7C6Ocn6V70l6Rn/1Kh9ZAuflIPD2QvjAT2WXk2mrSq3lF0s0YpCTK8wiyKTpBJkZXTf55PbFpRO66YxjkQOcf5ybyocmIb9LZ0aoTErM24VMPB3gBnljWiZuxFrJl2MU58tnZkD41oM3NfsTPcCaOOCU9WgwuycptdrqUjF+httAgvHvh2f2yAPGwWlufLTNECMte9yRt34ZeQiKXQlJiCTSNCP7aIOo9QKl+8tlXF1pi9pmYQ/zdidcdVybqmnXqg2j42c8GwbSvR+dVUCnkJOb5TQC6b1IuqqMoaB9WVqiZDtJLq3jtCtGRk/AJNOdndAegziuSYEdxBMqBhd+q5pyspgCdQoDHh0KcTV6RY8N302lqXbkNeHZ6kQq0ENzBwbn73xlEnvLSlLj8crv2Fg6hUrtCqY6rVeJp1tSdjuTgo5vW2lurrXZ1nZDKq/bHLPrjuTsJGadl+Vl+XnbB3nDBrz03ioGgo8ai0D67aEE2gmPm3pwrhj/c8Z33bXs91R/lkXRbGcgN69g5K+1i8rsZJpw8auBVVcwQGPZzN45VclqrLFeBRr57Yjq49H84j5crs9PTwY3n5FwYiFwNUfQz7jUCciJeo/O93dply1KKEVj+K0SrS/Mh2p63hGApNTzBvzgeNIAWwyIlHSNy9d/0Z15TypV9nls9XVPU/DUCPl1wDr/OQCQZulttP4XDGW5+9iyPIYHglGutOzPWjvUgaxNRu1VtLmXM2ojNcEBL/1jP1ccFq453fnLBrX0Quv7XqvbZFQLn7j3LXMj6BhwIP6F/yyIpTntN5QNmboJjyjhLJH9X7gOj+bO2VEo3kkogWWb/UURMyLHVTah0ukWMAuG1fizUv+gbh5nZ3P8/FOtTk8/NI2FLqjBih34ceU8tEYnaqx9vWC6KqSgIH1tQj3fbPxgBoJTvGZlv8wU0gpYlPF5QDjlKOCcw0BOSlD86UBszfcq3mGTZDgNq/6sEW6hGnd3dj71UWY1bXRWH8jUdTty8wzpix4GoAqy8zIK78BOGGkC9X8YqOI0t04WmXFYtF8N0/Pqc/vpPJ81hGrf+5Kg1MvlrXkTfhetA3ftbtFtx0ZXNpsmj52zFH/uD+yF/VUgS0jUTSxnkwsZYz1pwzSsWpwn7VRsyoSiQXjf/2dZ5xRZb0eeX00uCwad5hHZOKXivoOXRRtCzeat7HIqDHv46wmDRg2myjbNX5jkFoqG0Vtoq8ksLbO9aF76Ftq4Bl1gmQfqihEyjEqvDTP66OVyqfgRBUUonFkNNuTsdpuVI9naGokXoPxl5DcMb/t7rhBj6cvEiSzJbR2JWjxRc2HXquVt3lKgqX7NaOjVelYMu8tdDjryrmaI21uuikDgt96RueUENq4e9K+bs04/agScx1tQ/sGYy3QVW4kjM7p2MDjntFAeaT6v+k6Pzmeo6XWw3Jeiul7j+oKry6fNOiwrGk6/jh9f5T0hQcalOa7kyHnGV9UW7NtSfQMG2WABH6TxuiKanNGrAKopq4x0kxcH5mt7wobvrvBCqLTR8ZftSV1WOiiznm2GwOSXwpxY6IJy9pnYX20hc07vYezurKu0JlYHJ3ptP3ts9yzBbzyGwFU0boiReTL+qoBf1Tb7RlCMSqbnFU1kL629HaG92a7Gu2+o7Jrjru7td2Rzv/WNBSUnsaSCPZt+rqdoVKg4tFTB7gyrPe7dsUTWNXWhu54KrD6qusXUjar1yUbt+WkQLc15crTuNSF3BzLqH6ponXvyIqcpN3HGldQ16c9PTwYOB4sBpdQsJ3Ig6Mz1YmN4aO7c5hXVGkNn1nHJzdglqU8VwLYnXD42sCrewlYNygnpJg02zcfKyKTzKGkCS88UX0bRWVPk2fy3GrymV64EJzyeAahRsqvcdb5FbmXS0fRMU2L3VkBNb2+qCn2w0fW48Q1ESR6NHBPKzJm1/nZc32MSuWujNcEBL+lU5yzwssuYTDLGYKF7DpVwUg3hXNK3VK78uGaBXI1uYBnM5jcZrIPtc7P1J1oEsVIynwKrOqyzHo3PduJfTasNC+2Vo6HiplnHFJtrQ7L0pHBlDq7O54xjxg8pypuUe82Cw5o5K8aNFOtbUU32jXdU//5eygFoWuPihLcAhI0FeVnBJwVgP1uLXgGc5z7RnHWCKN8jcCt4UU8QxPK6zAqq8qTlnwOO3R3orWQZRG3yrAa1EjcsTuDA1evZV2JsQGmN8cEJz3jkyrLzMgrvwE44awL1fxio4x5nkiE/0OOFU5t3apgHO2lOJK0khSXfc3Z4GxOMY4q5h5cLgeWIfe2NiWqeQ53HReHjcdOPtKutwDqB+WNyvP03gz2WrEcM3q7ES+r/6S6TFJ5i5dzKMU3IJPIBy+G94xrqszikddHThI1APYx7WucU7TStHX/qoLBM2adn83dzei+OmLgTfb9ruwFO3qqkVZIg0W3/b/n18CE8nowosgjFunkToa/mEtVFgjVEY29x6hIE+UMErbzweMZkhoZY7bjKyy0zW+7O66QfmruLWLas11oy8T4kGW7rsh8w254TRN1HHa1F9CFDIr8VTIfw7OE03BUGrcapzFjNQHBb8mqfk7SrjIeaIuVsf7ktC8xyOcY2BWpMhJ21WBtzqBQy2rmjXnlt31QDis/h1rnp63W46FcoBKU0ooHx4cJr9MVS2N9YgrihQSLqLuOZ7xSbc32JaRKVMn1aqYUm50xU+GqF7ZFRvPa7GbkJzczg+xklz51UT9szT0pNTZNkdF6Gnf1Te/AM4oMkvxZaryOVBx581oylYfqyoTqyKLWyXhkxz2RiUdZh6hcfb57NoNXfiPMSFU32o0oFvK0+uzHcbUMeDCUgfWRiXpydzdal7h1i/3lZyQs2IqVGTj+DTlPPdCX1zGsSU3CS9P3xcrUNORp9UVoAVZDGQlkI2lkoq1IFlK0JPXFCH3dweMZHK/8RgB1++mzRiP1RhbFktPyBgpuxW2iHSJqdUiGOiVHlc2pFdeNqfvf9PY3F3JbYKxG023aDeupP0xOMW80IzgTi6IrkUAuGuNxlfMqMq0cNW9XSpb0rpgsf3aba+haHs9Q1Ej5jf91fsKKXaArVcZrezehI5lHwVS66h5YdTadTzLdkrxGzHwiyVXkcIaNSuWujNcEBL/DVpZxwWnhlI+2RgGaX9yJ2PHAEXvZNNPa5ABvQP9cQ0BO6CrmSvYGPKOI0l31fvB1fjxXiiNRaqZLmqU9+vzUsFG8+jgu44ibcXZNOdM2XFs8441qq/XIlw7dUbV3NUYwj8paLgGfTwYLdU0LtroEiLMuz5nfgbZ1WSSKMG+MGUrR6fhQ57YbfHyliysKlfsLkkU/pTCroxI7/9pJNC4t5HTGKWbPdiBId5f1Dps/JVaTHF0nirHeYI3sQJ/bShlzOzfgra++jHSxSEWozyQFpzzjkyqLTM2bRk4Y6ULjrR2mtI9S2bk1fuWopqfQVdOFQxS6KVtEiQpVVp9kg1rH9Zx+UjLOyjdPzy3/Oxlo0HGjjEIHXfnYGkx4OYa3QSpHzK8w4TPWCvDUAyofWuc3tbcXu61cjinZbmZQCYXopnm4LZRKJSSL3WjPrUUuFmd8403aeDahymo98iXESZwGwDymWpjcSxap9owUH6GHp4TXWiW1YJO0/sZ6K1aNBNNQCH5rp7reTxdYW+f6qBz1em/7EGTHYMmvU62FPGb2dKGlkKOfsvkGZjWY3nhGESk2o1hqZrUcaoqYx2OpUfOokdb5RdDUW8bURV1oKyVp9cWskKe20lfeh4v5kC2diYJ/qlMUVWDGU0I5F/w23ZqBkzTTpmL5ydnD9MAfkoDB2E8wjUdnBiUcbyV+YuIMBdMdqdmhr17YtXyBx0Gw5z2jibJK9X+odX76kkNBa/uKKcSpqFJDF4mtwpQplrFyNMltir+qXDfoqXuqrdW2JHqGjeqseZdgT4HCefNCeGvJM9bXdmxCZzPjosTXZ1poWNYdYXkVvj2zz5P9jlHYyUK2tl+Vki5ga2PRpAvPdmSQsluIFpFLZFkuisHp6vKozAbiyuYWPDNlMvezwZpbj2dofAkZIWKxKIolvY2FVm+VwrYUi2DdlASyKWvxSfENHWNfa3pk2La4KjYhb9BZZ8YFB5UW9kvaTBvYr3Zby4/H9FwD3ObQaRe3dW5v8Hs2V2EAXU++RhXdaHB/9tn0u7Gp9Awwv7qTSaxqb0NPMmW6PNX1WQ36hNHapja8NHkK05oNUfUJbKlAeRoar/yqRkJcVVefH+JP7pvtNqIgTslZkcnKW9ILf113YX/C9VpyNXzehu9/TPG62xrsnEP7prvK/uzHwDgq6KDSwHSHum5R3bmlLy6pK00I6u/McXUVD+now+2beJgmjFTOYabUm2O8QtDNptM2Z/ruZfRQIlqnpS/VLn8ZDygFVLaKTAv3Jfd18WYej/XLy+EQLcXYtEqhN9bEC6nL0+a+xzMUNVJ+EnF9LT258YipXhTIvYkiSu2scNGCEf5WCG990ioeOz5CwcBgMeqPREHxlM2yB/e2FL2vQu8sVNx6LVSRikPH5V/+GNzEpX0bri9u9QJpKz/y7/JFOVVmPGb8jFtdP0crVrPl5FdjavZr8vb+5E+KRWEd8lfkcxcYsXGDfM9PYzDlMlv5pSRdAiVeqKwHKvA+eHOaLNTndEwtd32WRq14wfugUNPX8rPIsIFRRFp+mf4JnosrjegrUYwjlU8jUmzifcfMfRjrk+fknCXqcMc2dzzMUMfdMcUhJS2BjkiK+9wyLZV2jYQe15QvpQdzwjaIuNU+kQLMJUosb3me0gdt+6fntmJLqd7qoiUUeW79213GO9WVGJWZkUZ3VO1djREqj6n3FO7Ugs4oK1zRvlliW4SdUSryH2x7qUdbc1G0ZGNI5+NoyqklKwvCeDdoBmiKLk6nfSk03ZDCy5+UmCzJNM+15OlydivFosk0OqfoUpQ7bTzXxK3ikdLUMbvw2ERpPGrmaTPDyznLVuHNloJLr2BLUWGn+PxyZumWzgWe3H2pS7dM5SqFoJNmUpDxo9l5CesizvG55YwisWGSyRY0pyahnEgiH5NL83kSjF+RFNHDG1mfLrFBUuAvPpAeIi7l01+5VQiUldxANns82HeE/ZrrcFfjUPpX78tUasKAMuIwZcA0ENXgSXKfVh//hRtTw6PMOpPBrO51bAipEVow1/KMY6rMX8qtKptcIbTW5oQTT8DBc1bgoD3bTOvLFUDTFUUCmTjm0WPpWcyWfyTcI9yRDaUElVAPHt2wuS886IwRCkyiOP8195aw8/MdbBmzHZuIo0iFgRSF+hRaPsmEEaa6SvuGHFo7VdEjRtl1NUfROymJXDxCASArCJiwohvNWWuNSul1TG9GdxP9UbdIybV3FpFc10P9EDUKNJeKY92kBApJWmrUYMrTSRvyaO4uIUnFV6Ie6m5Pors1iW/c9TJOftfxePtR+yE/fyHiXVnzzEqL1L67otyepqID5j2xBD/62TzMmTUNTXwWfanCWsiyCiz6AoNJCIc5oQNy1pdRoFSExXISL6/twbsvuACTdpyG3ai9923u5DN345nuFJYUU4gV89iHafbj7/8Ki1YXccy/fgErJu6AXiroM+dMxPv2m4P1mTy+8bdX8fz6brQwPf51v9k4YMZE/N+qTvzwucVYlc9jbmsKn37D7mhLJfHA/OX49cvLsJHpePysSfjwAXsgky/itheW4bcrOpnHRVyw10ycMGcqfv6bebj5wcexywnvpqJuZt7aRtF4RWO6xe6N+MvtP0J72wS0HvIm5pz9oKx77L5JW2zEFPKIF7JsrMRpvSepCGm3qf0zDBStlk7s99oizMqsxz27HsK0VmNxHCd4DSgWCmhm/Xz+B7fi7IsvxrT9DzSypT6gxIuoORtHazGB73/0XLzvpONxw3XXsk1sdcu2MrxQm0Np1QBlLvyIsoqS+qoDFbwq3LYmgfxKWYmmTBlTXssgVmBmt6SQa0ui0JygErQKTlglAOgLSpmmGB2vS0WJuLr57AQLnafhiJ50FBtbYljfGkNPcwzdSZiF87qcttlUFF0838N4eul6qASkJBWH7ktO8WToL5+mn2QEXakILS7roUQrL8LC1zZ9Ktpnz0AbXetOMxBNp3ie90yFsHHDBmSzGTSlM0g3ZdFEM7SpmY6maBNNyabmgnUt2hb7u6ay2TYbPzJx8/jb31/AJD7PrtMimNNexIRYB59HXwSnFcs0mJmIgW0ApJJadsKjvM+5fMZDpk/AGya3YmYz743QIMTek1vwhqlt2H9SCxVc3Fhv03j+4FmTcdCUduzV3krDnnlKN2tCKw6YORUHTJmI2cwbWY1Khl0nNOGAyU04aForpqRtHKViAZ2dVIhFKQA7HtlQqOCQwR5b6TGrtxcHrFiO2cHHbEvqAdgGyizhJQpDNQLTFNq7bFiJ2R1LsXDaRJ5N8CwLsgqxxzMEI2/5vVmW33IcsEc7BQ+FlSOw/MYLehopGAnGZK6MQoGWEpVUIZJj5eYZ1rtwwg5t+TEmnpI1J6Uze0UexdUbkdt1qrHk1EUkTMvaejVyRbmmewh3FxnrMbiu8UMXlzkZwpzX+Av3zcxLjbfpBA/YMBr3s9c0UIBo9M84+lFI89YZKpXv3bEAbznpaLzzuAPRQmvTXUnX0JihWv75Uh533P08HnviKbzjhN3R2pQz44Pm+vzjegRcMdTdGHuQh40i1xv/+S9G5ZmNtODuxxcZC/nKS87GjjMl6BSHpstrjJBppHFLxaIo6PH6r92BxStzuOb6W3DsMW/icd5nSNDaq1rcUXMv9Bf8MMrM7Jq/lr4YguPB/ctvnhbjbbf9HFf/5Fc47J8+gki6jWlKcb2NAn4sMdDyazn0TcwRKX6mNwuEntw13qT85nStx44rl2HxrB2xrHkCy0LcpNHWonHlfKyENAvjbhvX4/Url2DBlOmYP2UScuVW3o8aLJI/fTJIY9qeoRlrlt+ptPw+X1eWX4NR1hgXBfjkV7vYAmWFY6WTEgupj61CRUwN1bUTE1i3zxRsaIsgFy+gECsGzk0YUDEg9GuVTJ/T7+BUZWvG/kJO13DnhH6rO0rnFIe2/WDhV7w6nqcFKD82DhcD4a7zIyflpDE2h3xqCog6PKNmGromJjinyQnh3wV1bBpFpskL0ai+9t2NLkbym/tfZHs+js9d8gHsMmMCLYa8cZrsoGto4o66UjXmI6c4TNcqb0Xn6cPsBHrKwn0pO+eEUXbuuDliMdfQR4p5vN+El8Cfcdy3ylLKmE0JxaPodKhRGeTZVRZiyLBxVuAPfRElOLGVJBigJad+0ihWpifgf2bujuenTEOXGf/V+kF9IZ5xezxDsI1FzrMJrNjFQgmxnhwKeQlcO8FhW2SdMkGC04y5Jaj0eKBIa0at6dFn89eUYDdvsDGOvzW2qX09haw4Or3RQ6qukgbBjlFCdIM18G18LoRJDbNX4u0Ucq2477FlQDqBKz5xOnac1kYvUpA2LjkX0sZDJegc7ytW7FOA9t6tX6F9Yw2a430nwsfDyGoceFzh3DHt9ylRKUJ73uw0OH35peZKEuVYO3M5zRximunENiBlqc8hqYnUG0tgZfMU5MvNjDuGLBuNajiWKnGqhsl5PH34ElElql5mJiFdjFZBgRVOY2RbUlumWvKPJqXovaASjeqGzCZKrLi0LLZVVsoqDCzD/uhY2G0rLpx50uAa7rdFt+qsmz4rJ+xP281j0lBCkEVSdpyJk6IxV2zHvPteptKJ4XNXnY6ddmihBaovAeTpQ11am95PGKOYeMqq0tFEZULPZZ3H5pDtIShjZVMTnp2+E5alWpGPxplHg+efw47x2e5yWYvNuQwSbBlpdnIxTksv2sU8zpp41IWqJS9KeF3POY8nTI2UHwUO/0roODfe0CMZwcZtL022YiyHWJKVU11uBbMabkhs2BKaqfRmLs9j4sudSGZ5jMpT69ukRPsUmUlJngxcOObBlJ2Ohd0mhI6Z+AYyIP6Ko6IxYyj2t7sTWVT2gegC7K6Evwtrj0j+qCyE5ZBtONBPJZRiTSCSyyPbHcO8eS8inm7CVZecjRkTJzF9ZSHTmlPiVy6uXXUxSm3a3zqucUBt+3yNHpoEZGbh8r40LcOK7cahktdSRkGZsflsUyITbcK61CT0xGkB0s/AdZODoSyX4tuj41UcueR5tGUKLAtUiiwzmoClGbUqEvGSvgwfLJEJl2fPuKLaGjXyJUN3VO1djQEqj0kBp3GwztltyGiJgeo32VwSSDA05aKY8VoeqY4ssju1o5eKU28BMZNQ6La6wSCBYoTKELjzW/K3RRQ27Pqj23UtbNMokBQyysn533yKyMozywHiGfONNzYH8ODjS5BKteGKT5yBnWZMVFKbWJR+Fl2DcZvnGhC/TgWHtkurnzerdJCobzTFZwgeeWDS2zIiRaixvjzP6524yqzAwxCoOa2lOXtsXI59Vi3EhglT0ZtQuSnzeMw4NYoUjeZruTx3ZXK7lAFPbakyT2veLHIFTxcab20wKSgzvhOLomdCCgV9RFOyeAuyTpVz0poiCmt7sHF2K7qaKAxiVHxMIHXTmTGiUcPlTJU5ZBRQ2BFJf5ZQtf3tv6FQQtqF/HojSibbgrvmvcxyk8CVl56OHXdo4nHN4QzG1TTuxv0Y/1rH3xp7NOOPfApmgCaAmQX0itr8G11ULjRma7fW8U9wtnFRnZEraRF6IotCJGsbSoP2QvSRKEaw54YOvGHNOsyftAeenTADGdY7FTHVOdUpxyblrNJr4hlXVFmdRr5EqORtUvrGH+4RpdhVd81EF/7QP3W26LzyRuecMtTGOJ5cPSGBlXtPxvoWtn1j6lIMPNUtg2Wqjg12PMyW/NjzmiUbKVHx9aTwwLwFaG9px2evPA87zGpFPt6NYjxnheRWYhSOZmYG/0af4JqVhky95+8IEzz2YE+t5tDEXAGz13ViWk7jdgPHuBVKTuVCv63tvCbdhD/O2AHPT56OzkTcTCwTboaxx7Mt1KjIqKvHKgZHyB4Y8+ix9FoxJZ6sjjj3IkhTSMdQZGtU67nUutUSAtfSlRVSjNuuMCMPm6IopFmpzUs4FStxLdSw24RQKg7mf0tuE1zOhF1AKJw1XHj/dCW6op6PTsOTlRCuC9JYgbqWwlrFRm82dj679i3cM/HrfZxMt0wS8x55BWhJ4rJPvh/TZ6QZhlZcsVmzGnitEl2RSk1bHmIMGk8zjue0Ckh/5baPwgsRXN5Z8uYF3hVFOP7R45u87pfftkzo1WaTMjnsunYtJmS0JMGNz1rsL/rT2F0pZRRghJbiuqYYXm2dxPqVRJLHZOGrcumVeapzWuOptXxhuWPqn4mtL37P+KDa2qTS6BkGktmqTqp/yQKQfq2bW1U8vf3EvhXF+KPTmKD8uXdmGiVAa8+t2zPZoAjHCnooSbUQOjQQ22qXv0GKqZ5Xzx/t5TaLjnIK9zy4FOlYK66/8iLMnj6JoWysEpb2W4mbYeDp7d7VaDt7TTftJjfnMSWG+W+UI13/FLLKT82aVCkDvf1Ib3ORUiuqK5tIqXk81TCGJG79oHqXZx1UZZSA1uzO9rUZ86JpCTqNQaSp6PRblbWpEMGOq/KYuGgDojJZiB0bHLs1WAJLz29a9/ptD1cwrXUWL/NNtUBxuV3bMrdFr8h0yOfbcPfDC5hgCVz5iTMxra3ZvDzAfCXB+LLxGQs6+G0w8QZHTOSKs5+P7Yfu1bngUKNjrLDAqVckEw9emqAU4jGH6lRLsRf7bliIw5Y+i1Q+y8YkK5QYS41ET13jS9IwUD014wyssxJuGrNIF2TFabp92XwhQQJP59O5Eqa/lkF0xQYUJ7dQRtsu0fEkFENyy2IODHg685N/JLwCLahXl+WKk/CbeQuQSKTxmU+dj1kz21CI5Zi+6tT0jEdUPPKxKLoSCbNQXbjXoKlR2JwvYO+1q7D/qjVY2zYFvbFmJPPNtuyEUDxh5/FsCzVSfmrz97Xy5MYVlN19r/lSRS4jH8/yuCZlUGjzeaUKRetr3Yis70LXblPQ2cqmLsMomJH/1ss4QQ+kRDE5b4/wAeX0y3Zhyk+CezFE8nn09qRx193zEWtqxZWfPA3Tp+kLFkw/rdcyMZgQlf1BMQlprzDo7+2I7kDONHbMkcah8tyhZ9e+UANwfboNr0yfgw3Me73xJVLSlx2SSLAhOadjA3bfuBrPT52F+ZMnskxoEXzCBjbYsb1iNMp6qG1fY9T2KngagaA4DRtJiZFFd1TtXdU7fD7zCjM6yVp9ikVO9U6Prq3Oa4wv2xzDyt0nYn1zxFZQ+WmoCmpTxQo+Pn2UDYRoFh1I4f5HXkVr6wRcdfnZmDWjzZy3HZ0jm0DbZcwtuGRDZXUYk99DP3+BCjAXZWPHiCB6ZpkoxrupvMrYmGzH36btgBcnTaXVF2dTqYfn6QYQXMLTqFRZuUZe+Q3AtcZ0oZpfbJRQmpu1Rax9GsLTd/fW7zUF3Slr3+h9u3L6fFDn5DR6Uv1noI19BuSkebY+UWStfXUBayvVo3M2AcpMiGy2Fb+Z9wriqTSuuOx0TJ+ur7xTKYbGQKUsbXjrtozid6Wsf2JrTGmrohhJ9Ny8aNg1EiY39NxuO8jz9x1i/kRKbByWkI1FsLqpBQtbZyEfSTNcFNlEnnVMr7Ozeay61GDJ6RmMKgvByOsjlU+5cY4sO1VqY/nR5fRhN1ZUvVNQLlKOmUqqmZ/CiWS5rSGcr+F9hXe/w1u37+J3x/qup9lz9pd9pZj1MdjaOflyzp01nx5yzmBVinWuk7c/6t5yU/3N1Zgm+Xw77rnnFUxqm4TPXnk+Zk5vQinWaV4PZz85o0kyduzUImtQgpFXCeLRtc0YEX8EMZv/+qNuZ/fWEGNFmkfeLrYf75r/lL50Jj3t7rh0wq7VtErfYBoAfHI6U1JCmRAv6+PIWcRLRSRKBTNmHi2pS5yNo7hmgeoVdrYBFSvGkCwkTP6Pr0akZ3viJNkIM77X+QlXv41w1zYeMxV9+rI8JizJIZ2JmC+faxDffNuOSkPfl5OTArEyQauPtGOFvnOs8qYbVemldXU5hrfT/SkQGN59l0xxSCC4sQ8dN9egP11GTusRda+6jtZCmVeIRXOMP89wmj5OD8ZJ4NixNr1sW2/UUFyamKD1U7p/d3+6h4T5hl4heJ2bDe98CAl9ffdP96fxUXVzdedS+MW9L6GJLfurPnYaZk7SCsk8YvwXLdP645YRIVnKIlWSMNQx29IH7z2qSTD0kogwjJScnpdbHY/p+nrNB6WlecMLz0X4jFHzAmybBqOKnj+eR1brYKIFCnKmLW9i2x3VgcIyjTdxJk6dHyyccyMUfrA4+oWPmEZfUi+UZv6obMZKzFkqLmWayjq9GbQ3NdONfVcvxezuVdh77as4eOl8hrdlSOUKKpvMT8bOzEuwDMZNOXAyRRvnpCDDztMYBEVh2DhZ5RkuzAEppYldUexIpRdZ2Y3MtBbk9CFpnpZ6ixlFIScBYoVI0DxgYKt8+p+3jtKfAl4tY+tH3UJyCQqduHmjvY0rWdR6KCoAHi8rDMOa7+HRSQFKGVIVULhoYgEVTilJpahJBDHGIcWjuwwULO9KE3iy1JoSPopT25xa47pjetBb+fVVBc3Uk1LTx2TVSndYgSSxpYlPegEZlR/9/OqRZ9DSlsLVV12IGTu0Mt4C4+PZUgsTK0l/5gqmuysblRDVNXVU96g0o1iMxHguRT9W4eciLRSVzQxFy4BxyNGOMF8KMGEpNPUGybBMdK8bC3ezim05Ptgxod/6qLPSMpHX4v0E9yW8NTFD6TZMRw3j8t8483sbXLXhw2GN63/eTFpRQy3BhhWzTt3+mUQJPUmWHY0RKJ1cWnHTVMxhRvcG7LtiGfZduxyZ5onMb2vNm+UxJsdMSTKlSKXa4xlJvPKrEll+SSqQqX9bi7bVReR2n4KuRBbZCIUAFVMpR8UgS4pmUNw5SgYJRyW/EdCs7EkqpXQhQUWWQJquNadWNCu9BIF0JBXVhHwS7cUUWuiSFKj6CrsW1tuvB8SQouBvosBNUvq09UbQkrVdTdYSYjRUVs35NNqyrWjLNdElqLSoNKhcnEWpMcx4rowWnksrHm5TecYtZ66l6yTQ1BPHND7XRPqN8T6tWJOI0hOVeJ0S2ntKmJSNoj0LLFqURXrKVFx8xT+jeXoTMrynfCyN3mgLuiNNRpHFNBkGOfTSiu5ItmJdYgKVW8pM5Svx+XKRBJUo0BtJIkMFaAVqET083pFoRTbWRINByl2nIsignc88GflEG40PSmTdIcN05PJYl81jQyaPQrDuskCFtS6To8ub8+4rA9lCEWt5bD3993BfSMF15Qs8njPHs1qsSPQFh43ZAjbmCnw+quOUlr30oqmU09frkAKVIe91WC66hd9bctWG35KLJ9DSovRPsqynMLG3B9MzvZjZ24v2fC8t85wKokknEWOTZE7vCsztWI750+bipUk72YYQ2ZKaC1uAHs9wibAi21o+AqjFe8KbT8DBc5bjgD3aWdatsDAYYT/+0KdrklQ4O/3fGiqDJNbHe7Fyj1asnxiXzkKz1jJt6MEOC/JUSGwOM7ULtKxWva4FXc20HFiJY8UIpj3bhZZua3mpy3DdjDIKs9uwgRaYLJ62jgSmLu5BuoN2jCy/dBHLd2tCb0uCyoI2FhXitFVFTFjRTUVGay3XifzkBNbPnYDuJmvVxYsxTHmhA22dsslyKMYKWDq7GYWptJzY5JZAaenUYvz1aM800eKklZWMYOkuLeiZoO4r3kuMVu6rHZiyrIgNnRTnyTRaXzcD0098HfIt9hVk0SLv/66nkH6tx1xzY2I67t/njXh1l1mgOsOps4qYHtmI1ZFmPL4ih8WRidi1qRdvndFLxd+NZ7NT8LsVfC4+0/Hta3HQpDyiyQQeW5nEi5kJvI8y3jIth72bOhh3C+55tYRFxVZMzXfh5B1jmJ3cgBepBB9bnsD8VwqIsMHxkbcehZOPOgJPLFmLL/3lZXTQUt57QhM+/oY9sNeEFnz3fxfiFy+vRIlWylE7T8EnDpyLRCyGzzz+DP7WQUVGS/603Sbjgv3mYklHDz7+1LN4rbeMGak4/v2gOTh+5+l44OVl+I+/LUK+RCX9pwfw9J3fxQ6z92UhSTF92SxgWRkeLDQsE2ZbgZmlwrNFVSFqH970VhTyWLl4GQ7ffx8cv+M0zOruQIJlYUV7FE9Pn4Xn2/diOuidnCVae0tw4Gsv4a87zcFzk2cji6agC91iYublzFWDWxxK4cla9FRPsVBAcyyC539wK86++GJM2/9Apv0QiT7qSFbqBYZxtNI4+P5Hz8WpJx2Pz193LaLDrFc1Un4rcNAebbQA+pSf7c0fn6i7R1aRvjFXor2XpemRl0LiP6kMdeOkNCsmRJbCtPKlaW5sePtT5Gg5FOgkNIW6lTQWFw+EjSRDlgHUrWmD2fP6arkOqFtVSrTAwqwlFuY1W7wPfThXvVAuVJYGkX0HqYSzVVwmHkVMeNi8qk1xuDASUrRh8IPbn8PJbzseb3v7IWbCir5MoUfSc6cpqRK8Z/3TdPaNcVlrUsK0gIoZPqu6cWG6J/O0HGK0jvQqK9W1QjTN+9Z7PdmwoN94mTZ0scjjSaYJLV7eg7p5E2VaaHzGnI7TqpVQVRdxspzhPUd5vXZ8/mu/wpJlXbjh2q/guGPfZCrK2t4s8rwPesGEVIpWEO+RFuCaTEYiHEmm+cRkkucj6KEVuCGv8a0yGzIxtKeS5vobenO0BPm8TJv2RNycK7L8b6AlmKeFuGzhK/jOd7+D5cuWmHRXqgzN5s45bNpb3P62xBkO79ia6zoGhndhWRi0y2cs0hr+89//jpmHvwmTDnwjc09vvlX5oxVOaz4X01o9lUO9/ShPRwvZLHSXVc5IhhBFKlM6Y5LRUzPGmvJ7H2XPDdfWk/I7MVB+ezaO8gsTTk51iZqtWv1B95rDfG5nCBSFiYfOxeFavVJim8N117n7cOG3FM6dHXifffC4pBYx9xJJ43u3v4S3n/wmvOOkg83EkgjP65S5NsuC+Tgv/0kAqsvLbE3XluJRfK6pz+P0q1vU+I6ZHEFv5mr8Y5NCfulHwRSi0kWmaxqfFp1Xw4EVoowkrv3aXXhlWTduuOGbOPaYYxGjNWfuT5EYv9qxmFiCP/2OB2kpNvU/mN8g8gZCz71+/Xq898yzsG7qzkgdehRrf9Kcs+mj9LBpol9ytp/DojN2VLkP1zb0ym90aDTlV3ONJEEppwvV/GJ1gCq6c+b3ZpTcUCioQoWF6tYiJWesvMBtK7rfwZ29H7lw/EZoUdEFKs5g/NAkisfjVDZytABsBDwbSLQBt2bi0z/jh76oDEtFikOjTKyCURzODUQqUHehyiqVq1ikKOXTTB4aoMDC13KYMPyzyXH5D1wY638wv31hGgXlk3leaijlhddUnnpn5PWRyrwv9+MO6Q4JOLl+L5ymG8xa3PoiMLhPXY9/AzcMXDBuI1Hb3bY9cEqwEZzHM5YYeeVn0IiTtfgc5rfdbSikGAZTDu74UG4g6vox3UA6txXO+d/acIPdQ9j1aZPN49YymuUVdJUiYPorbdel7T6V41lZCPQna02WmxmypOZTwTRr9Xg+/BwDRayz+GSaykKlycnoYuZ4oLEDReoZHWx+upzSXzMZxuaIzVflo8ka5Y11yqRwPss5jEUfxOfxOIwYqYIaKT/PeMPKp0BYGWVY/9AeCXaK+uEZVXyCe+obr/w8I4Jp1W+NTqxYfVvGGIvB/paQZSB70TmzjpIWqFni4cefRg+T1nTKu1A2u/JRbWvd4+mTH9XVa6/8PCPCQKHmurlLWq7hujtriuKvXNX8NmKYh/WKOS90RwmT0M6NECo/PgMbnAjrsX1blF7DOBLd4DVSfrxR/h2s/94zzjGCKuRkgW3OVVuIJRTNtYJC5n7bH3R23LD6quLZOmz6Gzucu85tVndtUi5cbimQy0tPY6N6HEM6H4XeTVweAaUi6TOy6J6qvy/PGMctcbEv0lZLrdaFgvEbpafruK3Dq77RQ2lPN6KWWhCnp6Epsn7rXbF6oQZ/oVgs2BPDZOSV3wCcENSFan4xT/3hWvM1V0CMv3Kd/qVNYngkRbFncwRpP6LjrP3z09N4lPSWp2geqUge/3joIbz63D9w4IEHVibhDYeRL1Eq87WWcx6Px+MZ1ziVpkE0vVgjHS3h2Ycexl03fAlfuuFGnHXG6cELNIancGrUnPLr/MYbKl+VBc1aT+eWPTgX+KtYehWLr8bIwuB11PjT4vsSC1lJBS9S5r06FyqIntqj/KDIcr0+cn2GoEpKIAlMGeEJM2Ybdn1iz1t8jYlKgD6LpfxPIoZ4toRX7v01fvX5z+HL138WH/3/PlJ1vfYlyzPuCalmz6hRnWDyNDYqPfqkm8b2kO3Ei489jJ/dfDO+fvOX8JGP/ItthHvl56kPWBBDll7fTD+9oSU6CqJQV9D1neNvWRCyJEbh6p4AUwZGOL2dhehpGLQ+tzWeQiqbxTOPP4hf3nwDbvnSl3HRBeebF1mPRG+OSqrHMwIMVRhldUkBbU+85TdqmMaG0tunuWfbcCVGiq/Mhmumpwv/ePQx3PG1r+KbN38BF5x/jnlZ/kgNY9RI+fl1fo1LqGAaQehpLFjZme/btM7P0/CoeLgxvnQ8iWguj+cf/Rl++dXP4Gs3fA4XfOBcJBKJEVN8YuSVn57CF3SPw0xgcNbAaNJ3PV8kRxOltPLcp7hn65FKSwVjfOWejXj+4QfwX1/9Gr5y4xfwzx/64Ih1dYapebenm+1lLEF7yNMAmPym/HNfd7DFu5YEQrfi9NsL4NFH+cz89mN0nm1AfYVJKormQgHPPnY/7vjKdVR8X8RH/uX/1UTxiZHXR7pHX+49Ho/Hsxlc09SM8elXqYin77sPv/zyTbj1a1/Gv374n43Sq4XiEzUyxvw6v/GG1tFV1vTpk0ZBoay4wF9fkRY1Kl5hghmdqh/mK/a8ZNQMMgf3qhv3jCLMCCPMhlrntyWUX4GkUI+B6TXwjDeUy26MLxWNI5bJ4tn7foA7v30DvvWNm3HBBR+omcXn8CXL4/HUgNoJLc/YR6XDjfGVejbimfvuwR3f/g6++eWbcc5Z1b25ZWvxys9TW9Tk9633xsHktVd8ns1jxvgQQ1rr+B67H3fd+lV8/QtfxgXnjfyszqHwUslTE1w3dylSpvMd3g1DZWav72729MeVCDfGV8pn8Md7aPHdfDO+csM1uOjCkVvAvjXUSPn5dX6NS6jgjobSc5alG1SqWJqjU4E8A2Fl1xgst+H671c+NDbKfjfGFymWkSwU8cL9P8F93/sSvnbTdfjIv354VBWfGHnlp6f0Bb3hqUx2GLXv+XnqA+UzGz1e23lCSKW5Mb7mSB5/v38e7vjmN/CNr3wFH/7QRUbpjabiEyOv/AbghKAuVPOLeeoPY5Up50e3YHu2F8pn5bnPb08f6upMlugyGfzvPb/C3bd+Cd+8+RZceP7odnWGGXl9pGfw5d7j8XgamkonIBtCeldnIZ/B0w8+iLu/fSu++dWbcO7ZZ203xSdqZIz5dX7jDZVP1zWx2e/5hfasxVdjgnV+KnHme37mX5EntNJs9LtSPLL6qlnn5xkPSApojC/CjI/L4iuV8OzjP8Gvv62vM1yP8849e9RmdQ7FKEgnj2c74QXudsQnfiOj3Dff42PDNFXO4k93/hfu+vqtuOWGG0f0s0TV4JWfpyb0zfSL0LGgB8e3D14QjxrGxPPp3ehojK8tnkIy04v/m3cn7v/e1/GVa27Ahz/0z3Wh+IRXfp4aow4Q3+HdMJhZns55GgmX41ropjG+nu4OPH3/A7jn27fi1q/dhH+p8bs6t5UaKT+/zq9xCRXs0Vzn56478LdnlGFl9+v8Gg5lb+VdnZE4opksnnv4p7jn1s/jm7fchPPPPaduLD7HyCs/pYIv6B6HFKBRgtuzUPgCOXoor5XnPs0bCak0M8an7/H1duBv99+LX9/6HXz7G7fi7NNPqzvFJ0Ze+Q3AzfbShWp+MU/dYPKb8m/0vufnqQ+Uz8xvM/bnaRQ0xtcaTyHe042/Png37v3WV/Htr3zNLGfY3rM6h2Lk9ZGe0Zd7j8fjGdc42969q7O7a6NZx3fXN7+Bm79wPc49d/uu49sSNTLG/Dq/8UaZJb2yps9/z88zJMwIIwz9Or/xjGpVv3d1Uro/88RPcc93b8QtX7wO//yhi+pa8YlRkE4ej6fx8NpuPKPc1bs6I+ZdnQX89d7fYN43voVvfvU/8KF/urDuFZ/wys9TWyqzLz0NgR/fbQjC7+r8/Z23Y943v4zvfu1WXHjuuWNC8QkvlTw1wXVz++/5NRiVmb2+u3m8UclVNmi1jq9UyODP99+P+77/XXz7GzfjjPefOmYUn6iR8vPr/BqXUMEfDaXnLEs3qFSxNMdGBRx/sLJrDJbbcP33Kx/GNqrJ4Xd1pkslPH3/j3H3d76Ib9/yRZx5+ul1O6tzKEZe+amQ+4Le8FQmO/jv+TUYymeKSq/txhVSFFrHF2HDJo0sfv+rX+Le73wP3/jyV3DuOecgFouNKcUnRl75DcAJQV2o5hfz1B/GKlPOj62K4Rkuymfluc/v8UTfuzoz+NPdd+ChH3wDt3zhy7jo/A+Mqa7OMCOvj5QGvtx76gpfID2ebSFst7t3dWa6O/Hn++7D3d/5Nm796hfxTxeOXcUnamSM+XV+4w2VbxVy48bK9/yC+/WMJiobm1vnp52gXGhMeJPu0YHnvdQYLcJVRXlmxviYFwnEkMjl8NwDP8Z93/0Svv+Nr+AD542dWZ1DMQrSyePxNB5jVyh6qBjYJkmXpB6KiOe78X+/uRO//vZ38N1v3YrT3v++Ma/4hFd+nprQN9OPbUdaAl4UNghufJf/w8N+su/6W4Ce+kV2exmJYhRN+Rz+7947cd/3bsH3v/UdnHHqqWNuVudQeOXnqTFG7Nnd7YbuwTMqmG7KIL2HlexeQ24PbO+zUwem0xrlYhZP3fEr/ObWb+AbX70Jp1PxjcVZnUNRI+Xn1/k1LqGKMRrjNRKUztoY7LdndKEUjTD5I0ggjhhizItoiZa/utCUL4Fis+sASxX5oNmEZqywHKOFSEcJYl+QQGeWy2g/GEPUuSqcvQ/7tZGwc8cHC7MtrtbxV+sG3l9M+cN0RznJnIkizjSP5zbi6bu+g4dvu4WK70ZcOIZndQ4FU2GEkaLzys7jqExa8IWiMShR5WWQLPdQsObpChQyBR6jC/bNMeOKm2ydv6Hd1vjZvHP303cfBQp/e9yc4341rtbxV+vcfZh7ClwEORTjnYiXu5DPbMAf7p2H+35yG279yldx4QXnjzvFJyLlEXztfalUwgknnoCD56zAQXu2MYGLpqUmTMuHbO8OMM8wCVlxJk8jaXzv9pdw8tuOxdtOPBBNSY3ryY9OslUvj+b36OS7MfiCfaH5htFyAtd97S4sXJ7F5264Bccee6zptvGMPKr7GzZswCmnnYqFXd1I77wHSkx/kylhman+NSNygjJiLEHZgXpllt23sMRENGtX9IsgCFMlvIVwy9/c0QhEW6Gq+K1Hp2tGUET3wSgVvbulMq3rYjKHRE8ey556BJFcGd/7zndw+mn1+SHakWDkld+bA+W3h1d+4wqv/DybQWKkp6cHX7jpi5j34EPMD3Wj6cTAnHe55LbKODoVm4oo1lbhwjnqzjkG/h4moduoCcOOnwEropmBa6V83CWC/udCpoClCxfgC1+4ERdd9MFxq/hEjZTfchywRzuilZYbCZSfZ2yiFXSupmgvEm/G98PKL6EK0ifoBub2QBE4YsiS0H1poMkIieB3ibZEySq/RStyXvmNEpIBxWKo3nvGFIVCARs3bsTUqVPH1eSWwfAayePxjBgSlrIWvBubLpVKYdq0aeNe8Qmv/Dy1xfRH+mLWKEhgSnB6NzadFKC2413xCS+VPDVB3ZzGaar6aCx58Hg8nm2gRsrPr/NrXEItxtFQes6y1Db8e9tnGHg8ngZi5JVfMN/A09iYxchydfE9P68IPR5Pf2pk+fXhhKCxBO0hTyNhrDLlvFdAHo+nfhh5fSQZ5+Wcx+PxeOqYGhljdlWYWQwd4CZAeMYmmvylGWDG+e/5eTyeMc4oSCePZ3vjB6E9Hk9/vPLz1IS+mb7+e34ej6f+8MrPU2NkdfkOb4/HU1/USPn5dX6NS8jGG811fu66fp2fx+PZCkZe+UnReWXncUgBGiXoC4XH46kfamT59eHX+TUmJr+N1R81zltiHo+nnhh5fSQZ5+Wcx+PxeOqYGhljfp3feKNMK66ypq/EH27Nn3OBv/7dm6Ng6wfr/LScL8o/UV4yagaZ+9Ygejwez0BGQTp5PB6Px1NfeOXnqS2V2Zcej8dTP3ip5KkJrpu7Pr7n5wehPR5Pf2qk/Pw6v8YlpGhGc52ftuHfXuF5PJ7NMPLKz8418DQ4bolLfXzPz+PxePpTI8uvD7/Or8ExVply3ltiHo+nfhh5fSQZ5+Wcp67wVqfH4+lPjYwxv85vvKF1dJU1fXX4PT+zDf/2Cs/j8WyGUZBOHo/H4/HUF175eWpC30zf7fs9P9l/+sK7x+PxhPHKz1NjjPqxu6OM64wt6XVsHo/HE6JGys+v82tcQjbedlrnF5G1GS+iECugwFsoFkv+HZ8ej6cfI6/8JGO8nPE4zGSU0Z2AUqICzhSjWLg0ixdeXI1YvAmzZs40k3U8Ho9H1Lzb06/za0xMflPfjd73/BR/1Ci+fCSKJSsL+NwNP8OG7iKuu+GL2H2PPbzy83g8FUZeH0m+eBnjGXVsoVPv5uJFK/Gpq3+Ahcs6cdvPf47jjj8BsVjMKz+Px1OhRsaYX+c33pBSqazpq6fv+QUkkOR9xDF/xXpcddOdWL0OuOvXv8ZRRx5tzkf1oT+Px+MJ8BLBM6ZxC+x7yz14cfFqXH3tz5HPpnDbT36Go446xpz3is/j8QzESwVPbXGzMWuE3jYj98prnfj0jbdT2bXh5pu/iaOPOcac94rP4/EMhpcMnprgurlr9T2/qCm6EZSo3BYuXYPPXU/FV2zBF790M4457jjE43Gv+Dwez5DUSDr4dX6NS2igt0br/DTCGIk0o1BOY8HSHnzy+l9hQ2cMX73lmzjuxBORSqXMOKTH4/EMxcgrPyk6r+waHrfEpRbf81NsvaVeLFrRgU9fcxtWrOrBj277KY474URj8XnF5/F4tkTN+4X8Or8Gx7x9RTk/MgrJKNF4FEvXdOMz1/8Qazfm8V+/+o2Z3CJ8V6fH49kaRl5SSMb5hrdnhNEry+xOFK8sXIErP/MDZPNN+Mntv8TRRx3tZ3V6PJ5tokbSwq/zG2+oJ7Gypm87fM8vEW1CqRzHC8vW47Ib7wJik3Dzf3wTRx55lDnvFZ/H49kWvMTwjAm6ip1YsHw9Pnfdz6kIJ+CLN30Nx7zpTebNLV7xeTyebcVLDU9N6JvpW+X3/BhQ3+Nb8FonLr/mJ+jpTeIrX/k63nTC8Ugm9VaXYcfs8XgaGK/8PDVG3aDb3uGt5Qz6W6B7dcUGfPaa27F6TQ7f//FPqPhO8LM6PR5PVdRI+fl1fo1LSCENc52fXcfXglKkGQuWduOSa36BletL+NVdv8ZRR/t3dXo8nuoZeQkiReeVnccxjO/5aR1fttSL+a+uwVWfuw35YhP+645f4Sg/q9Pj8YwQNZcifp1fY2Ly21j92/49v0K5hIUrOnDVdT9GMjURX//Gt3HkEUeac17xeTyekWDkJYlk3NbLOY/H4NbxFWnZLV22Dld85kdIpifhRr2r89hjjdLzis/j8YwUNZImfp3feIM6qW9NXw2+5xeLpBGJJvHKmm5c+vk7WFZacNOXbjHLGfysTo/HM9L4prSnLsigBy9qjO8zt2Hdqhy+/yM7q9MrPo/HUwu88vPUli19z4+ntY7vpWUbcMV1t2H16gLuvPseHH6kHePzis/j8dQCr/w8NcF1cw/1PT/bUWrX8S1evh5XX3c7deQE/PLXv8ahhx3uZ3V6PJ6aUiPp4tf5NS4hS22IdX5SfJFIK5ViM15e0oVPfO7niMQn45b/+BaO8LM6PR7PKDDyEkaKziu7hsctcRn4PT9ZdPqVKfXgpcVr8Kmr/xNNqSn48pe/Zr7OoG5Or/g8Hk+tqbmU8ev8Go0BLR+N94XW+UVjUeRKRSxYtgFXXvNDHmjFl2/+Oo4+1s/q9Hg8o8fI6yPJLi+/Go7wR40Gw3R1cpsvFLFMiu+zP0ZXbxTf/sGPcLRfzuDxeEaZGhljfp3feEN6ScrJuEG+5yfNZro4g62hMsszgmS5CbFoGq+s7Mal1/0C6zeW8fOf32HG+Fy8Ho/HM1rUSPl5PH1EqBwzkV48t3A1Pv3Z/0Sx2II7f3M3DjvyCHPej/F5PJ7Rxksdz8jTb11fBKVyBPOXd+LK6/4T8abp+OZ3vofDDj/cnPWKz+PxbA+85PGMOJEyC5Z5VycVH93iZevMGF+6Zbp5V6e+zqBuTq/4PB7P9qJG0sev82s8NA7oilMEsUgbYtF2LHi1G5/4zM8QjU/ETV++BccccwwSiYQf4/N4PNuVkVd+UnRe2TU0ZZp+OWTxwvyVuOLTP0AuG8O3v/tD/5Jqj8dTN9S838mt8+tj2y7Z9z244aKwQ4ff/FmxZR+bY/vf/5bYxvj1LHS2a7PPGcuPPqPROIol4OVX1+Gq676Prp4ybvvFHTjsiCP8rE6Px1M3DC31hotkm5dv459wHlMT6nt8UoKFQhGLlqzB5Z/9AcqxNvzy13dXXlLtx/g8Hk+9UCNpFFrnF1gK9lLRwBIMtsGrr8LO4SwmvRQ5/GLkwcL0cyZ+d42+8O64ed8kHc8YV4k/cFsKP+g1Q86x3e5/sDjDblvj1z3rxpWH5nm4kT/1bRu/xuxDopREuRjB84vX4ONX346m1un41vd+iEMPO8ysA/SKz+Px1BM1kkgSiFYoesY7Nq+zkQz+8fJKfObqn2HipB1x01duwaGHH+5ndXo8nrpkxKWSFjRLGMpQ6LMy+py1ArceZ0ENH4UdOnzfmNVQbD78ltj+978lthB/4PqwR5SVMvrKxTIVXBQvrdiIz37xdiSbp+DGL34FRx/tZ3V6PJ76ZWipN0woCqnkKPDKETMOJAFpncaFdDbYVo73d33oR9hZBgszuHPX6X+9LbGl8FtyfehH2FkGCzO4G/z6W6J/HJtzWxt//4Py2+95ojEsXb4eV332R+jMpfGN7/wAx/qXVHs8njqHssxIsxGhVCrhhBNPxL77bsAhO7UjUSq6MxSS2oYvJQU5hO7VWJLxq63zEwhShTHnnR8nYAN/lfObCb8lxvr1t4TRcgPDh+N35+V03PkRERSp1EqxOH54+wvYa6/98Oh//xU9uTh+deddOOJw/8oyj8dT/4y88jvhRKxY+RdMampDjDHL+jMiNpCftAXN3wp29kR/jPB1zp0PtvK/mfO0Yczfwc7bPf7V4c2xueub7dad17/BzpvoN0e119fhEAN+0ktfeJcq/ePpO9933CHL3u7NX7QeGzdkMWv2DvjFL36GQ994mDnuFZ/H46l3RlT5iSeffBL3zpuHNatXG1tE0Q+m3wZjK71twnAeYLjX2hq29X5qcS+1ThMpzUeffAIzps3EF794o3lzi/CKz+PxjAVGXPmNcHSeOkVW/l/+9jdMbGvD3LlzEY/H/Rifx+MZM4y48hOK0gvC8Y8UoMtnn98ej2csURPl5/F4PB5PPeMHaDwej8fTcHjl5/F4PJ6Gwys/j8fj8TQcXvl5PB6Pp+Hwys/j8Xg8DYdXfh6Px+NpOLzy83g8Hk/D4ZWfx+PxeBoOr/w8Ho/H03B45efxeDyehsMrP4/H4/E0HF75eTwej6fh8MrP4/F4PA2HV34ej8fjaTi88vN4PB5Pw+GVn8fj8XgaDOD/B7IjurNGymPAAAAAAElFTkSuQmCC;" vertex="1" parent="1">
          <mxGeometry x="300.83" y="670" width="351.21" height="220" as="geometry" />
        </mxCell>
        <mxCell id="rraX06ucM7AwQiWW7n5B-12" value="" style="shape=image;verticalLabelPosition=bottom;labelBackgroundColor=default;verticalAlign=top;aspect=fixed;imageAspect=0;image=data:image/png,iVBORw0KGgoAAAANSUhEUgAAAjcAAALfCAYAAACdP+NBAAAAAXNSR0IArs4c6QAAAARnQU1BAACxjwv8YQUAAAAJcEhZcwAAEnQAABJ0Ad5mH3gAAHEDSURBVHhe7d0H3M3l+8Dxm0r2zCxZWRmhhBAiKRlRVlZGRtEg0aaIStoaShIyIlv23lsykpG9skeF/l23y/8neZ7njO855/s95/N+vc7rua77kYx6zvXc3/u+rkR//8MAAABEicT6EQAAICpQ3AAAgKhCcQMAAKIKxQ0AAIgqFDcAACCqUNwAAICoQnEDAACiCsUNAACIKhQ3AAAgqlDcAACAqEJxAwAAogrFDQAAiCoUNwAAIKpQ3AAAgKhCcQMAAKIKxQ0AAIgqFDcAACCqUNwAAICoQnEDAACiCsUNgDjt2bNHIwDwDoobAHFav369mTx5smYA4A0UNwDidOHCBTN9+nTNAMAbKG4AxOnaa681ixYt0gwAvIHiBkCcUqRIYVatWqUZAHgDxQ2AOKVKlcqcPXuWAgeAp1DcAIiTFDdi4cKF9iMAeAHFDYA4XSpuFi9ebD8CgBdQ3ACIU5o0aezHJUuW2I8A4AWJ/v6HxgDwH7J7c/LkSXP48GGTPn16XQUA92LnBkC8Lj2aWrFihf0IAG5HcQMgXpceTa1cudJ+BAC3o7gBEK9LxQ07NwC8guIGQLzSpUtnPy5fvtx+BAC3o7gBEK+MGTPaj9u2bTOHDh2yMQC4GcUNgHhlyZJFI2PmzJmjEQC4F8UNgHhly5ZNIzoVA/AGihsA8bq8t83cuXM1AgD3orgBEK/Li5s1a9aYv/76SzMAcCeKGwDxury4kcKGUQwA3I7iBkC8LvW5uYQhmgDcjuIGQLzSpk2r0UUcKgbgdgzOBBCvEydOmNSpU2tmbHzs2DHNAMB92LkBEK+kSZNqdNHx48fN0qVLNQMA96G4ARCv6667TqP/mTFjhkYA4D4UNwASlDJlSo0umj59ukYA4D6cuQGQIDlUfPk5m2uvvdYcPXrUpEiRQlcAwD3YuQGQoCRJkmh00blz58ysWbM0AwB3obgBkKDz589r9D9TpkzRCADchcdSABIkj59Onz6t2UWZM2c2e/fuNYkSJdIVAHAHdm4AJOjKwkbs37+fR1MAXIniBkC8pIlfXL777juNAMA9KG4AxEsePcVl5MiRTAkH4DoUNwDitW/fPo3+S66D//DDD5oBgDtQ3ACI1+bNmzW6uoEDB2oEAO5AcQMgXhs2bNDo6iZPnmy2b9+uGQBEHsUNgHitWbNGo7j16dNHIwCIPPrcAIjTn3/+aVKlSmU/xkc6GO/atctkzJhRVwAgcti5ARAnGZCZUGEj5Mf06tVLMwCILHZuAMSpTp06ZsyYMZrFT3ZvduzYYbJkyaIrABAZ7NwAuKrdu3f7XNgI2b159dVXNQOAyKG4AXBVr732mka+++KLL8zy5cs1A4DI4LEUgP+Q3jb58+fXzD8lSpQwK1as0AwAwo+dGwD/0alTJ438t3LlStOvXz/NACD82LkB8C/Tpk0zVatW1Swwcrj4559/Nnny5NEVAAgfihsA/+/48eOmcOHCZufOnboSuNKlS5tFixZpBgDhw2MpAP+vadOmjhQ2YvHixaZevXqG758AhBvFDQBLmvCNHTtWM2eMHDnSPPXUU5oBQHjwWAqAGTZsmGnUqJFmznvuuefMW2+9pRkAhBbFDRDjpkyZYu6//37NQuf55583vXv31gwAQofiBohhs2fPNpUqVdIs9Nq3b28+/vhjzQAgNDhzA8QoOQ8TzsJGfPLJJ6Zx48aaAUBoUNwAMah///6mfv36moXXkCFDbBfjbdu26QoAOIviBogxcntJHg9F8on0qlWrTNGiRe1BZgBwGsUNECNGjRplcubMaT744ANdiayTJ0/aG1qyg3T06FFdBYDgcaAYiHJz5syxuzVr1qzRFffJmjWr+eyzz0yNGjV0BQACR3EDRJm9e/eaMWPGmGXLltnxB5s2bdLPuN8jjzxiPvzwQ5M5c2ZdAQD/UdwAUeS9994zL7zwgjlz5oyueE/y5MnNk08+aTp37mwyZsyoqwDgO4obIArs37/f1KxZ0yxdulRXooM8TnvllVdM+vTpdQUAEkZxA3icPIYqVaqUYwMv3SZt2rTm5ZdfNs8++6yuAED8KG4ADzt27Ji5++67zdq1a3UlehUuXNh88cUXpnTp0roCAFfHVXDAw6pUqRIThY346aefTJkyZUy7du24Og4gXhQ3gEfJWZTly5drFjs+/fRTc8stt5iBAwfqCgD8G4+lAA/as2ePyZ07t/njjz90JTZJA0ApcpIlS6YrAMDODeBJXbt2jfnCRgwfPtzceeedZuvWrboCAOzcAJ6zcuVKc/vtt2sGkTJlStvjp2XLlroCIJZR3AAeU7x4cbN69WrNcLmHHnrIfPvtt7YRIIDYxWMpwEPeeust1xY2/fv3NydOnDDz5883Xbp0sUM6w03GTkjPHzmTBCB2sXMDeMSvv/5qbwmFihzKrVq1qilWrJjNL1y4YCeJb9iwwebxqVixopk1a5Zm/zNz5kwzaNAgW3RI4RMumTJlMpMmTeLxHRCjKG4AD5BZUdLjxenJ3unSpTNNmza107grV66sq/9WpEgR22MmPs8995zdVYqPFDpTpkwx8+bNM4sXL9bV0Bo6dKhp2LChZgBiBY+lAA9o0qSJo4VNnjx57I7K77//bg/ixlXYCPl3JyR16tQaxe2ee+6xBZBMKpfvqeRg9EcffWTy5s2rP8J5jRo1Mm+//bZmAGIFxQ3gcr169TLff/+9ZsHJkCGD+fLLL82WLVvsjo0v5JFTQgLZAJaD0U888YTZvHmzefPNN3XVeXL+54MPPtAMQCyguAFcbPz48ebFF1/ULDht2rQxv/zyi2nRooWu+EZmOiXk9OnTGgVG+vYsWbLEZM+eXVecJdPF5cAzgNhAcQO4lBzklccqwZLbQ6tWrbJjC+SMjb/kWnWOHDk0uzonZj1JM75169aZmjVr6oqz2rdvbwYMGKAZgGhGcQO40IEDB+yb/MmTJ3XFf/II6uuvv7aHdy/dgAqUnNGJz6FDhzQKTpo0aczYsWMTPJwcqNatW5vevXtrBiBaUdwALnPs2DFz77332nMxgapbt67955s1a6YrwUnocZFTxc0lcvtKbldJgea0bt26mccff1wzANGI4gZwkbNnz5oHHnjArF27Vlf89/HHH9v+NGnTptWV4CVU3OzatUsj51SqVMlOPS9YsKCuOOeLL74w999/f9BnhQC4E8UN4CIyPmDhwoWa+UeKmblz59qzJU7LkiWLRlcXzC5TfKTLsTxWq1Kliq44R3ruyHmkUP3aAUQOxQ3gEtJPRt5wA3HzzTfb20bly5fXFWdlzJhRo7jJOaFQkB4606ZNc+Rw9ZWkOWGJEiU4aAxEGYobwAVeffVVO/AxENIvZtmyZSZfvny64rz06dNrFLft27drFBpDhgwxHTp00Mw5MhZCDhrLYyq5Kg/A+yhugAiTG009evTQzD/SYE/GGcgspVC64YYbNIrb1q1bNQodacbXqVMnzZwlu2ZSIDZu3Nj+fUix6cQVdwDhx2wpIILWr1/vU5O8q7nvvvvMDz/8YJImTaoroSOFS0LXwV9//XXz0ksvaRZacpvqnXfe0Sx0ChQoYGbPnm0yZ86sKwC8gJ0bIEJkGKZc2Q5E9erV7U5DOAobkTJlSo3iFs5HOjIvqnPnzpqFzsaNGx27Tg8gfChugAh55plnzKZNmzTzXdWqVc2ECRM0C49UqVJpFLdAfi/BkAKnT58+moXOjz/+aK/oA/AOHksBESAzowIZM1CyZEkza9YskyJFCl0Jn0SJEml0dTLaQaaMh5sMAm3VqpVmoSET2YsWLaoZALdj5wYIsyNHjgT0ZizXvSdNmhSRwkYktHsjv6/Dhw9rFj4tW7a0c7NCSWZeAfAOihsgzGQqt789YeRszbhx43y6tRQq119/vUZxi9RVapl43rNnT82cJ3/2ALyD4gYIo6FDh9obTv7q2rWrue222zSLDF8OL4fjOnhcXnjhBfPss89q5qwRI0bQyRjwEIobIEz2799vnnjiCc18J8MjQ/Wm7Y8kSZJoFLdff/1Vo8jo27evadu2rWbOCuXOEABnUdwAYSIFSiBN4V577TWfbiuFmi+PpSK5c3NJ//79TcOGDTVzjjRb3LFjh2YA3IziBggDmY0kj6T8JQ3+AtntCYXrrrtOo7i5obgRgwYNMmXKlNHMOeHorQMgeBQ3QIhJsz6ZXRQI2S1I6Ap2uPiycxPq+VK+kkJs4sSJCXZV9teoUaPMzJkzNQPgVhQ3QIi99dZbAT3OkCGRt99+u2aRd+2112oUt99++02jyJO+O7Jj5stEc380b97cnDx5UjMAbkRxA4SQHCKW4sZfcsZGJoW7iS87N8JNt4py5cplpk6dqpkzdu7cabp06aIZADeiuAFCSAqU06dPa+Y7GQwpt6TcxJedG+G2Q7fFihUz7777rmbOkEPLc+fO1QyA21DcACEis5Y+++wzzXyXKVMmVx5c9eUquJCdDbeROV5ly5bVzBnyeEq6MgNwH4obIES6d++ukX9efvllkyxZMs3c4/z58xrFz03nbi4XSKEZn23btpmHHnpIMwBuQnEDhIDcGho2bJhmvrvpppvMk08+qZk3ubW4KVSokOMHtOfMmWNefPFFzQC4BcUNEAJ9+vTRyD9uO0R8uQsXLmgUPzc3uqtevbpGzundu7dZtmyZZgDcINHf/9AYgANkKGbmzJk1853c7HFLE7yrue+++3y6eZQ/f36zceNGzdzl4MGDpnjx4mb37t264oy8efOazZs3awYg0ti5ARz2/vvva+QfOfTqZr6euZGD1G4lPW9GjhxpUqZMqSvOkGno77zzjmYAIo2dG8BB0o1Ydm1OnDihK75Jnjy52bt3r0mdOrWuuE/FihXtGRNfyO6V083znLRq1Spz7733msOHD+tK8OTvTnr8uPn3DcQKdm4ABw0YMMDvwkY0adLE1YWN8Of7IKcf+zhNHk3Jo7NOnTrZwtIJx48fN++9955mACKJ4gZwUKCPJtq0aaORe/n6WErs2rVLI/e64YYb7N+XFGIysd0JX375pUYAIoniBnDIDz/8ENA16CJFitidBLf766+/NEqYPGLzirRp05q+ffsGdHX/SjJuY/To0ZoBiBSKG8AhgX7X3qJFC43czder4ELe5L2mQYMGpmvXrpoFbujQoRoBiBSKG8AB+/btMxMmTNDMPzVq1NDI3f744w+NEualnZvLvfnmmyZ79uyaBcbpQZ0A/EdxAzhg0KBBGvknd+7cJk+ePJq5m9wE85UXztzE5ZVXXtEoMHKgfNasWZoBiASKG8ABAwcO1Mg/VapU0cj9zp49q1HC3DqCwRfyeCpY06ZN0whAJFDcAEFau3ZtwI3rSpQooZH7yVVnX3nxzM0l0uBPeuAEY+nSpRoBiASKGyBII0aM0Mh/clPKK/wpbrx65uaSO++8U6PAUNwAkUVxAwRp+PDhGvkv2MOr4fL7779r5Luff/5ZI++R+VjBkHM3bh5DAUQ7ihsgCPJISlruBypZsmQauVsgk76XLFmikfc4MXtqw4YNGgEIN4obIAjjxo3TKDDXXXedRu4WyMTrwYMHa+Q9J0+e1Chwv/76q0YAwo3iBgjC5MmTNQrMkSNHNHK3devWaeQ7uQ7dv39/zbxFpnwHi+IGiByKGyBAUpgsXLhQs8DI9GwvCLQxXfv27e3cLCd2QsJp0qRJGgVu27ZtGgEIN4obIEA//vijRoEL5rxOuKxcudIsW7ZMM/99/vnnpmDBgqZVq1Z2RMWxY8f0M+70wQcfmBUrVmgWuEOHDmkEINwS/f0PjQH4oXXr1mbAgAGaBaZZs2bm66+/1sx9ZMelbNmy9uC0k7Jly2a7M994440mR44cJnPmzCZLliwma9asdlp3xowZbR5Ohw8fNq+//rp5//33dSU48vvj0RQQGRQ3QIAKFCgQ9HVfeQN3Y08YeaOfO3eunbUUzK6N0zJkyGCneKdJk8akS5fOvtKnT2/XkyRJoj/q31KnTm2LJimYjh49an9v8pJGgzITTP785TaY012V5dcWyBV6AMGjuAECcPDgQZMpUybNgjNy5Ejz8MMPaxY6MhtK3sT37Nljdu7caXbv3m3+/PNP/ayx8fr1682aNWsCuvqN/+LLKxAZFDdAAL7//nvHCpLixYvbcy1Oky65ixcvtoee5SMFS/hJMz8neuYA8A/FDRCATp06mXfffVez4MlU8aZNm2oWmHnz5pmZM2eaOXPmMJXaJeTxlzw2AxBeFDdAAO655x7HCwg523LHHXdo5puxY8eaMWPGmNGjR9tdAriLPPqTw9MAwoviBgiAHBaVw6lOkjfBVatW+XSW55133jF9+vThurHLSa+bnDlzagYgXOhzA/hJbtU4XdgIOehbq1YtzeIm52eee+45ChsP+OOPPzQCEE4UN4CfnO75cjkpXJ5//nnNrq506dL2cVT16tV1BW6VODFfYoFI4LEU4Kd+/fqZZ599VrPQkA65JUqU0CxuW7dutVfJ5Qr3xo0bXdWTJlDlypUzFSpUMLfccovJnj27ueaaa8z58+ftqAp57dq1yz6+kxtmbp/NJTfUbr75Zs0AhAvFDeAnmZcU6oGQNWrUCGji+NmzZ+3uz/Lly20BILtMP/30k37WvR577DF7tV6KmhQpUuhqwoYMGWI6d+5sm/G5kTQIDHenZQAUN4Df7r33XjN9+nTNQsep/zWl4JEiR3Y6pKPyzz//bGdaya5PJEn/lw4dOphnnnnGdg8O1KlTp0yLFi3MiBEjdMU9uAoORAbFDeCnXLlyme3bt2vmrGLFitmmfpUqVTJNmjTR1dCRbsQbNmywxY9M/nZiYKQv5Cr90KFD7Uwpp3Ts2NF8+OGHmrkDX16ByKC4AfyUKFEijZyRNGlSO4SzTZs2plChQroaGTJvSfr3LFiwwEyaNCkkuzstW7YMeuBoXBo0aGCGDx+u2UUyh6pmzZrmrrvusvPAzp07Z2+8SYG6ZMkSs2jRopD0CEqWLJk5ffq0ZgDCieIG8MPx48ftm6VTunXrZrsdy+BHN5o2bZrp27ev+fHHH3UlOCVLlrRjIUJJzirNnj3b9pipXLmyadSoUYKPhuQxo+wkDRw4UFeCd9NNN9kZXgDCj+IG8MMvv/xi8uXLp1ng7rzzTjtyQXYSvEBGOsiB32B768i5H3ns5lZy40zO78huTrAKFy5s1q1bpxmAcKIJA+AHJxrnye0eeRzilcJGyC0m+TWnTZtWV/xXpEgRVxc2Qv5OZNBo7969dSVwHCQGIofiBvCD9FsJxpdffmnefvttzbwld+7cQZ2VqVq1qkbuJ40U586dq1lg5LEUgMiguAH8EMxhYhmKKY88vKxu3bp2ByYQckPKS8qXLx9Qr6FLaN4HRA7FDeCHYNrpyzXvaPDkk09q5B8nziqFmzRTDLQgzZEjh0YAwo3iBvCDjAII1O+//66Rt8nB4kDIOAUvevnllzXyD8UNEDkUN4AfkidPrpH/pGFeNJCDsv4+cvHyG33OnDkD6qCcJ08ejQCEG8UN4AdpzBaoX3/91Y4+iAb+3vQK5paVGwTSh8iLj+GAaEFxA/jBn6GOV/Pdd99p5G0yrdsf0oXZy/xtAUBhA0QWxQ3gh2CLm08//VQjb/N30rWXi5sDBw5Q3AAeQ3ED+CFVqlQaBebgwYNm5MiRmnmXvyMonJ7HFU4yysFft912m0YAIoHiBvBTsIdjX3nlFXPhwgXNvMnfg9Vnz57VyHu+//57jXwnPY0ARA7FDeAnuT0TDJlfNGzYMM28yd+D1X/99ZdG3iLTwgNp5CcDQgFEDsUN4KdgixsRaO8Ut0iSJIlGvjl9+rRG3vL555/7veuUNWtWc+ONN2oGIBIobgA/5cqVS6PAbdu2zfTr108z7/G3meGRI0c08pa+fftq5LtKlSppBCBSKG4AP91+++0aBadnz57m2LFjmnmLvzs3+/bt08g7Pv74Y7N3717NfEdxA0QexQ3gp7vuukuj4Bw+fNj06tVLM2+5/vrrNfLdyZMnNXI/eRT1xhtvaOafihUragQgUihuAD/J+IG8efNqFhx5NLV7927NvCOQ4sZLv89XX301oN0mOY/l1RlaQDShuAECULZsWY2CI7eIOnXqpJl3BDKGwivFzZIlS8xbb72lmX/q1q2rEYBIorgBAnD//fdrFLzhw4ebyZMna+YN1157rUa+27lzp0budfToUdOgQQPN/FezZk2NAEQSxQ0QAHkTS5kypWbBa9OmjTl16pRm0emXX37RyL0effRRs337ds38IyMp7r77bs0ARBLFDRAAmZVUq1YtzYInuxqdO3fWLDpt2LBBI3eS3kOTJk3SzH9NmzbVCECkUdwAAapdu7ZGzpChmmPHjtXM3f7++2+NfOfm4mbAgAEB3466pEmTJhoBiLRE/3yR8v+rFABLOtHu2bNHs+ClTp3arF692pFGgaG0cOHCgA5Vu/HLzYQJE0yNGjU0C8x9991npkyZohmASGPnBghC165dNXLG8ePHTZ06dVw/ruD8+fMa+WfNmjUaucOCBQtM/fr1NQucDEMF4B4UN0AQOnToYG666SbNnCE7N9WqVTNnzpzRlegxb948jSLvxx9/NPfee2/QhaT8HE41dgTgDIobIEi9e/fWyDlSBLi5Z8q5c+c08o9bipvvvvvOkQJSGjoOHDhQMwBuQXEDBEmuD4dinpD0vpFHVG4U6GOpOXPmaBQ5cnC7YcOGmgVnxIgRTAAHXIjiBnDAkCFDTMaMGTVzzpgxY+ysIjmL4yZ//PGHRv7Zv39/RG9NyRmpdu3aaRa4e+65xz7Wqly5sq4AcBOKG8ABWbNmNd9//71mzpLdjnLlyrlqsrYMlgzUzJkzNQof+fXKY74+ffroSmA6duxox0jMmDHDVK1aVVcBuA3FDeCQ8uXL20GYobBu3Tpzxx13mFmzZulKZAUz4VuuXofTwYMH7d/N6NGjdSUwciPq/fffN9myZdMVAG5FcQM46Omnnw5ZC37ZMZDHIfJYJZjiwglHjhzRyH/SD+bw4cOahZaciSlUqJBZvny5rgQmf/78pnv37poBcDuKG8BhX331VUBTs30lB2ILFiwYssdgvpCzM8EYNmyYRqGxa9cuU716ddvDRnZugvX6669rBMALKG4Ah+XJk8e8+eabmoWGvHk//PDDdkdh0KBBuho+wU74fueddzRynjwalD+XYOZEXS5nzpzmkUce0QyAF1DcACHw1FNPhaWx2+bNm03z5s1Njhw5TI8ePRwdBREf+fcGY8eOHebbb7/VzBkjR440t9xyi3n22Wcd7fAs/XAAeAuzpYAQkVEDxYoV0yx8pOeOFDwyLyldunS66pwTJ07YGVjByp07t/n11181C5ycp5GJ6qHqoTN79mxToUIFzQB4ATs3QIjcdtttpkWLFpqFj9yoatasme2eK7tHMu162bJl+tngyQ6JE7Zu3WpvHwVKzhzJ4e2SJUuGrLCRApHCBvAedm6AENqyZYvJmzevZpGVMmVKWwjceeed9lWiRAl7nsQf27Zts9PA9+7dqyvBGzt2rKlZs6Zm8fvtt9/sYWQ5VL19+3ZdDY2bb77ZzvkKxe4XgNCiuAFCTHZRvvnmG83cRR4vSf8cKXTkzVyGgGbPnt0WPTfccIP+qIt++OEH06ZNG3PgwAFdcU7jxo1NkyZN/tUYT245/f777/Y1f/58M2rUKLN06VL9bGilSZPGTgyXa+QAvIfiBgixn376yRQpUkQz70iRIoW59dZb7bX2lStXRry3TrjI73f69OlM+gY8jOIGCAO5Hi5nTOBusls1depUU7x4cV0B4EUcKAbCQB65wN3kALgcvKawAbyP4gYIg06dOpk6depoBrd57LHH7OFhfw9YA3AnihsgDFKlSmWvLsvwRrfcnsJFn3zyiR2ZASB6cOYGiIAvv/zS9O3b12zYsEFXEG5ZsmSx19DlWjyA6EJxA0TQ4sWL7c6BXHM+c+aMriLUmjZtamdQSaNDANGH4gZwAblm/d1335mPP/7Ynv1AaMjIhy+++MLcc889ugIgGlHcAC4jN3bGjx9vJk+ebOcmwRmvvvqqee211zQDEM0obgAXO3TokC10Jk6caIsdJ6ddx4r777/fPvrjJhQQOyhuAI/4448/zLRp08yYMWPMuHHjbOGDuEnjRDlXI8MvAcQWihvAo1asWGGnYcvcpXnz5lHsqIwZM5pu3bqZZ555RlcAxBqKGyBKrFu3zg57nD17tpkxY0bMFTuZM2c2zz//vGnbtq2dDwUgdlHcAFFq06ZNttCRszoyLylar5pnyJDB7tS0b9+eogaARXEDxAhpWDdhwgTbU+fo0aO66l0333yz6dy5s2nZsqVJnjy5rgIAxQ0Qk6ZPn27HQQwfPtwcOXJEV72hevXqdhZU3bp1dQUA/o3iBohxcgNLdnOGDBliTp06pavuUqFCBVOrVi3TrFkzugoDSBDFDQDr7Nmz9pq5zL2SA8mRIjOf8uXLZ0qWLGnuuusuU7lyZZMmTRr9LAAkjOIGwH/s3LnTfPDBB+azzz4zJ06c0NXQKVasmPn666/NbbfdpisAEDiKGwBxkhtWn3/+uS10tm7dqqvOuuWWW8yaNWs4FAzAMYn1IwD8h1ytfuqpp8yvv/5qz+Xceeed+hnnvPjiixQ2ABzFzg0Av0yaNMl06dLFrF+/XleCI4+9UqZMqRkABI/iBoDfTp48aapVq2Y7IgdD5j9t2bJFMwBwBo+lAPhNdloGDhyoWeCyZs2qEQA4h50buIL0V1m+fLkdBrlv3z67M3D5Sw62Hj9+3MbyYy99vFK6dOmu+pLeKPJGKjsFuXPnNgULFtR/AsGQidvS9ThQ99xzT0SvnQOIThQ3iAi5aixvigsXLrRFzcaNG/Uz4XPTTTfZYkdeBQoUsH1V5MAsh1t9N3jwYNO0aVPN/Fe+fHkzd+5czQDAGRQ3CBsZ4jhu3Dg7xNGpw6ihID1XpNApU6aMKVWqlLn11lv1M7jS3r17TbZs2TTzX+nSpc2iRYs0AwBnUNwg5GR+Uffu3c2GDRt0xVtk6nTZsmVNuXLlTKVKlcwdd9yhn4HImTOn2bFjh2b+KVy4sFm3bp1mCKWffvrJyJf7IkWK6AoQvShuEDK7du2yww2XLl2qK9FBms7Vr1/fNG7c2D7OinUNGjSwBWwgZNdn9+7dmiFUZLf0vvvus7GcOXvzzTdNvXr1bA5EI25LISTkDI3scERbYSPk6nLPnj3toWQ5oxOuEQVuFcxOwJ49ezRCKPXr108jYztNS3FepUqVgHfcALejuIHj5I2+YsWKZv/+/boSvZYtW2batm1rhz22adMmZCMK3KxQoUIaBSaWC8NwkNEZU6ZM0ex/5JZa8eLFzZw5c3QFiB4UN3Dcq6++GhOFzeVOnz5tZzDJzSs5XxRL5PccDB5Lhc4zzzxjx2fE5ciRI/YbkS+++EJXgOhAcQNHSS8aeUwTy1577TX7HbHMY4oFOXLk0Cgw27dv1whOkB5QAwYMsLf83nvvPV2N3+OPP25efvllzQDv40AxHPXDDz+Yhx56SLPYljp1avs4QK6URzsZsHn27FnN/COPTTp06KAZ/CHNLX/55Rd7DmzVqlX2NXPmTLseiNq1a5shQ4bQ6wmeR3EDR8ktjBdeeEEzpEiRwvZxifbrt3LrSXreBOKxxx4zX331lWa4nDze/e233+zH33//3b4OHTpkr8+vWbMmJAeCpffQ5MmTTdq0aXUF8B6KGziqV69e5sUXX9QMQhoCRuOtsctJ8SZ9VAIhnaKlY3WskVYJUhDKmSN5SSx/DhJLQSM7MpFStGhR8+OPP9qD8oAXUdzAUfKsv3Xr1prhEnmjkv440equu+4KqtOw7BTIlPFoImeu5LV582azbds22x7hUkFz8OBB/VHuJc0Zp0+fHvSBcSASKG7gKPlCnj9/fs1wiTx2kccv0eree++1b4SBypUrl1m9erU9p+R2cjNOihYpVOTqv/Tqkd0WGfh66RUttwUzZcpk/17pagyvobiB426//XazcuVKzSCi/VyJdL+VLrjBuPvuu8348eMjVuDIeRbZVZHC5NLHAwcO2I/ykgJGzrgcO3ZM/4nYkCZNGvP999+bypUr6wrgfhQ3cNyIESNsB1T8j7xByHf0SZMm1ZXoEuzOzSWZM2e2Z7Zq1aplbr75Zl0NnBQiR48etS+JZZdFdlwuvSSXF516EyYtHuTKOOAFFDcIiYcffth+t+c2sqvUqFEjU6FCBfvmmTFjRnseRh4vyK935MiR9o0wFKRRWqtWrTSLLrLrMm/ePM2ckS5dOvv3JWMu0qdPr6v/JY3o5AaRvC7dKJI1ecFZ0qBT+jgBbkdxg5Bp1qyZ+eabbzSLHDnI27BhQ1vU+DLoskePHvaLuNOk2V20NqzjUWTsePTRR823336rGeBOFDcIKRlJ0Llz57DPD5JDzXL7RoqaUqVK6arv5MCoNDQL9HpzXD766CPzxBNPaBY95GYNj3Zixz333GMmTJhgmzcCbkRxg5CTdvDyvP7TTz+1nVRDoWzZsvYl3YDLly9vMmTIoJ8JnPy6pTiSL+JOkcdgUjilSpVKV7xPOhPzJhd7HnzwQXsAHHAjihuElZzLkNfixYttoSM3UGQeVXxSpkxpr6RKF1xp+JY7d257dVj6b8iOgcShJLdEpKW9U2SQoa8zf7xg7ty59gwTYk+3bt1s407AbShuEHHSN0Rursh12/Pnz9s12QmQmzNSvESaFF/FihWzjdicsmTJEnPnnXdq5m1NmzY1gwcP1gyxRh7dFipUSDPAHShuAB8MGzbMHkh2iuw2yUiGG264QVe86a233jLPP/+8Zggn+QbgkUcesTfVChcubF8yy+wS+aZBbgKuWLHCPlodM2aMfsZZTZo0ccXFAeByFDeAj2TejgwsdIqcD1q4cKFm3rJp0ybz+uuv2wnS8J/s2lWtWtWeD0uSJIltFrh27VozdOhQn3YIpahs27atX2e3ZGe0X79+9lD7qVOndNUZMk7C64U6oowUNwAS9s8bg3wj4OirWbNm+rO73+LFi//+p6D5+4477rjq74VX3K8MGTL83apVq78nTJjw9z+Fhf6JXl2fPn2u+nPIK3369H8vX75cf2RgDh8+/PfTTz991Z8/0NfAgQP1ZwfcgZ0bwEcysdmJrrlXkn5AX3/9tWaRJY8yfv75Z/t7lY7KchZKHp/JGaFwX+f3urRp09rHRtKt29/RBdKl+WoHdYcPH27q1aunWXCkaaU023SC/D6lMzngFhQ3gB+kEd9vv/2mmXPuv/9+O3sqS5YsuhI6MqBy1apV9rba5V19JQ/F7y1WyGgN6akkZ2AqVqxoe8EEQ/75WbNmaRaaJpDPPPOMIzf3smfPzn87cBWKG8AP8qY1Z84czZwl5ydkwKZ8F1yuXDld9d+GDRvsFXvZdZEBkBLL/CR5Y5SiBsFLnjy5KV68uD3Ee+utt9oOzdJnyUmHDx82VapUscWoCMX4DunlJO0VnBgGyrkbuAnFDeAHecQQju13maskB5iF3IC58cYb7a5O4sSJ7dqFCxfs7KRLc5TkjVCaA8pH+EdurhUpUsRe95c/Z9mFuLIpYaJEiezwU/l7kTlX4WrCKAd/ZRSI/N1Lp+9QqF69upk0aZJmgVu0aJEpXbq0ZkBkUdwAfpCxDps3b9YMXiLNH2UIp+y0yEfpzSKvy69PxyLZLXTizJcU/bLrCLgBxQ3goz59+piuXbtqBjeTrtZ33XWXfcl1a9lRkEdJ+K+aNWs6MkZBxqu0adNGMyCyKG4AHwwcONC0aNFCM7jRAw88YF9S0Mh5GPhGbgDK7bhg9e7dm4aOcI2LD/ABxOmVV16hsHEhOfdSt25d8+2339pr6hMnTrQT1ylsfCcdjJ0obMS1116rERB5FDdAHOSArgyElE68cAeZ9t6+fXszffp0O/Nr1KhR5tFHH7WPoeC/Tz75RKPgSV8fwC0oboAryA2V1157zdxyyy124jUir3HjxubHH3+0fXk+/vhjv5vi4b+kTYCck3GK3CQD3ILiBlDSnVfm7sgk8u7du+sqIkWuXL/zzjvm6NGjduq4zGKCc15++WVz9uxZzYInu2qAW3CgGDFPpiZ//vnndgik0wMFEZiOHTuaHj162N4ycN6CBQuCahR5NTKYM1OmTJoBkUVxg5glfTnef/99z07mjka1a9e2j0oyZ86sK3CaFPDSWdnJUQ7SmVg6FANuwWMpxJQZM2aYdu3a2S/G0m2YwsY95HDrmDFjKGxCrGnTpo7PqJLuzoCbsHODqCbb7zJ8cN68ebaQkVk6cBe50i2HhcuUKaMrCJWePXual156STPnPPfcc+att97SDIg8ihtEFZmtJDecJkyYYEaPHm0Po8J3WbNmtbtacpj3cnLwdMmSJZo5R2Y4ybVuabyH0ApVYSNkRzTYKeiAkyhu4FnSgEx60axfv96sWbPGLF682K4hbjIUUmYsSVda+Sg3w+TKu8TZsmXTH3V1Mlzyp59+0swZMrDx/vvv1wyh0qtXL/Piiy9q5qzUqVM7MlUccBLFDVxHus3K4UR5SV+TS68DBw6YDRs22MGVmzZt0h+Ny8n8JDksKsMhCxQoYIsZKWTkY44cOfRH+U+KR6fPVUgvIZl4jdB69913TadOnTRzngzLlMP5gJtQ3CAi5OyLnLOYPXu2fdwhOzC///67fha+uP322/9/unXRokVtnCtXLv2ss2T8hMzXcooMs6RBYuh16NDB9m4KJRl/IV2iATehuEHYyM6LFDM//PCDGTZsmK4iIdL59e6777Yzk2677Ta7K5MvXz79bOjJ7CHZ/XGKjEqQR4lO/pz4t61bt5rmzZvbg/ShJGezdu/ebZImTaorgEtIcQOE0tq1a/+uUaOGFNG8/HjVq1fv75kzZ+qfYuTIr+Nqv75AXx988IH+zAiFvn37/v1PsXHVP3unX506ddJ/K+Au7NwgZPbs2WMPMX799de6Al9IHx75c7vxxht1JXJkp61SpUqaBU/OA61bt04zOGn58uWmbdu2tuN2uMgBfjmQDrgNTfzgODk78/TTT9s3Zwob39WsWdM2V5Nmdm4obMSTTz6pkTP69OmjEZwiRU2tWrVMyZIlw1rY3HvvvRQ2cC12buAoOUvx4IMPOt4BNZrJPJ4vv/zS/rm5iRSmjz32mGbBk1420lQRzpg6daq9CSUH8yNhypQp5r777tMMcBeKGzhGvsjKtVC5yg3f1K1b185SksZ5biJN+/LmzWt27dqlK8GTN2P5bh++27Ztm328+9dff5k//vjDdtmWR4WRvmkmDfukcR/gVhQ3cMQHH3xgnnrqKc3cSzriyi0daV4n16Yvn2MkvXQ+/vhjzUJLCocPP/zQtd/5du3a1dFHSPLIZOnSpZrhclK8LFq0yBYuq1atsrncLDxy5Ij+CHfJmDGj/buU/4cAt6K4QdCcfnzhBLk+XapUKVOiRAlzxx132A68N910k8mQIYP+iKsbPHiwHSwYSs8884x9nOBWcm5D/sycJNf/5VxIrJOCRa5ny5+xnJVZuXKl2bdvn37W/eQRquzYyMFwwM0obhA06b+yevVqzcJP/v3S+0XGA0gsH2VGUiBkhEOoBjimTZvWDB061PXjBmSXRd54nSJ/N3IWKxbJWAIpBuRRkry8fFNMvlH4/vvv2bGBJ1DcIGhysLB169aOns+IixQuUnzI4VQpZKQzr5N69+5tunXrpplzZBSCzFEKVQdhp3z22Wf2OrGT+vfv7/jP6WYyf0v+ridOnBg1XZiff/55+/8G4BUUN3CEHECVNu8yoM+JswJywDZPnjz2qql04y1durQtalKlSqU/wnly1kGKJ6fHQMjhS3ksE8pfuxPkILg8vpOzR06R3/PevXtNihQpdCX6yNyt+fPn250ZeeS0f/9+/Yz3SXsC+X9aRnwAXkJxA0fJzCjp0zJhwoT/tH6XoY5p0qSxL5kkLAWMPD6Sni5ZsmSxU6nlXEz+/Plti/5wkxEHTrerb9asmWd6/Tz77LOmX79+mjnjiSeeCPlso0iQszLyiHHIkCGeOjPjC/n/UW49Nm7c2M4vA7yI4gb4R8uWLc1XX32lmTOky/Abb7yhmbtJp9lQzKuSRzTR8l2/7GgNGjTIDBgwwGzcuFFXo4PMhpKCRorxypUr6yrgXRQ3iHlyHkTOmjhJCiW33SCLTyiKO7lxtWzZMs28a/Lkyeabb74x3333na5EhypVqpiKFSuacuXKmQoVKugqEB0obhCzzpw5Yxo1amTPwzhFHrONHTvW3jjyioMHD9orvk57//33TceOHTXzDrnhNGvWLDNq1Cgzfvx4c/z4cf2Mt8kjJpkTVq1aNXZnEPUobhCTpPNrnTp1HL3CLje4pFCSJmdeIo/P5NCo06QRnRf+LOQw/Jw5c+yV7ZkzZ4Z1PlOoyGOmO++80+7KlC1b1pQvX971B9oBJ1HcIOZMmzbNni+Q79Cd0r59+7B1N3aadGmWQsRJ1atXt4fKw0X68mzevNns3LnTHlSXQrNgwYL62X/77bff7OMyeUlfIylsvE52CuUl7RFkh0Y+ArGM4gYxJRRjIuSQaai7GoeKPEKrXbu2Zs6RTs9y2yaURo8ebXvoTJ8+XVf+7fHHHzcNGzY0v/76q9mwYYM9BCy3nORquldJI0g5yyQv6RIsr9tuu00/C+ASihvEBNlFkHlJTnbKlU6t8hjKy28uMhJh3LhxmjlHzqmE6jGIHP6WuVfyaDGaSTsEebQkOzGXRom4vQkk4BYUN4hq0phPbkPJwVAnyQgF6XMi30l7lRQg0nPIaQ8++KDjf97iiy++sOeD5AB0tJH+TlIky+Mk2ZWR6/PSwBJAYChuELXeeust89prr9lbUU56++23TefOnTXzrhEjRpj69etr5hynH9MdPXrUnpGK6/GTl8hulowMkXlbl+ahSTETiiITiGUUN4g68ubas2dP25jOSdI5efjw4VFzxkGuwQ8bNkwz50jHXjmk7AQZhSG9WLw4cPLSeRgpYKSgkd2Ym2++WT8LIJQobhAVZHdm4MCBdrif3JhxmowReOedd+wV22ghPXmcHh0gb+DSldgp0pdFZjZ5gdxWklta0hBPXunTp9fPAAg3iht42tKlS23nWLmd4+TAx0vkO+0vv/zSdnONJjt27LAHop0mN9Hee+89zYIjM7nc2OVZHiFdOhtz6ZwMgyUBd6G4gafIYdKtW7eaSZMm2QO9W7Zs0c8475lnnrGPt5IlS6Yr0UP+7B599FHNnCNXy2WStBPkGnekRx5caoYnN5ZkKr0UMhz0BdyP4gauNn/+fLNgwQKzaNEi+zEUuzNXkrMSMmfJSyMU/CUHovv27auZc5y8Ai4dpMeMGaNZeMhOnXT1lcdLUszI9WsA3kNxA9eQczPz5s2zZyzkoxQ24SRnJLp3726efPJJXYle0kFYdr+cJIdm16xZo1nwQnWb63I5cuQwVatWteMJZN5StmzZ9DMAvIziBhElAwrliq8UNAsXLtTV8JNeOPIIKlYOgcp5Gzl346RQjKC47777zNSpUzVzhhQzDzzwgP25CxQooKsAognFDcJu7ty59rCoXKs+ffq0rkaGjB6QoZFxzSGKVokSJdLIOXKtvEGDBpo5Q66CyyOiTZs26Yr/5Cq5HAiXx03S6TeabrwBuDqKG4SFPAKRrrUyD8jpIY2BkO/a33zzzZgcMLh7927bEddp27dvt495nHby5EnTsWNHe9XfV1LEyG6cNP9LkSKFrgKIFRQ3CBn5rlvekGRYpUxidgMpal566SX7XXysWrVqleMHZdOlS2f/vkNJDpV/+OGHCTYejJYO0gACl1g/Ao6RXRqZvZQhQwb7JuOGwka68cph1ylTpsR0YSP279+vkXOKFSumUejI7aVL1/87dep01dtsMvaBwgYAOzdwzLRp08wbb7xhz9S4gfSnadOmjX0jDMVjGK+S69VyzdpJTjbvA4BgsXODoMncH2lyJrdQ3FDYyFwjeTSxd+9e069fPwqbK5w7d04j54Rj5wYAfEVxg6BIXxjpb7Jy5UpdiZyyZcuaAQMG2HlJ8miCSctXF4riJm/evBoBQORR3CAgcuNGbhq99tpruhIZsmMkuzQyLFOa/rVs2VI/g7gkSZJEI+cwkgCAm3DmBgHJly+f+eWXXzQLL2m8JnOR5JUrVy5dha+kaeK9996rWfDkbFOk+xUBwOXYuYHfpC1+uAsbOdPx8ssvm9WrV5sNGzbY69wUNoFJnTq1Rs6QQhcA3ITiBn4Lx5uZDDCsW7eu+fzzz+0ZGunN0qNHD3Pbbbfpj0Cg0qZNq5EzMmbMqBEAuAOPpRAQufYtHWC3bt2qK4GRN9oiRYrY8zsyAkFiKWBSpkypPwJOkw7RcqPMKVKEjho1SjMAiDyKGwTl559/tlfBZfaPPKqSg8YXLlyws4vk8YcUL5decnvp0kdp8JcnTx6TPXt2/ZkQTk7OlmrdurXdYQMAt6C4AWKQk8UNDfwAuA1nboAYdOONN2oUvFBcLQeAYFDcADFIrtM7JXFivowAcBe+KgExSA5uOyUUHY8BIBgUN0AMcrK4+fPPPzUCAHeguAFiEMUNgGhGcQPEIIobANGM4gaIQUmTJrV9hpxw6NAhjQDAHShugBjl1O6NjMcAADehuAFiVNmyZTUKDsUNALehQzEQo9avX28KFy6sWXD4MgLATdi5AWJUoUKFHJvovXz5co0AIPIoboAYVrNmTY2Cs3LlSo0AIPIoboAY9sADD2gUnEWLFmkEAJHHmRsghp06dcqkSZPGnD9/XlcCc8MNN5gDBw44Om0cAALFzg0Qw1KkSGHKlCmjWeCk1w27NwDcguIGiHFOPZoaMmSIRgAQWTyWAmKc9Km58cYbzYULF3QlMEmSJDHbt283WbNm1RUAiAx2boAYlyVLFlO9enXNAiczpt544w3NACBy2LkBYCZOnGgefPBBzQJ3zTXXmJ9++skUKFBAVwAg/ChuANgOwzlz5jS//fabrgROxjrMnz9fMwAIPx5LAbBXuNu0aaNZcBYsWMDhYgARxc4NAOvw4cP2/M25c+d0JXCpU6c2Gzdu5HAxgIhg5waAlSFDBlO7dm3NgnP8+HHTqFEjzQAgvChuAPy/p59+WqPgzZ4923z44YeaAUD48FgKwL/ceeedZtmyZZoFR25PTZ482dx77726AgChx84NgH956aWXNAqezKx66KGHzNq1a3UFAEKPnRsA/5E3b16zZcsWzYKXOXNmO3sqV65cugIAocPODYD/6NSpk0bO2L9/v7n77rvNrl27dAUAQoedGwD/cfbsWbvLInOnnCSNAufNm2duuukmXQEA57FzA+A/kiZNavr06aOZc2Swpuzg7N27V1cAwHns3ACIU8mSJc3y5cs1c06+fPnsVXGa/AEIBXZuAMQpVH1qNm/ebO655x6zY8cOXQEA51DcAIhT6dKlTYsWLTRzloxnCNXOEIDYxmMpAPE6deqUufXWWx2ZGB6XMWPGODb6AQDYuQEQrxQpUpiRI0eaxIlD9+WiTp06pnfv3poBQHAobgAkSEYy9OzZUzPnyQZyt27dTPPmzXUFAALHYykAPnvwwQfNxIkTNQuNIkWKmLFjx9LNGEDA2LkB4LPvvvvOFC1aVLPQWLdunf13jBgxQlcAwD8UNwB8ljJlStufplixYroSGidPnjT169c3HTt2NOfOndNVAPANxQ0Av6RLl86OUJDiI9Skz85dd91ldu7cqSsAkDCKGwB+kx0ceUT1xRdf6EroLFu2zOTPn9+89dZbugIA8eNAMYCgLFq0yF7ldnrI5tUUKlTIFjkPPPCArgDAf7FzAyAoZcqUsYeA77//fl0JnfXr15vq1aubypUr2xgArobiBkDQbrjhBjNp0iTz5ZdfhmUY5syZM03hwoVNu3btzKFDh3QVAC7isRQAR505c8b069fPvPHGGzYOtWTJkpmnn37adOnSxaRNm1ZXAcQyihsAIbF3717TuXNnM3ToUF0JLSlsXnzxRfPUU0+Z6667TlcBxCKKGwAhtWrVKlvkyKOkcMiRI4d58803TcOGDXUFQKyhuAEQFlOmTDFdu3Y1a9as0ZXQuu2220zfvn3t4WMAsYUDxQDColq1anYXZ/Dgwebmm2/W1dCRIqpKlSr2Jf9eALGDnRsAYXf27FnTv39/07t3b3PgwAFdDa3atWubXr16mYIFC+oKgGhFcQMgYv744w97fbxPnz7mt99+09XQSZw4sWnatKnp0aOHyZ49u64CiDYUNwAiToZjfvPNN/Yg8JYtW3Q1dK6//np7fVxuV6VKlUpXAUQLihsAriJFTs+ePc3mzZt1JXTSp09vXnrpJfPMM8/oCoBoQHEDwJVGjx5tGwGG4zBw5syZ7S5Oq1atbFNAAN5GcQPA1eQKuRQ5CxYs0JXQyZIli3nhhRdMmzZtTJIkSXQVgNdQ3ADwhFmzZtmDxz/++KOuhI7s5HTo0MG0b9/epEuXTlcBeAXFDQBPWbx4sd3JmThxoq6ETtKkSU2zZs3ME088YYoUKaKrANyO4gaAJ8lZnNdee82MGzdOV0LrrrvuMi1atDC1atWyU9ABuBfFDTzp1KlT9kbNkiVLzPnz5+1jhPz585vy5cvbl3zHjdiwY8cO88UXX5jPP//cHDx4UFdDS/4bq1u3rt3VYRI54D4UN/Ck119/3bzyyiua/ZvcdmnUqJHp2LGjKVq0qK4iFgwbNswWOnI+J1weffRR07x5czvmAYA7UNzAk2bMmOHTm8mzzz5rz2dwvTe2rF271vTr1898/fXXuhJ6cvC4Zs2a5uGHHzYVK1Y0KVOm1M8ACDeKG3iWvIl8//33msUtR44cZsCAAXxnHYP2799vC5yhQ4fagiecSpcubSpUqGBKlChhJ5TLY1MA4UFxA886cuSIfePYvn27rsRPutC+++67miHW/Pzzz+bbb7+1hY6c0wk32T0sWbKkKVWqlH3J7k6GDBn0swCcRHEDT/vll1/MHXfcYY4fP64r8ZOzOEOGDNEMsWrhwoW2OeDWrVttobNy5Upz+vRp/Wz4FCtWzFSrVs3cf//95u6779ZVAMGiuIHnjRkzxtSpU0ezhMmbifwz3KjC5davX2+vly9fvvz/P4az4JEBnpUrV7aFTrly5cytt96qnwHgL4obRIWPPvrIdpT1lTwSkCZwyZMn1xXgv1avXm3mz59v5syZY+bNm2fP8ISLDPWUx1eyoyM3srJnz66fAZAQihtEDelzIjOBfPXggw+a8ePHawYkTB5jyfgHebQZjllXl5NdnZYtW5oaNWpwEwtIAMUNoopc+3755Zc1S1jr1q1tUQT4a9euXWb48OHmm2++CftNLHm0KtfOH3roITvsE8C/Udwg6jz11FPmgw8+0Cxh0g/l6aef1gzwn+wAvvrqq/asTrjJYyvplvzII4+YrFmz6ioQ2yhuEJWkLb58R+2r6dOn221/IBhjx461LQe2bdumK+El/w3L+RwpdHh0hVhGcYOoVbt2bftm44uMGTOazZs3MycIQTtz5ozp2rWrX7uHTpOeOtLkUh67yhwsINZQ3CBqnT171txzzz1m0aJFuhK/hg0b2gZvgBOmTp1q7rvvPs0iR+aryWPXxx57TFeA6Edxg6h27NgxU6ZMGbNhwwZdid+oUaPs+QXACbJzKDuIbiAHj7t06WLatWtHjydEPYobRD251SJt7/ft26crcZN2+FIIyWMqwAk9e/Y0L730kmaRJ/1y+vTpY3cqgWhFcYOYID1JpOurL5544gnbFBBwgjwezZ07t9m7d6+uuEPhwoVtGwTZ2bwa+aZAdp6WLVtmx5zI70POpMmrQIEC9veUL18+20mZGVlwG4obxIwXXnjBvPnmm5rFTbbsd+7caW644QZdAYLTvXt389prr2nmLtKQUGauXU6GjMpU8xMnTuhK/KTIKVu2rD1jJC8O5iPSKG4QM/z5DloaAfbo0UMzIDj+zj8LJ5lpdeXg2SpVqpgZM2Zo5j8pdBo3bmxvbPFNAiIhsX4Eop7syPjavbh///4aAcHLnz+/RqGRLVs2219HChI5M3b48GEj37fKa9KkSebJJ5+0OzFXSpcunf3nLifT0oMpbIQ8BpaDy3J2Tf7dshMKhBM7N4gpp06dsl9wpRdJQgYPHmy/+wSCtW7dOnsl22nyCKhTp07m3nvv1ZXg9e7d23Tr1k0z50jfH3+G2wLBYOcGMSVFihR2Jo8vZG4Q4ASnOxZLMSPzrGSXxcnCRhQqVEgjZ3Xs2NEe1gfCgeIGMcfXN4MJEybYnR4gWOvXr9coeDILTRoEFilSRFecJVPHQ3X4+WqPxoBQoLhBzMmbN69GCZs3b55GQOBWrlypUeBkVtTy5cvDMuRVhoDKzpA0/ZOr3sFInTq1qVWrlpk1a5Zp0qSJrgKhxZkbxJxNmzbZPh2+kC/ybr3CC+8oVaqUWbp0qWb+k1lRcsg3rp40oXbgwAF7UFker+3Zs8ccOnTIHD161Jw+fdr88ccfJlGiRPbXKP1u5EybTCfPkSOHueWWW0yuXLn0ZwHCh+IGMUd6ePh6rkBGMchIBiAY8t+b/HcXKHlEWr16dc0AJITHUog5ck3WV1xhhRNkhyNQzz77LIUN4CeKG8ScjRs3apSwkydPagQE7pprrtHIP3JouG/fvpoB8BXFDWKOHMr0lZwZAIJ1/fXXa+QfGboJwH8UN4g5cn7BV6HuLIvYIDed/FWwYEF7LRuA/yhuEFPkeqvc9vCV3HIBgiVjDvzFORsgcBQ3iCnjx4/XyDflypXTKDrs27fPTJ8+XTOESyDDI/PkyaMRAH9R3CCmjBw5UqOESbO/zJkza+Z9ffr0sf1HpENz7dq1zfnz5/UzCLUbb7xRI99F0397QLhR3CBmrFixwqxZs0azhFWtWlUj75M5WV27dtXMmLFjx5pmzZpphlC76aabNPKdP49PAfwbxQ1ixldffaWRbx544AGNvO9qU56HDBliH1Mh9HLnzq2R7/y51Qfg3+hQjJggLeKlNbyvgzCTJEliTpw4YT96nfzekyZNqtm/yY5OvXr1NEOoSG8luf3kD7k+LmMPZDYTAP+wc4OYICMU/JnwXa1atagobER8TQtXrVqlEULJ11lml5Oi9M0339QMgD8obhATPv30U41806BBA428L3v27Br91+rVqzVCqAXSM6l3795mx44dmgHwFcUNop6cXZg/f75mCZPpxnKbKFqkT5/eJE589f/Vjx8/rhFC7dZbb9XIP88995xGAHxFcYOoJ1eg/fHggw/aAieaPP744xr9259//qkRQq1o0aIa+UfaFyxdulQzAL6guEFUk6neo0eP1sw3TZs21Sh61K1bV6N/y5Qpk0buNHHiRDNo0CDNvK1YsWIa+e/VV1/VCIAvKG4Q1eSszYULFzRLmHSSjaYr4JdUqVLF3HfffZr9j783eMLp7NmzpnHjxqZ58+amePHiuupdt99+u0b+mzJlClfDAT9Q3CCqffnllxr5plWrVnGeT/G6jz/+WKP/kaLHrRYvXmyOHj1q42i4uSYHu4PpOtyrVy+NACSE4gZR67vvvjP79+/XzDctWrTQKPrIrKKZM2eaFClS2Fx2ReTKu1tt2LBBI2PPnFwqdLysTJkyGvlvzJgxZvPmzZoBiA/FDaKWvweJK1WqZOdJRTP5PR4+fNhs377dDB48WFfd6cor0NHwWKZ06dIaBaZ///4aAYgPxQ2i0qJFi/zu4dKuXTuNopt0vs2RI4dm7nXlrtv69es18q4KFSpoFBgZISLN/QDEj+IGUem9997TyDdyFuKhhx7SDG5w5WOoLVu2aORdpUqV+v/HgoGQvkRDhw7VDEBcKG4QdXbv3m1GjBihmW/atm1rrr32Ws3gBleOyzhy5IhG3pUoUaKr3lrzh78DYIFYRHGDqPPJJ59o5Bspatq3b68Z3OLKBoPR0k25atWqGgVGum1L/yYAcaO4QVQ5d+6c33OkHn30Udc3s0P0FDfVq1fXKHA8mgLiR3GDqCLXv3///XfNfNOtWzeN4CbXXXedRhf99ddfGnnbTTfdFPAohkvkv3MAcaO4QVS5WqO6+Eifl0CmNSP0rpzvFcxBXLd5+OGHNQqM3ATcunWrZgCuRHGDqLFy5Urb1dYfXbp00QhukzJlSo0uujL3skceeUSjwI0fP14jAFeiuEHUeP/99zXyjTRUk6Z2cKfUqVNrdFE0FTcFChQwRYoU0SwwkyZN0gjAlShuEBUOHjxovvnmG81888Ybb2gEN0qTJo1GF8lQ02giB9mDMXXqVHP69GnNAFyO4gZR4bPPPtPIN3fddZepXLmyZnCjtGnTanTRzTffrFF0ePzxx03SpEk1C8zs2bM1AnA5ihtEBX972/To0UMjuFWGDBk0uihXrlwaRYd06dKZli1bahYYGYQK4L8obuB58jhq7969miVMztmwa2PMtGnT/PpzC7eMGTNqdFG+fPk0ih7ShuDKW2H+WLhwoUYALkdxA8979913NfKNv9PCo5HctJFOuTVq1NAV95F5X5crWLCgRtHjxhtvDGrStwyIPXv2rGYALqG4gactWLDArFmzRrOE1apVy5QsWVKz2NWhQwf7ccWKFWbChAk2dpusWbNqdPFmW7Rq1qyZGTBggN1NDOQMzrJlyzQCcAnFDTxN3hT88frrr2sUuz766COzY8cOzYwZNGiQRu6SPXt2jYypWLGiRtFJzt5Mnz7dTJkyRVd8x6Mp4L8S/f0PjQFPOXbs2H9u1MRHusKOHDlSs9glt44uH7wonX9PnjypmbtkyZLF7N+/32zevNnkzZtXV6ObXBH3Z3ZU7dq1zZgxYzQDINi5gWcNGTJEI990795do9g1bty4/0yUPnXqlGtv3TRu3Ni88847MVPYCH/PQcmjRQD/RnEDz5LHK76SXZtbb71Vs9gV15/Z5MmTNXKXNm3amE6dOmkWG4oXL66Rb6RYld0tAP9DcQNPmjt3rtmwYYNmCevcubNGsWvLli32+vfVuLUZXCzt2Fwij+L8xaFi4N8obuBJ/hwkLlWqlH3Fuvi6OC9fvlwjRNqVYyd8sWrVKo0ACIobeI6cERk1apRmCXv22Wc1im0DBw7U6Op4g3QPfwucjRs3agRAUNzAc+RmyJkzZzSLX7Zs2Uy9evU0i13Dhw83hw8f1uzqfv75Z40QaXIT0B/r16/XCICguIHnDB48WKOEdezYUaPY9umnn2oUN7lujcgLpOPwpk2bNAIgKG7gKUeOHDEzZszQLH7XXXedadu2rWaxa8+ePT4dGN62bZtGiKTLGyz6SgqiX3/9VTMAFDfwFGludv78ec3iV6dOnYAOZ0abr7/+WqP4Xdn/BpER6N/D1q1bNQJAcQNPGTZsmEYJa9WqlUaxbcSIERrFj+LGHQL9e2DnDfgfiht4xq5du+ygTF/kyJHDVKlSRbPYJW94vg4W5bGGO2zfvl0j/wT6zwHRiOIGnuHrDoSQ6d8wfg9idOuMqViycuVKjfyzd+9ejQBQ3MAzJkyYoFHCHnjgAY1im6+Hry9J6Lo4Qi/QWVEUN8D/UNzAE/744w+zcOFCzeKXPHlyU6lSJc1im79jFShuIuvAgQMBFyn79u3TCADFDTxh/vz5tsDxhZy1SZIkiWaxS87Q+FusUNxEVjBjMKQwAnARxQ08Yd68eRolrGrVqhrFtkWLFmnkO+kjhMgJZgDm0aNHNQJAcQNPkCngvipevLhGsS2QN8rjx49rhEiIa2q7L2QkyYULFzQDYhvFDTzBnxskJUqU0Ci2BXLrRoaSIjJk18zXVgdxYfcGuIjiBq4nZwl8HSRYuHBhkzRpUs1iWyCzoihuIsffa/tXw84bcBHFDVzvl19+0Shht956q0axTfrVBHLAlD43keNPq4O4BDJ0E4hGFDdwvd9++02jhKVPn16j2BbI8EVBcRM5kyZN0ihwf/75p0ZAbKO4gev5M2snXbp0GsW23bt3a+QfOZSK8JNHUk6cl6G4AS6iuIHr+XOOIG3atBrFtkD71Zw7d04jhNPAgQM1Cg7FDXARxQ1cz5/iJlGiRBrFtkDf5HhzDD85LD9mzBjNgsN//8BFFDdwvb/++kujhPFY5aK///5bI/+wcxN+gwcP9uu/8fhwUxC4iOIGrnfNNddolDDGB1yUIkUKjfzj1JssfOfUIynB2BHgIoobuJ4/X7D9uTYezVKnTq2Rf9i5Ca/FixcH1GwxLuzcABdR3MD1/HmjXrNmjUaxLVWqVBr5J9DHWaEUbNdeN+vatatGzgj07x2INhQ3cD1/vmDv2bPHrFu3TrPYFeibnD+PAMNB/j7LlStnJ5xHm6lTp5o5c+Zo5oxMmTJpBMQ2ihu4Xq5cuTTyzejRozWKXYEWN9dee61G7jBixAj7ccaMGfZjNOnWrZtGzqDHE/A/FDdwPX9HKgwZMkSj2JUsWTKN/OO2A6myuyGWLFliP0aLkSNHOnrWRmTIkEEjABQ3cL0CBQr4dftHDhU70creywK9LeW2nZu5c+faj8uWLbMfo4E8amvfvr1mzsmaNatGAChu4AmlS5fWyDcvvPCCRrEpZcqUGvnHTTs3y5cv//8p5dF0jqphw4bm0KFDmjnnlltu0QgAxQ08oXz58hr5Rm5Nvfrqq5rBV4E+zgoFuSZ9uWgocF566aX/341yWv78+TUCQHEDT6hWrZpGvuvRo4cZN26cZrEnkEPFbipu5s+fr9FFGzZs0Mib5FB0z549NXMeOzfA/1DcwBNKlSplsmXLppnvGjRoEHWHUX0VSEM3NzWBu/Ka9MaNGzXynqVLl5q6detqFhq33XabRgAobuAZtWvX1sh3MmtKzuvE4g2q6667TiPfuaW42bdvn31dbvPmzRp5ixRplSpVsgMyQyV9+vTs3ACXobiBZzRv3lwj/zVu3Nh2g3VjB95QCaQhn1sOFK9evVqj/1m7dq1G3jF58mRz3333mdOnT+tKaPh74B6IdhQ38IySJUuaYsWKaea/Pn362N2fHTt26Ep08/LOzU8//aTR/3jtQPGoUaPMAw88YP744w9dCR1/D9wD0Y7iBp7Spk0bjQIjB4xz5sxp2rVrF5LruG4SyC6VW/rcrFixQqN/80qB8+yzz5pHHnlEs9B76KGHNAIgKG7gKU2aNHFkOOCnn35q8uTJY/r27fv/vVSizV9//aWR98TVtM/prr5O27lzp7nzzjtNv379dCX0ihYtyjVw4AoUN/AU6bzbqlUrzYJz/Phx07lzZ5MlSxbToUMHz181vpIcpvbX+fPnNYqc33//Pc5BmW6e+j5x4kR7Yync3ZQbNWqkEYBLKG7gOVKIOOnkyZPmo48+sjOs5GDm559/bg4ePKif9a7Dhw9r5Ds3HLhetGiRRv8lXYvd5ujRo/Yx54MPPmiOHDmiq+GRNm3akIxyALyO4gaeI1PCH3/8cc2cJT1x5FxPpkyZ7HfhnTp1MmPHjrW7PF4SyK6N+PPPPzWKnHnz5mn0X6tWrdLIHb788kuTN29e+5gzEp566ilHHtMC0SbRP9+pxc7dWEQNGT544403ahYexYsXt9d677//fnP33XfrqjvJ8NB8+fJp5rvu3bubV155RbPIkN2z+BovypXwIkWKaBYZP//8sy2wFyxYoCvhJ3+/UuwlT55cVwBcws4NPEm6Fb/88suahYe8kfTu3dtUqFDBpEmTxtSqVcvmoZoVFIxt27Zp5J9I71CdOHEiwY7Skew4LX+uTz75pClUqFBECxvx/fffU9gAcaC4gWfJ7KhAdiecIEWAXCvv1q2bLXbkMVbHjh3NwoUL9UdE1qZNmzTyz5VdgcNt2rRpGsVt5syZGoWP/F3LfLPcuXObjz/+WFcjQwp7mbtVuHBhXQFwJYobeNpXX32lUWTJAeQPP/zQlC1b1r4Bynf348eP18+G35UTtX0V6I6PU3744QeN4jZlyhSNQuvAgQN20GWOHDnsLt2PP/6on4kcaQooN8bkvzMAcePMDTxPbov0799fM3e56aabTJcuXRy/4ZWQjBkzBtSkUA6nRurRlDySypw5s0+HoeXQcbly5TRzjvzeR48ebYYPHx62IspXUmi98MILmgGIDzs38DwZqxDIxPBw2LVrl31cJQ0DZTJ0OMgNnkC7L0uBIY9gIkEOM/t6y2vo0KEaBU8Kmm+++cZUr17dnqV67LHHXFfYyKMwChvAd+zcICpMmDDB1KhRQzP3+uyzz0J2jV1It2WZv7VlyxZd8Z/cVoqv10woyE6MPzfQpAiRKeFy1ikQcttJzvfIoyYZbulm0u346aef1gyAT6S4AaJBx44dpVB3/euZZ575e9u2bfqrds7Jkyf/rlSp0lX/nf6+evfurT9r6G3atOnvjBkzXvXXEd/rn2JWf4aEHT9+/O/Ro0f/3a5du79z5Mhx1Z/PjS/5bwWA/9i5QVQpUaKE6xq9xaVUqVK2q23FihVtY8Jg+vZ8/fXX9rHO9u3bdSV4cmhVbqTdc889uuIcefwkj+nk1y2vQNWpU8f06tXrP7OVZFdHHq/JdHG5ORboAetIkknfbmwzAHgBxQ2iym+//WYHF+7fv19XvCNZsmT2kZD8+pMmTaqrcZOzIlLISZFw+vRpXXXeDTfcYG6//XbbsVl+jYGS20dbt241GzduNDt27NBVxEX+rKToBeA/ihtEnRUrVtjzG6F8wwdCSabfyyFnAIHhthSijuwyjBgxQjPAe8LdOgCINuzcIGoNGjTING/eXDPAXTJkyGCyZ89ub37J7a1Lk+izZMli9u7da2MAgWHnBlGrWbNm5r333tMMiKy0adPaHjrSIFD6EMlLzkzNnj3bXt2Xw9FCpowDCA47N4h60tK/UaNGPjeIA5xUr14906BBA/PQQw/pytXJGTEZ9SBT5zlvAwSH4gYxYfXq1bbJn3QMBsJB5ovJYFV/umcPHDjQFChQwJQpU0ZXAASC4gYx4/Dhw6ZmzZqumdyN6JMkSRLTqlUrOyohmL5FAILDmRvEDDnAOWfOHPPiiy+aa665RleB4Ml/Ty1atLC9aWQOFIUNEFns3CAmyeyk1q1bm/Xr1+sKEBgpauTx0y233KIrACKN4gYxbciQIeaVV16x33EDvipUqJB9/CStBuQWFAB3obgB/jF16lTbF0duVtHZGFdzxx132BtPjzzyCNe1AZejuAGuIAXO999/byZOnGiOHDmiq4hFMsajdu3apm7duubmm2/WVQBuR3EDxEOmS0ujtXXr1tmZVWvWrKF7bBQrWbKkue+++0yFChXsVPRgBoUCiByKGyAAckZHJo/v27fPvqR1/oULF/SzF8n/WrIun5dutHv27LH/zMmTJ/VHIJwyZ85s8uXLZw/+ytiDRIkSmeuuu85kzZrV3HTTTaZUqVJ2FAIA76O4AcLs6NGj/78bJDtB8pJdITivWrVqpnr16vaxkhQxAGIDxQ3gEpcefclLrqpT8AROulF/9tlnFDRAjKK4AVzq2LFj5rvvvjP9+/e3uztIWMaMGc1HH31k5zkBiF0UN4AHzJ8/34wbN858+OGH5uzZs7qKy8n17FmzZtEdGADFDeAlcihZmsdNnjxZVyAKFixoZs+ebTJlyqQrAGIZxQ3gQTKY8c0339QsvOSmkeyOXH/99bqSsHPnztkr9FKcOb3zVLhwYVvYyOwwABAUN4BHScfcUBw6rlq1qqlcubLJkyePyZ07t8mRI4dJnz69fjZ4ci1++/btZu7cueabb74J6jxRqlSpzOrVq+2vEwAuobgBPGr48OGmQYMGmgWndOnS9nHXww8/HPZeL2+//bbp0qWLZv6RTtJ16tTRDAAuorgBPCxdunS2b06gUqdObYYOHWp7wUSSTNXu3bu3Zr55/PHH7XVvALgSxQ3gYfXr1zcjRozQzH8LFy40ZcqU0SxyNm7caA8F+0o6Cv/yyy8madKkugIA/5NYPwLwoKJFi2rkPzmU7IbCRhQoUEAj38guD4UNgLhQ3AAeJr1dAiGPs+RRkFv482itePHi5tFHH9UMAP6L4gbwsJw5c2rknxYtWpiUKVNqFnnbtm3TKGF9+/bVCACujuIG8LBAm9bJQEk3Wbx4sUbxq1KliqlUqZJmAHB1FDeAhwXaf6Zs2bIaucOcOXM0il+HDh00AoC4cVsK8LhEiRJp5JsiRYqYtWvXauYOcvtp9+7dml1dtmzZEvwxACDYuQFizC233KKRO2zatMmnoqVdu3YaAUD8KG4Aj0uWLJlGvnHb1Gxf+vQkTpzYtG7dWjMAiB/FDeBx/gywFG6bnD1q1CiN4lazZk2TOXNmzQAgfhQ3gMf5e6VbRi64xW+//ebT+R/mRwHwB8UN4HEyGdsfbupv4+tsqAcffFAjAEgYxQ3gccmTJ9fIN266IPn5559rFLeKFSvajsoA4CuKG8Djzp8/r5Fv/vrrL40i65tvvjGHDh3SLG5y3gYA/EFxA3jchQsXNPLNuXPnNIqs9957T6P41a5dWyMA8A3FDeBx/u7cuKG4Wbp0qVm1apVmccufP7/JlSuXZgDgG4obwOO8WNx0795do/i5bQYWAG+guAE87s8//9TIN5EubpYvX24mTZqkWfwobgAEguIG8Dh/DwhHurh55plnNIpfkiRJzD333KMZAPiO4gbwOH+LG393epw0ffp0M3/+fM3iV7lyZVvgAIC/KG4Aj/N3J+bMmTMahd+LL76oUcIeeughjQDAPxQ3gMf98ccfGvnm7NmzGoXXoEGD7C0pXz388MMaAYB/KG4Aj/O3uDl9+rRG4XP06FHTqVMnzRJWtWpVuhIDCBjFDeBx/p6hiURx06VLF3P48GHNEla/fn2NAMB/FDdAjAn3Y6klS5aYL774QjPfMAUcQDAobgAPO3HihEa+O3nypEbh0bZtW41807BhQ5M2bVrNAMB/FDeAhwWyCxNIQRSo119/3axevVoz37Rp00YjAAgMxQ3gYYH0rAnXzs2aNWvMK6+8oplvChQoYCpUqKAZAASG4gbwMH9vSolwFDdSdDVo0EAz37Vr104jAAgcxQ3gYW4tbmTHZuPGjZr5Jn369KZly5aaAUDgKG4AD/N39IL4/fffNQqNRYsWmT59+mjmO+lenCJFCs0AIHAUN4CHBXqtO1QjGKRZ3yOPPKKZ7zJnzmzat2+vGQAEh+IG8LBAh2AeO3ZMI2fVq1fP7N69WzPf9ejRwyRNmlQzAAgOxQ3gYYGcuRGhKG7eeOMNM23aNM18d/vtt5vWrVtrBgDBo7gBPOz8+fMa+ef48eMaOWPWrFnm5Zdf1sw/X331lUmUKJFmABA8ihvAwwI9c+Pkzs3OnTsDnuDdtWtXU7RoUc0AwBkUN4CHBXow2KniRrod33vvvQHdwKpbt67p1auXZgDgHIobwMMCPXMjt5qcUKNGDbNp0ybNfFezZk0zatQoHkcBCAmKG8DDAn0sdfjwYY0CJzej5syZo5nvnn76afPDDz9oBgDOo7gBPCxSOzdyVmbkyJGaJaxSpUq2sd/WrVtNv3792LEBEFIUN4CHBVrcBLNzI4WNrx2Ia9WqZQ4dOmRmzpxpunTpYnLlyqWfAYDQobgBPCzcj6WeeOIJnwqbZMmSmW+++cY+fsqQIYOuAkB4UNwAHhbozk0gt5uaNWtmPvnkE83iliZNGjN//nzTpEkTXQGA8KK4ATwsXMVN/fr17U5MQmTH5scffzQlSpTQFQAIP4obwMPCcebmgQceMCNGjNAsfsOHDzelSpXSDAAig+IG8LBAB2f6UtycOnXKlCtXzkyePFlX4tehQwfb9wYAIo3iBvCwQIsb6WycUHfjBg0amAULFmgWvyxZspiePXtqBgCRRXEDeNhff/2lkf/i272Ra9sTJkzQLGEy/DJVqlSaAUBkUdwAHhaK4mbGjBnm7bff1ixh3bp1M/fff79mABB5FDeAh507d04j/13txpQ8qmrevLlmCWvdujXDLwG4DsUN4GHnz5/XyH/SOfhKc+fONbt27dIsfo8//rj5/PPPNQMA96C4ATwsmBlNV3ssdfDgQY3iljp1ajNo0CDz2Wef6QoAuAvFDRCjDhw4oNH/1KxZ05QtW1az/2rTpo0dftm0aVNdAQD3SfT3PzQG4DGPPPKIGTVqlGb+efLJJ82HH36o2b/t2LHDbNmyxWzfvt0+vipevLhtziejFQDA7ShuAA8LpripV6+e7SgMANGGx1KAhyVOHPj/wr6crwEAL6K4ATwsmAPFVztzAwDRgOIG8LBrr71WI/9R3ACIVhQ3gIclSZJEI//JQWGO3AGIRhQ3gIddf/31GvlPCpt9+/ZpBgDRg+IG8LBkyZJpFJj9+/drBADRg+IG8LCUKVNqFBiKGwDRiOIG8LBUqVJpFBiKGwDRiOIG8LBgOwb7OiQTALyE4gbwsHTp0mkUGIobANGI4gbwsAwZMmgUmN27d2sEANGD4gbwsOzZs2sUmJ07d2oEANGDwZmAxwUzgiFTpkwcKgYQddi5ATwumN0bGcFw5swZzQAgOlDcAB6XP39+jQKzZcsWjQAgOlDcAB5XqFAhjQKzfft2jQAgOlDcAB5XrFgxjQKzdetWjQAgOlDcAB53xx13aBSYjRs3agQA0YHiBvC4W2+91aROnVoz//30008aAUB0oLgBPC5x4sSmXLlymvlv/fr1GgFAdKC4AaJA9erVNfLfkSNHzJ49ezQDAO+juAGiQO3atTUKzOrVqzUCAO+juAGiQLZs2UyFChU08x/FDYBoQnEDRImmTZtq5L9ly5ZpBADex2wpIEqcPHnSZMyY0Zw9e1ZXfJcyZUpz7NgxezgZALyOr2RAlJACpU6dOpr5Rwqj5cuXawYA3kZxA0SR1q1ba+S/CRMmaAQA3sZjKSDK5M2bN6BhmEWKFDFr167VDAC8i50bIMp07dpVI/+sW7eOW1MAogI7N0AUkqvhe/fu1cx3jRs3NoMHD9YMALyJnRsgCnXp0kUj/3z77bd2BwcAvIydGyAKnT592tx8883m8OHDuuK7kiVLmrlz55qkSZPqCgB4Czs3QBRKnjy56dixo2b+kYZ+FStWNLNnz9YVAPAWdm6AKHX06FGTPXt228MmUEWLFrVjHdKnT28efvhhU7hwYf0MALgXxQ0QxZ5//nnz1ltvaRa8J5980vTp08fuDAGAW1HcAFFs//79JleuXObMmTO6ErxGjRqZIUOGaAYA7sOZGyCKZc6cOeC+N3EZNmyY2bp1q2YA4D4UN0CUk0dT0vfGKbLZO2jQIM0AwH0oboAod/3119tzMk5asWKFRgDgPpy5AWLAhQsXTKFChczGjRt1JTgyv2rz5s2aAYC7sHMDxIDEiROb3r17axa8X375xdFDygDgJIobIEbUqlXL3HnnnZoFb/To0RoBgLtQ3AAxpFevXhoFb+DAgRoBgLtw5gaIMVWqVDEzZszQLDirVq0yxYoV0wwA3IGdGyDGvP322xoFz8nuxwDgFHZugBjUsGFD891332kWnHXr1jFzCoCrUNwAMWjbtm0md+7cmgVHJojPmjVLMwCIPB5LATFI5k099dRTmgVn9uzZ3JwC4Crs3AAx6vfff7dFzvHjx3UlcFmyZLHzppIlS6YrABA57NwAMSp9+vTmpZde0iw4+/btMy+//LJmABBZ7NwAMS579uxm165dmgVn6dKlpmTJkpoBQGSwcwPEOCcb+zVv3tz8+eefmgFAZFDcADGuSZMmjjXi+/nnn02PHj00A4DI4LEUANuxWDoXO2XJkiWOzrECAH+wcwPAVK5c2dSrV0+z4DVq1MicPXtWMwAIL4obANb7779vUqZMqVlwfv31V/Pcc89pBgDhRXEDwJJeNe+++65mwfvoo4/MxIkTNQOA8OHMDYB/qVOnjhkzZoxmwUmbNq2dHJ4zZ05dAYDQo7gB8C8nTpwwRYsWNdu3b9eV4Nx+++1m+fLlmgFA6PFYCsC/pEqVyrGdG7FixQrToUMHzQAg9ChuAPyH9L1ZsGCByZQpk64ER87fjBo1SjMACC0eSwGIkwzVbNq0qRk7dqyuBE5uYq1cudLkzZtXVwAgNChuAMTrzJkz9tzMhg0bdCVwhQoVsudvkiZNqisA4DweSwGIV7JkycyHH36oWXDWr1/P+RsAIcfODQCfpEuXzhw9elSz4AwfPtzRjsgAcDl2bgD45K677tIoeDI9fPPmzZoBgLMobgD4pEKFChoFT87x1K1b134EAKfxWAqATw4cOGBy5Mjh6EDMmjVrmh9++MEkSpRIVwAgeOzcAPCJ9LxxehjmuHHjTNeuXTUDAGewcwPAZ7JrU7x4cbNx40ZdccbgwYNN48aNNQOA4FDcAPDL2rVrbd+bc+fO6UrwrrvuOjNt2jRHz/UAiF08lgLgFxmq+cYbb2jmjL/++svUqFHD8R0hALGJnRsAfpMvG9WqVTNTp07VFWfkzJnTLFu2zNxwww26AgD+o7gBEBBp6Cfnb7Zv364rzrjjjjvM3LlzbWdkAAgEj6UABCRt2rRm9OjRjs+JktlTjzzyiGYA4D+KGwABk52bkSNHOt6nZuLEibaLMQAE4prX/qExAPgtX758JkWKFPa2k5PWrFljEidOzA0qAH7jzA0AR7Rp08Z8/vnnmjnn448/Nu3bt9cMABJGcQPAERcuXDCNGjWyE7+dJI+8Bg0aZJo0aaIrABA/ihsAjjl//rx59NFHHS9w5PHU0KFDTf369XUFAOJGcQPAcXLbadSoUZo5R35OmSYOAPGhuAHgOBnNUL16dceb/F177bVm7Nix5oEHHtAVAPgvihsAISFDNitXrmwWLlyoK85IkiSJvSpepUoVXQGAf6O4ARAyJ06cMBUrVjQrV67UFefMmjXL/twAcCWa+AEImVSpUtlHUwULFtQV51SqVMmMGzdOMwD4H4obACGVIUMGM2fOHFOgQAFdcY4cLh4yZIhmAHARxQ2AkMuYMaMdhul0gSMHlxs3bmw+/PBDXQEAihsAYRKqAkd07NjRvPjii5oBiHUcKAYQVgcPHrTzojZs2KArzmnZsqUZMGCAZgBiFcUNgLA7dOiQuffee83q1at1xTkPPvigbfZ3/fXX6wqAWENxAyAijh8/bnvVLFu2TFecU7ZsWTN58mR7WwtA7OHMDYCISJ06tZk5c6YpX768rjhnwYIF9ufdv3+/rgCIJRQ3ACImZcqUZsqUKfZRktPWrFljSpQoYT8CiC0UNwAiKnny5HZeVIsWLXTFOXv27DF33XWXmTBhgq4AiAUUNwAiLnHixObLL780ffr0MYkSJdJVZ5w+fdrUqlXLvPfee7oCINpxoBiAqwwbNsw0atRIM2e1adPGfPrpp5oBiFYUNwBcR8Y1yG7LsWPHdMU5ckNr5MiRJm3atLoCINpQ3ABwpU2bNtlCZNeuXbrinOzZs5sRI0aY0qVL6wqAaMKZGwCulD9/ftsDp1ixYrrinJ07d5py5cqZ7t27mwsXLugqgGjBzg0AVzt58qSpV6+ebcoXClLkDB061O7mAIgO7NwAcDXphSNXuZ977jldcdb8+fNNkSJFzA8//KArALyOnRsAnvH111+bxx57TDPntW3b1vTr188kTZpUVwB4EcUNAE+R0Qq1a9e2wzdD4ZZbbrHX0e+44w5dAeA1PJYC4CkyFHPt2rXm9ttv1xVnbdmyxZQpU8a88cYb5vz587oKwEvYuQHgSX/++adp1aqVGTx4sK44r2TJkua7774zuXPn1hUAXsDODQBPSpIkifnmm2/MJ598oivOk6vohQsXpqsx4DHs3ADwvPXr15v69evbj6FSrVo1M2jQIJMpUyZdAeBW7NwA8LxChQqZFStWmA4dOuiK86ZMmWL/PUOGDNEVAG7Fzg2AqDJv3jzTvHlzs3XrVl1xXtWqVe0U85tuuklXALgJOzcAokr58uXNzz//bF566SVz3XXX6aqzpk6dagoWLGg+/PBDw/eHgPuwcwMgasnwzccff9zMnTtXV5wn/XDkYLMUOwDcgZ0bAFFLhm/OmTPHzo7Kli2brjpr+fLl5tZbb7VDOAG4Azs3AGJG3759Tc+ePc2RI0d0xVkFChSw18YrVKigKwAigeIGQEyRKeNvvvmm6dWrl644r1GjRraQypIli64ACCeKGwAxSW5TyXmcGTNm6IqzUqVKZR9VdezY0VxzzTW6CiAcKG4AxLTvv//etG/f3hw4cEBXnCXncfr372/uvvtuXQEQahwoBhDT6tatazZs2GAeffRRXXGWXEuXMzjy8+/bt09XAYQSxQ2AmJc+fXrz7bffmvHjx4dsvILc2LrlllvMW2+9pSsAQoXiBgDUgw8+aHvjNGvWTFecderUKfP888/bImf06NG6CsBpnLkBgKuQXZxWrVqF7CyOKFu2rHn//ffN7bffrisAnMDODQBcRY0aNex5GfkYKgsWLDAlS5a0O0V79+7VVQDBYucGABIwYMAAe6X7zJkzuuK85MmTm+eee8506dLFxgACR3EDAD6QXZw6derYMzmhlDVrVttF+bHHHtMVAP7isRQA+ED61axevdo2/gsleTzVokULU7hwYTNu3DhdBeAPdm4AwE9jxoyxBcjRo0d1JXRKly5tr4+XL19eVwAkhOIGAAIgOyz16tUz8+fP15XQqlatmp2JVaxYMV0BEBceSwFAAORszLx588zrr7+uK6E1ZcoUU7x4cdOgQQPz66+/6iqAq2HnBgCCNH36dPPwww+bY8eO6UpoXXvttaZly5bmlVdeMdmyZdNVAJdQ3ACAA3bs2GGqV69u1q9fryuhlyxZMtO5c2fTtWtXro8Dl6G4AQCHnD171rRr1858/fXXuhIeadOmtT1ynn32WZM0aVJdBWIXxQ0AOOzjjz82Tz75pGbhI+eAevToYcdGALGM4gYAQmDr1q2mefPm9tBxuBUqVMheH3/ggQd0BYgt3JYCgBDInTu3mTt3rvniiy/sY6NwknM/cv6nYsWK5qefftJVIHZQ3ABACMkjoo0bN5r27dvrSvjMmTPHFClSxN6sOnTokK4C0Y/iBgBCLHPmzPYcjjyqaty4sa6Gz1dffWXy5Mlj3n77bV0BohtnbgAgzNasWWPeeecd8+233+pK+OTLl8988MEH5r777tMVIPpQ3ABAhEjTv9GjR5vx48ebyZMn26vk4VKjRg3Tt29fkzdvXl0BogfFDQC4wKlTp+xATpkf9fPPP+tq6EkTwJdeesmkSZNGVwDvo7gBAJfp16+feeGFF8K2k5MxY0bbH6dt27a6AngbxQ0AuJDcsJJzMb/99puuhJ4M5uzfv78pVaqUrgDeRHEDAC61fPlyU7JkSc3CR250vffeeyZDhgy6AngLV8EBwKXuuOMO88QTT2gWPnKLS66OyxVywIsobgDAxerXr69ReMlNLmn+99BDD5nDhw/rKuANFDcA4GLly5c3PXv21Cz8fvjhB3sWZ9OmTboCuB9nbgDAA7Zs2WK+//57c+bMGbNs2TIzadIk/Ux4pEuXzkycONGUKVNGVwD3orgBAA86efKkWbt2rfnll1/Mtm3b7K0qeS1atMicPn1af5SzkidPbs/hROpRGeArihsAiDJTp041P/74o5k2bZpZt26drjqnadOm9jaV7OYAbkRxAwBRTA4DT5gwwYwYMcLRR1k33HCDefrpp027du1M+vTpdRVwB4obAIgRx48fN8OHD7cTymV4pxOSJk1qOnXqZJ5//nmTKlUqXQUii+IGAGLQ0qVLzWeffWaGDh3qyJiHlClTmubNm5tWrVqZ2267TVeByKC4AYAYJrs5AwcONB999JG9keWEEiVKmLp169pGgEWLFjUFCxbUzwDhQXEDALCGDRtmunfv7nhPm3z58platWqZJk2amCJFiugqEDoUNwCAfxk5cqSdTC7Xyp32yCOP2IPId911l64AzqO4AQBc1YoVK8w777xjvvvuO11xjox1GDRoEIeQERIUNwCAeO3Zs8e8++675tNPPzWnTp3S1eDJxHM52Aw4jeIGAOATOXwsuy1y+Hjz5s26Gpz+/fubtm3bagY4g8GZAACfpE6d2nTo0MEeOJ4/f7554oknTIECBfSzgfnrr780ApzDzg0AICgHDhww48ePt7s68+bN09WE5cqVyyxevNhkypRJVwBnUNwAAByzY8cOM2PGDHsY+aeffjLbt2+3Az0vyZYtm+1/U6VKFdvwT3LAaRQ3AABXWb16tR0RIUM/c+bMaRo2bGj75AC+orgBALiG7PhID5w///xTVy76/PPPTevWrTUD4seBYgCAa8iV8ysLGyHrgK/YuQEAuEbWrFnNvn37NPs3uYpO0z/4gp0bAIBr3HjjjRr9W9q0aSls4DOKGwCAa7zyyisa/VvLli01AhJGcQMAcI2aNWuaAQMGaPbPm1TixHbQpsy4AnzFmRsAgCutWrXKdkBOliyZrgC+obgBAABRhcdSAAAgqlDcAACAqEJxAwAAogrFDQAAiCoUNwAAIKpQ3AAAgKhCcQMAAKIKxQ0AAIgqFDcAACCqUNwAAICoQnEDAACiCsUNAACIKhQ3AAAgqlDcAACAKGLM/wEp0VQLjz3+2QAAAABJRU5ErkJggg==;" vertex="1" parent="1">
          <mxGeometry x="345.29" y="274" width="274.63" height="356" as="geometry" />
        </mxCell>
        <mxCell id="rraX06ucM7AwQiWW7n5B-13" value="" style="shape=image;verticalLabelPosition=bottom;labelBackgroundColor=default;verticalAlign=top;aspect=fixed;imageAspect=0;image=data:image/png,iVBORw0KGgoAAAANSUhEUgAAAi0AAALsCAYAAAAvXYdjAAAAAXNSR0IArs4c6QAAAARnQU1BAACxjwv8YQUAAAAJcEhZcwAAEnQAABJ0Ad5mH3gAAIB8SURBVHhe7d0FmJVV1wbgDQISQ3dJd3d3d4eopCISH6AgIakgoKhICyKldHd3dzdId3fzubZrxgEGmDjnfXc893W9/+y1D58/DMPMc3aGevEPAQAAAKC40PwRAAAAQGkILQAAAKAFhBYAAADQAkILAAAAaAGhBQAAALSA0AIAAABaQGgBAAAALSC0AAAAgBYQWgAAAEALCC0AAACgBYQWAAAA0AJCCwAAAGgBoQUAAAC0gNACAAAAWkBoAQAAAC0gtAAAAIAWEFoAAABACwgtAAAAoAWEFgAAANACQgsAAABoAaEFAAAAtIDQAgAAAFpAaAEAAAAtILQAAACAFhBaAAAAQAsILQAAAKAFhBYAAADQAkILAAAAaAGhBQAAALSA0AIAAABaQGgBAAAALSC0AAAAgBYQWgAAAEALCC0AAACgBYQWAAAA0AJCCwAAAGgBoQUAAAC0gNACAAAAWkBoAQAAAC0gtAAAAIAWEFoAAABACwgtAAAAoAWEFgAAANACQgsAAABoAaEFAAAAtIDQAgAAAFpAaAEAAAAthHrxD24DADju6dOn4smTJ/J5/PjxO9v0LSt06NAiVKhQHvsYmF8TnI8A4FkILQAgbt26JW7cuCGuX78uP/pv37t376XgEJhgEZT28+fP+XdhnogRIwofHx8ROXJkvyewdbx48UTChAlFtGjR+L8GAAgtAIagcPFq4AioDug1k4OD7iJFiiTDi/8nUaJEr/UB2AChBUBRFy5cEOfPn3/p49vCx6NHj/h/CTbKkSOH35MpUyaRMWNGOWIDYBKEFgAXHDhwQJw4ceK1UOL/I0BIUYDJkiWLDDD0lCpVil8B0BNCC4AXUTjZv3//ax8B3JAyZUpRrlw5vwdANwgtAB5w9uxZsWPHDrFz506EE9ACAgzoCKEFIIiOHz/uF1DoIz1XrlzhVwH0QwHm448/Fk2bNhXx48fnXgD1ILQAvAOFk6VLl4qFCxfKgHL79m1+BcAsCRIkkMEF4QVUhdAC8ApaILtu3Tqxdu1aGVTOnTvHrwDYAeEFVIXQAvCP06dPiylTpojp06eLTZs2cS+A3XzDS9euXXHCLygBoQWstnjxYhlWpk6dKu7cucO9AOBfoUKFRLdu3UTJkiW5B8AdCC1gHToHhYIKPRs2bOBeAHiXjh07yvASIUIE7gFwFkILWGPFihVyRIXCCp0mCwBBlzt3bjldVLFiRe4BcA5CCxjt2bNn4vfffxcTJ04Uq1ev5l4ACKm2bduKb7/9Vl7wCOAUhBYw0oMHD8SoUaNkYNm9ezf3AoAn5cuXT/Tr10+ueQFwAkILGOXWrVt+YeXgwYPcCwDeEj58ePHDDz+IVq1acQ+A9yC0gBHoRFrfsEIn1gKAsxo1aiTDS6xYsbgHwPMQWkBrtE35l19+kWHlzJkz3AsAbsiWLZucLsJt0uAtCC2greXLl4vOnTuLLVu2cA8AqIBGXNq3b88VgOfgiEPQUp8+feRBVwgsAOr5+uuvRb169eTt5wCehNACWjl06JCoXr26HGEBAHXRMQOlS5cWc+fO5R6AkENoAW2MGzdOjq7MnDmTewBAZbSDr3LlyuK7777jHoCQwZoW0ELLli3FkCFDuAIA3dAI6cCBA0XChAm5ByDoEFpAeZUqVRLz5s3jCgB0lSVLFhlcChcuzD0AQYPQAkqjkzbXrVvHFQDoLlKkSGLQoEHyXBeAoMKaFlAWvRtDYAEwy71790Tjxo1Fly5duAcg8BBaQElffPGFWLt2LVcAYJrevXuLunXrytOsAQILoQWU07NnTzF8+HCuAMBUkydPFuXLlxcbN27kHoC3Q2gBpVBg6dGjB1cAYLpt27bJ4PLnn39yD8CbYSEuKIPOX6FtkQBgJ3rD0r17d64AXofQAkqgm5nLlCmDG5oBLNe0aVPx22+/cQXwMoQWUAKNsOCkWwAgdDbTnDlzuAL4D9a0gOv++OMPBBYA8EP3FRUrVowrgP9gpAVcdfXqVVGwYEFx+PBh7oHgihcvnkiaNKnfkyRJkpfq8OHDy1+3Y8cOsWLFCrF8+XKxaNEi2QegIkwVwasQWsBVHTp0ED/88ANX8C4UPNKkSSPSpk0rH982fYwYMSL/qsBbtmyZGDt2LHZugLLozrHmzZtzBbZDaAHX7NmzR95FAq+LHz/+S6HEt00jJt5A20779u0rpk+fzj0A6qAb3j/55BOuwGYILeAajLIIkShRIpExY0aRIUMG+TF9+vQyoESJEoV/hbNoKL5Xr17i7Nmz3AOgBprOLF68OFdgK4QWcAWtZaFRlvPnz3OP2eLEieMXTPx/jBYtGv8KdZw4cUKelzF+/HjuAXBf/vz55Vqs999/n3vARggt4Ipff/1VtGnThivz0EhJqVKl/J7kyZPzK/qYOnWqqF27NldmoRGuZMmSyYf+bmitUIQIEQL8SD8k6QkXLpzfx4DaT548Ebdu3ZLPzZs3/dqv1v7bFBBPnz7Nvyt4l/bt22MNnOUQWsAVuXLlkusoTEK3UtPwdZEiRUTRokW5V2/Hjh0TqVKl4kpfmTJlEvXq1fMLkNGjR+dX3Pf06VMZXt703Llzh38lEDq/hc5xATshtIDjTHkHT7t1KleuLE/ypZDirUWybhs0aJD43//+x5VeKlSoIMMKPbqiW5ApvOzdu1fs3LlT7Nq1S3588OAB/wq7lC5dWixevJgrsA1CCziuatWqYvbs2Vzph96tU1ipUqWKSJw4MfeaLWfOnGL79u1c6cHke2wosFBwWbhwoZg3b54MMjahLfofffQRV2AThBZw1Pr16+VhcrrJli2bDCkUVqhtmxEjRojPP/+cK/VNnDhR1K1blyvz0c4aCi/Tpk2zYudXvnz5xIYNG7gCmyC0gKNo8S0twtUFnchZs2ZNObpiswsXLogECRJwpTZav0JnANmIduWNGTNGHhi4b98+7jXTqFGjROPGjbkCW+DuIXAUbVnUAYUVWihM55bYHlgIHXZH7251oONInqfEihVLtGvXTk4dmb7LBqc42wmhBRxDIYAWE6rMf1jJkSMH9wKhBcc6KFu2LLfsFSZMGLk9mKaKMmfOzL1mWblyJe7OshBCCziG7rlRFcLKu8WOHZtbaqN1R/CvhAkTit27d2t5TlBg/PXXX9wCWyC0gGNUnBqiUzZpESPCyrvpEFrohzS8jta5mIimiM6dO8cV2AChBRxBB2SpFlq++uor3GcSBAgt+ipUqJDcAm6irVu3cgtsgNACjqC552fPnnHlrnTp0snbjPv37y+PaYfAuXbtGrfUhdDyZnRmjSknNfu3ZcsWboENEFrAEaosmGvSpIkcXalevTr3QGDRdlrV6bIt2y2tWrXiljkQWuyC0AKOUOHYbRoe//333+X2XQg6HUJL3LhxuQUBobCeJ08ersyA0GIXhBbwOjroy+3FciYf6e6U/fv3c0tdkSJF4ha8iWnH39N6ORtOAYZ/IbSA123evJlb7kBg8Qwd7h6iSyzh7Si0mLb25+jRo9wC0yG0gNft2LGDW85DYPEMejd75MgRrtSFkZZ3ixEjhnGjLTp8bYJnILSA17kVWpo1a4bA4iG63PCM0BI4poUWjLTYA6EFvM6N0EJbmZs3b84VhJQuoQXTQ4FDR/ubdJgiQos9EFrAq2gR7tOnT7lyDgUWuu0XPEOX0BIuXDhuwbuYFFowPWQPhBbwKjdGWWLGjIlRFg/TJbTcv3+fW/AuGGkBHSG0gFfRFflOo8CSIkUKriCkbt++rc072Xv37nEL3oWO9jcFnbZ94sQJrsBkCC3gVW6MtNSoUYNb4Alub1kPCoy0BB5dZ2HSCcIYbbEDQgt4ldOhhaaGsmTJwhV4wqZNm7ilPoSWoMmbNy+39Id1LXZAaAGvOXTokOM/RLD41vMw0mKuXLlycUt/Fy5c4BaYDKEFvMaNqSGMsngWrRXASIu5EidOzC393bp1i1tgMoQW8Jq9e/dyyzkmvXNUAV1Gd+3aNa7Ud+bMGW5BYHzwwQfc0h8tGAfzIbSA17hxiRmtaQHPmT59Orf0gIvzgsakkRaEFjsgtIDXuPGu9/r169yCkLp586aYPHkyV3pAaAkajLSAbhBawGvcCC06TWWojgKLbiEA00NBEzp0aGNufEZosQNCC3gNRlr0ptsoC6EfXAcOHOAKAsOUKSIsxLUDQgt4xcWLF8WTJ0+4cs6IESOw9dEDfv75Z7Fy5Uqu9DJ16lRuQWC48e/UGzDSYgeEFvAKt4bpz58/L4MLBB8tvv3qq6+40g9CS9CYMjqJ0GIHhBbwCjfXFvTo0UOMGTOGKwiKXbt2ic8++4wrPe3fv1+7XU9uMiW0PHr0SD5gNoQW8Aq3F0Q2atRI9O/fnyt4lzt37og+ffqIihUrihs3bnCvvujvf9WqVVzBmzx//tyotSAYbTEfQgt4hQq7Ttq3by9KlSolRo8ejXdgbzFkyBCRO3du0blzZ3Hu3Dnu1RuFsIYNG4pt27ZxDwTEtIXrCC3mC/XiH9wG8Ji6desqtfskderUol69eiJ9+vTyqH+qbUULlefOnSvWrl0rn1OnTvErZqJbv+nvvnr16twDvuhmZJP+LWzfvl1kz56dKzARQgt4RYECBcSGDRu4Uk/s2LFFhgwZRI4cOUTSpEnlWRV0TT891KbzK3R3+fJluTCZRk/oIz0UVugbu43oiod06dKJ5MmTi5QpU8p22rRpRcSIEflX2IcuwzTppmfa8Va0aFGuwEQILeAVdNKmzgd9xYsXT4aXKFGiiPfee8+jDwUiuoiQHlpT4Nt+U9+7av99Dx488AsqT58+5T8NvA39HdP1DwE9gRE2bFj5hAsXLsCP/tsUkOLGjSsfHx8f/i+4h3baff7551zpD6HFfAgt4BWhQoXiFgAEhEKLb4DxfSgs+7Zp1C9ZsmQiTpw4/L/wvMqVK8vRN1MgtJgPoQU87v79+yJSpEhcAUBIULih8ELTWr4f/bfDhw/PvzJoNm7cKPLnz8+VGRBazIfQAh5H9//EihWLKwDwJlqXQ+t1cubMKTJlyiSfwPz7q127tnEH8SG0mA+hBTyO1rKYdHssgG5oh1zx4sXFxx9/HOBuGjrxmK5qMA1Ci/kQWsDjjhw5ItKkScMVALiJfognSpRIXox46dIlcfr0abFs2TJ+1SwILeZDaAGPo6Pgs2XLxhUAgDMQWsyHE3HB42ghLgAAgKchtIDH0VkhAAAAnobQAh6HkRYAAPAGhBbwOIQWAADwBoQW8DhMDwEAgDcgtIDHYaQFAAC8AaEFPA4jLQAA4A0ILeBxGGkBAABvQGgBj4sQIQK3AAAAPAehBTwuatSo3AIAAPAchBbwOIQWAADwBoQW8DiEFgAA8AaEFvA4hBYAAPAGhBbwOIQWAADwBoQW8DiEFgAA8AaEFvA4hBYAAPAGhBbwuEiRIokwYcJwBQAA4BkILeAVGG0BAABPQ2gBr0BoAQAATwv14h/cBvCY7Nmzi507d3KlrogRI4pYsWKJmDFjvvSRnnDhwvk977///jvb73qN/qk9efJEPH36VD7+26/Wr7Zv3bolbt68KR/f9tv66H8HQRMjRgz50NeAbzug2sfHR05/hg0b1u9jYNrPnj0Tjx8/DvChv+OA+ul512tnzpwRZ8+elQ+1b9++zX8i+6xcuVIULVqUKzARQgt4RbFixcSqVau4UkPKlClFtmzZ5JM1a1b5MV68ePyqWW7cuCEuXrwoLl269NpD/UePHhVHjhzhX22fpEmTirx584o8efLIj/SYgkILBRj6+122bJlYvny5OHToEL9qNoQW8yG0gFc0b95cDBs2jCt3FS9eXLRs2VJUq1aNe4DQD7ZJkyaJ9u3bc4+5KJzQkzt3bpErVy6ROnVqfsUOe/bskT/Qp02bJtatW8e95kFoMR9CC3jF4MGDRatWrbhyR8aMGcWXX34pGjVqxD0QkCJFiog1a9ZwZQ4aSatSpYooW7asDCzwLwqqH374IVdmQWgxHxbiglekT5+eW+4oXLiwmDVrFgJLIFBoMQmtU+rRo4ccUejevTsCyyvq1q0rFi1axBWAXhBawCvSpUvHLefRNND8+fNFihQpuAfehgKeKTJkyOAXVii8QMDKlCkjBg0axBWAPhBawCvix48vokePzpWzPvvsM7nDAwKHQgv9femOAsuUKVPktBC8W506dbhlDtqpBWZDaAGvcWOKiHYIlStXjisIDNqOXbJkSa70FDduXDFhwgTXpyV1Ejt2bOPWf9DXMpgNoQW8xo0poo8//phbEBS0YFVnP/74o8icOTNXEFi09d8kdB4OmA2hBbzGjXe9bk1J6Y5CC41S6eiTTz6RDwRdlixZuGUGhBbzIbSA17gx0oLQEjy0FkDX0RbdR4nchJEW0A1CC3gNRlr0ouMP/+TJk4vKlStzBUFlWmjBmhbzIbSA13zwwQeO7+Kh+34geAoVKiTy58/PlR7ojBm8uw4Zk3ba4WvBfAgt4FVOTxFdvnyZWxAcuo220LH8EDIILaAThBbwKqe3VNKFgBB8uk21lCpVilsQXCaFFkwPmQ+hBbyKTt50EkZaQiZt2rTaHM4WIUIEnHrsAZEjR+aW/jDSYj6EFvAqWnPg5CmVCC0hlz17dm6pDYuuPQPTQ6AThBbwKgosdMuuUxBaQq5gwYLcUhtCi2c8fPiQW/rD9JD5EFrA60qXLs0t79u0aRO3ILgyZszILbUhtHjG7du3uaW3WLFiiVChQnEFpkJoAa9z8p37tWvXxOLFi7mC4KB7fHSA0OIZpoSWhAkTcgtMhtACXkcLO+kQMKdMmjSJWxAcCC12QWgBnSC0gCNKlCjBLe+j234vXrzIFQTV/fv3uaU2hJaQe/Tokbh37x5XekNosQNCCzjCySmix48fi+nTp3MFQXXlyhVuqQ2hJeTOnj3LLf0htNgBoQUc4fSOlJ9//tmob8hO0iW00CgBhMyZM2e4pb8ECRJwC0yG0AKOoDUtefPm5cr7Tpw4Ib777juuICi2bNnCLbUhtIQcRlpANwgt4Binj4gfMWKEmDp1KlcQWKtXr+aW2hBaQg6hBXSD0AKOqVatGrecQ6MtN27c4Are5cKFC2LVqlVcqY3WLkHIbN68mVv6Q2ixA0ILOIbutXE6uOzdu1c0adJEPHjwgHvgbWh06ubNm1ypDSMtIadLQH2XSJEiycPlwHwILeCoqlWrcss5M2fOlP9/r169yj0QEBplodCiC4SWkKHAoktAfZf06dNzC0yH0AKOopEWN4ZxlyxZIv9/nzx5knvgVa1btxbnz5/nSn2YHgoZXdYuBUaGDBm4BaZDaAFH0TX4boy2kHXr1onq1auLHTt2cA/4ql27tnaLljHSEjJz5szhlv4w0mIPhBZwnBsLcn3t3LlTbr3+6quvMOrC+vTpo+UuK4SW4FuxYoVR4T116tTcAtMhtIDj6Ej/3Llzc+W8J0+eyMPnKLz07t3bmLtXgmPw4MGic+fOXOnl0qVL3IKgmjt3LrfMkCpVKm6B6RBawBVuTRH5Rz/0unTpIsPLsGHDtLlzx1N69uwpWrVqxZV+Dh48yC0IClqQPm3aNK70RzuHUqZMyRWYDqEFXOHmFNGr6Idf8+bNRcaMGUWnTp3kFJLJtm3bJsqWLSt69OjBPXp69uyZOHr0KFcQWGPGjDHqULk0adKIcOHCcQWmQ2gBV9CZLU2bNuVKDX///bfo27evyJ49uwxVkyZNEs+fP+dX9Xfr1i3Rq1cvOT23ePFi7tXboUOHuAWB8fTpUzF27FiuzFC4cGFugQ0QWsA1qoUW/2bNmiU+/PBDOfpC0yjz588X165d41f1Q2tX8uTJI7p27WrUGh6ElqChr4N9+/ZxZQanrwcBd4V68Q9uAzju888/1+ZAs/fee0/kypVL5MyZU+TPn1++w1P56HA6OIymAuid9a5du7jXLLQ2ig4PhHejr4FixYoZc6AcoX+LW7du5QpsgNACrtq+fbv8xqMrWgBYqFAhuZg3R44c8nHT3bt35Xk0dKcMBRbTt3VHixYNd0sFEk150giiSb799ls5egj2QGgB1/3vf/8TgwYN4kp/vuHF/+MttEaBztygI9k3bdokw4ptu6BWrlwpihYtyhUEhHbJ0fZ+09Ci+axZs3IFNkBoAdddvHhRjlYcO3aMe8zjG15SpEghL3ajJ2bMmC99fJPr16+Ly5cvv/RcuXJFhpX169fLXTQ2o11Q3bt35wpe1bJlSzFkyBCuzFGqVCl5PQfYBaEFlDB69GjRuHFjruzkP8DQNA8FEwooNJoCb+bj4yM2bNggMmXKxD3giw4OpBOPTfTHH3+IRo0acQW2QGgBZeh4/w2ooUGDBnIND/zHtGlX/2rWrInvFZZCaAFl7N69W5QuXVqOLgAE1cSJE0XdunW5steJEydEx44djf2hHiFCBLF27VqvrhUDdeGcFlBGlixZRL9+/bgCCBo6V4cOB7QVTSnSn5+24ps8CkGnViOw2AsjLaAck4e1wfs+/fRT+YMtefLk3GO+4cOHy4Pj9u/fzz1moqMF1qxZI8KGDcs9YBuEFlDOgwcP5M4A2hkDEBzvv/++PHiOziahj1SbiA5mpIfOO7IBnTNTpUoVrsBGCC2gJLrUr2LFivImZoCQoBEX2lJPd0rRVQb06Ip2ktFOKfr3MWHCBGvCCqF7s7755huuwFYILaAsOjCNjh0H8KSoUaPKU5gpyNA1DL5PokSJRIwYMfhXqYHWqdCiU3ooqNCR9SYdwx9Y9erVE3/99RdXYDOEFlAaggs4iXam+AaY2LFjyzNz/H98te2JtRU0HXrhwoWXHtoBRGs3duzYwb/KXnTi7aJFi0TcuHG5B2yG0ALKO3funMidO7c4f/489wCoIXz48CJixIgiUqRIL318U9+jR49eCid0GrSNIyeBFS5cOBlY8MYFfCG0gDY6dOggfvjhB64AwHS0I6pFixZcAeCcFtAIneEycuRIuSYBAMxGB+QhsMCrMNIC2qF5/m7duon58+dzDwCY5IsvvhBDhw7lCuA/CC2gLTr9k8LLkydPuAcAdIedQvA2CC2gtXXr1sngsnLlSu4BAF2VL18eI6jwVggtYATbTgYFME3RokXx5gPeCaEFjILwAqAfBBYILIQWMBLCC4AePvroI/Hnn39yBfB2CC1gNIQXAHV17txZ9O7dmyuAd0NoASsgvACoZdCgQaJly5ZcAQQOQgtYBeEFwH30b/Czzz7jCiDwEFrASqNHjxYTJ04US5cu5R4AcMLYsWNF/fr1uQIIGoQWsBrtWKDwQs/du3e5FwA8jS6O/P3330XdunW5ByDoEFrAY06ePCmuXr0qr5Cnh25o1cXff//tF1727dvHvQDgCXnz5hX9+/cXBQoU4B6A4EFogRCh6/Vpfnr69Oli79693PuvnDlzihIlSohcuXKJUqVKiShRovAr6qJ/Dr7hZd68edwLAMH16aefysCCi07BExBaIESKFSsmVq1axdWbJUiQQFStWlVUqVJFlC5dmnvVtmHDBr8Ac+3aNe4FgMAIEyaMDCutW7fmHoCQQ2iBYKM7QipWrMhV4GXPnl2GFwoxmTNn5l51nT9/3i+8YNcRwLtlzZpV/PTTT6J48eLcA+AZCC0QbDQt9Pnnn3MVPJUqVRJNmzYNVvhxA02DzZw5UyxYsEDcuHGDewHAF/17/u6770ScOHG4B8BzQvNHgCCj9SwhNXfuXBlcKleurMUakho1asgjx48cOSK3btapU0dEjhyZXwWwF4WVbdu2id9++w2BBbwGIy0QbHTWSePGjbnyDN1GXsjFixflyMvChQvlx/v37/MrAOajf6/05MiRg3sAvAehBYJtxYoVcneQN+gYXsi5c+dkcPF9Hj9+zK8AmAVhBdyA0ALBduzYMZEqVSquvKNBgwaia9euIkWKFNyjj1OnTr00AvPs2TN+BUBP+fPnF2XKlBEVKlRAWAFXILRAsD158sSRA+QSJUokunXrpvVdJSdOnPAbfVmyZAkCDGijaNGiMqjQky1bNu4FcAdCC4RIwoQJ5ZZgJ9Dx3xRe0qVLxz16ohEYuvPI98EuJFANnaXkG1QyZMjAvQDuQ2iBEMmXL5/YtGkTV95HuxJousiUK+0psPgPMBRoAJwUKlQoeWo1nWBNH+mofW9P+wIEF0ILhEi7du3kIVJOq1atmujRo4cWh9MFFk0Z+Q8wr16LAOAJsWLF8gspefLkkfcCxYwZk18FUBtCC4TIokWLRLly5bhyFk1NDRgwQNSsWZN7zLJ+/XqxbNkyMWPGDLFnzx7uBQia9OnTy2Di+2TKlIlfAdAPQguEyO3bt12/CK13796ic+fOXJmJrkygk3gpwGANDPj33nvvyd11yZMnlx/9P9QXIUIE/pUA+kNogRAL7KWJ3kRbo8eMGcOVuS5duiTDCz20CwnsQG8MXg0lvnXSpEn5VwGYD6EFQqxnz55yfYnbaFEw3cxsCzoy3TfAHDx4kHtBNzQSQlOdAT2JEyeWwYTWoQAAQgt4wOLFi0XZsmW5chctKLx69SpX9qDLK+nBLdRqiR07doBhxP8TI0YM/tUA8C4ILRBitK6FDoC7c+cO97iLLjA8ffq0iBYtGvfYA+HFGfQ1Fj9+fJEgQQK/j/S8GkicOHwRwCYILeARtIOIdhKpIm3atPL02WTJknGPXRBegiegMBLQR9zsDeAOhBbwCDqrhc5sUQmd4UJBin7I2IqCy3fffSfOnj3LPXZCGAEwA0ILeMSuXbuUvJekTp06YtKkSVzZ6ciRI6JLly5i6tSp3GMuWtRaqFAh+RQsWBBhBMAwCC3gMXS65pYtW7hSB+1s6t69O1f2UmWXlzfQn4uOn6cH55IAmCs0fwQIsRIlSnBLLTRFcuHCBa7sRcHNtNBCNxCvXLlS/tlKliyJwAJgOIQW8Bj6oaEiuoWaggv8G1xUW3sUXBTAKLBQcAEAO2B6CDwqZcqU4vjx41ypg3YT4QC2/5QpU0bbE3XpsLXff/8dYQXAQhhpAY9SdbTl0KFDSoYpt3z//ffc0ouPj48YN24cAguApRBawKNUDS0EIy3/yZEjh2jatClX+qD7pfLnz88VANgGoQU8ihbjxokThyu1XLx4kVtAGjZsyC09DBo0SNSoUYMrALARQgt4VPTo0eXZKCpCaHkZXTBJdzXp4NNPPxUtW7bkCgBshdACHqdqaMG259dlypSJW2pr1KgRtwDAZggt4HF0wJcqtz77h5EWPdWtWxfrWABAQmgBr1BxtAWhRU8YZQEAXwgt4BUUWpInT86VGjA99Do6eE9lxYsXF6VLl+YKAGyH0AJeQcepqzbagpGW16ke5HRZKAwAzkBoAa9RLbQ8ePBA3Lp1iyvYs2ePuHPnDldqQmgBAP8QWsBrsmTJImrWrMmVGjDa8p/x48dzS13x4sXjFgAAQgt42SeffMItNWBdy7/OnTunRWhZuHAhtwAAcGEiOIC2Py9evJgrd9EP6o8//pgre3Xo0EH88MMPXKlt2LBholmzZlyBKp4+fSqePHkS4PP48ePX+kjkyJFfesKHDy/7AQILoQW8burUqaJ27dpcuatPnz6iY8eOXNmJ1rLkzZtXrvHRxZQpU0StWrW4gnd59uyZuH//vnzu3bv30kdP9dH/j5AKGzbsa0EmUaJEIkOGDCJ9+vR+HwF8IbSAI4oVKyZWrVrFlXuaN28uhgwZwpWdPvvsM/H7779zpY969erJJ2vWrCJhwoTcqycaeaAf/q+Gglf7Xn391V/7pr6HDx/y/ycz+A8xH330kUiZMiW/ArZBaAFH/Pnnn0qsb6lcubKYPXs2V/ah4EgBUnfJkiUT6dKlExkzZhTZsmUTSZMmFVGjRhXRokWTHyNGjMi/MniCGyoC00eP73QJBA+dkEwnJZcrVw4BxjIILeAY+kazceNGrtyRPXt2sX37dq7sQ7ckz5gxgytzhQsX7qUQEylSJL91Fq9+DKjPE1Mf4AwKLvR13aRJE+4BkyG0gGNGjRolb+t1U+zYscXly5e5skvPnj1Fjx49uAIwC4WXL7/8UpQsWZJ7wEQILeAoFda2XLt2TcSIEYMrOyCwgC1op9lXX32FaSND4ZwWcFT37t255Z6zZ89yy3yHDh2Sa4kQWMAWw4cPl1PRti+4NxVCCziqaNGirv8AtWFNy6NHj8TAgQNFkSJF5CJoAJtcuXJFtGzZEjeEGwjTQ+AKN6eJaM576dKlXJnl6NGjYsKECfI5cuQI9wLYi3aY0QYAHx8f7gGdIbSAK9zeetu+fXttToR9l+vXr8vj7umZPn26cWd0AHjC+vXr5bQR6A2hBVzj9uLQhg0byv//SZIk4R59HD9+XGzatMkvrFBwAYC3o52DtIMQ9IXQAq4aM2aMDC8nT57kHmfRseF0SBU9xYsX5161nDp1Smzbtk3s3LlT7N27Vz5///03vwoAgRUnThxx6dIlrkBHCC3gOjohlKY1Zs2aJWbOnMm9zkuRIoXInDmzyJEjhyhQoICsEydOzK96H70LvHjxol9IoWf37t3yRmYA8IyaNWvK+9BATwgtoBS6E4fuxlEFXehG4SV58uR+H/236XU6RTUwD73Do1Di+7xa458igDO6desmR3hBPwgtoBzaqogzFgDAm+h7DF2gCnpBaAHl0OFvdJMvnVwLAOAtc+fOFRUrVuQKdIDD5UA5iRIlEvXr1+cKAMA76D400AtGWkBJtACVRlsAALyJDprEJYv6wEgLKClLliwiadKkXAEAeAdGW/SC0ALKQmgBAG+bNGmSWLt2LVegOoQWUBZtKQYA8DaMtugDoQWUFS9ePG4BAHjP2LFjxdatW7kClSG0gLJw3DYAOIWmiUB9CC2grAsXLnALAMC7Nm/ezC1QGbY8g5JWrVolihUrxhUAgHeFCRNGXLlyRUSLFo17QEUILaCcR48eidq1a4s5c+ZwDwD4oh+uESJEEBEjRgz0R3ro39W7HrojK6B+/8+zZ8/4d2Ke+fPni/Lly3MFKkJosdCNGzfe+Dx8+JB/1X/ChQsnF8X6PvHjx/faItmjR4+Kpk2bypEWAN1RaKB37tGjR5cf/bfpY6RIkd4ZOHw/+rbp36Obbt68KU6ePOn30K3k9HH//v3y36/OvvnmG9GrVy+uQEUILYah+3oOHTokDh486PeRFrT6DyaekjBhQr+Hjt73X/s+9E35bR48eCC/0a1bt04sWrRIrFmzRty6dYtfBXAfjWzEiRNHPrFixXpjCAmo/f777/N/xQ70vWbLli1+z5IlS/gVPZQoUUIsW7aMK1ARQoumTp8+LQOJ/3BCHy9fvsy/Qg30zZvCS+zYsbnnPxRWzp07xxWAcyiA0NekbxjxbQfUR+EDgueHH34QXbp0EU+ePOEetfn4+Ig7d+5wBSpCaNHEmTNn5JQJjUbQc/36dX4FAF5FQYMOJ3zTA86iRfW6TPnu2LFDZMuWjStQDUKLou7evSuPlqZpk8WLF4vt27fzKwDgK3LkyPIHYv78+V8KJRgdUcvw4cPFF198wZXa1q9fL7+eQE0ILQqhExlXr14tw8ry5cvFvXv3+BUAIGHDhhXFixeXT+HChUXevHn5FVDZ1KlT5Y5AHdAbxOzZs3MFqkFocRkFE/oHTc+CBQu4FwB85cqVSxQtWlSGlEKFComoUaPyK6CLnj17ih49enClNtoFlT59eq5ANQgtLqFRFd+wQtsFAeBlNWrUEPXq1RPVq1fnHtAVjbLQ9zodHD9+HOueFIbQ4iCMqgC8G53T89lnn4mcOXNyD+guY8aMcgRDB7SjMUGCBFyBahBaHEBnowwZMkRef45RFYCAUVihJ0eOHNwDpggVKhS31EdnXcWIEYMrUA1CixfRcdeDBw+WgUX3kyIBvCV06NDy30izZs24B0xy4MABkSFDBq7URyPidPowqAm3PHsJnaWSO3du0aZNGwQWgDdIliyZPDUVgcVce/bs4ZYewocPzy1QEUKLF/Tu3VuUK1dOHlIEAAGj81VOnDghj04Hc+3cuZNb6qMFuDTyB+rC9JAH3b59WzRu3FhMnz6dewACh6478L2Q0vdyPHro7ibf9vnz58WRI0fE4cOHlbuuIajoaPfvvvuOKzBZ6dKlxdKlS7lSW5UqVcSsWbO4AhUhtHgILbCtX7++PBgOwL+YMWOKlClTilSpUsmPcePG9Qsovk9Qh6TpWgcadp80aZJ8nj59yq+ob8WKFXKUBexAdzhdvXqVK7UhTKsPocUD6Kp2+ia8a9cu7gHb0MV6FEhefVKkSOH1nQh0UebkyZO1OLxr7ty5omLFilyB6c6ePSsSJ07MlfomTpwo6tatyxWoCKHFA9q2bSsGDBjAFZiKRkT8BxL/d93Qu0m3qX4pHY0I1alThyuwAYXUypUrc6U+XJaoPoSWEJo/fz7eORqEDpWi0RHfMOK/TdM6KqOpSTrqXkV0RhGt9wK7fPvtt6J79+5cqS1MmDDi1q1bcv0YqAuhJYQ++ugjMWHCBK5AR3QjML0jpGASP3587tXPnTt3RJQoUbhSx6BBg0TLli25AptUq1ZNm4WtNMKCHZ/qw96uEEJg0d+wYcNEgQIFtA4shI4fV03fvn0RWCym03bnNGnScAtUhtASQrS2AfT1+eefG7PO4tixY9xSQ6dOnUSHDh24Attcv35dnDp1iiv1pU2bllugMoSWEMqUKRO3QDfvv/++aN68OVf6GzNmDLfc16BBA/H9999zBTbSbTcl3SoO6kNoCaGhQ4fiNlpNUWDJnDkzV3pbs2aNMocalipVSqkABe7QaWqoatWq8iZqUB9CSwjRNtitW7fK7ZwVKlSQJ5iC+mjxrUmjLKNHj+aWu+hiPLpLCGDdunXcUh9GWfSB3UMeRgfNrV69Wv6DpWfTpk38Cqjkm2++Eb169eJKbwsWLJCB2W0UBPft2ye3jQPQ1wN9P1QdXdq5f/9+ESFCBO4BlSG0eBn9o6UDvyjIbN68WR6/TqdEgntodGz79u1G/HCla/8psNA1Em6jgJ4nTx6uwGa0nkWXQ9ratWsnfvzxR65AdQgtLqBPOYWXtz26X4inMtrVYsIi0Xv37smDDVU4BXfq1KmiZs2aXIHt6IRwOilcBxs3bhR58+blClSH0KIo+mt58uSJ30MX4vmv39YX0PO213yfhw8firt378ofhvTRt01321y8eJF/Z3rz8fGRB0jR5YW6a9SokRILXn/++WdtfkCBM3Q5VK5kyZLa3EAN/0JogUCh0HLw4EE5HUE7VWbMmCGDjm5atWolBg4cyJW+evbsqcQFia1bt8a9WwGg6Tq64oPW+FCbbvr+4IMP5ILPHDly8K8yly7rWehgyWbNmnEFOkBogWA5evSoDC50IvCePXu4V30mXIg2bdo0UatWLa7cQxfhzZ49myvwXbtGC6O3bNnCva/7+uuvRb9+/bgyjy7rWRImTCi3Zatw2SkEAYUWgOC6f//+izp16lDwVf5p2LAh/671deDAgRf/vGMP8M/n5JMpU6YXp0+f5t+VvR48ePBi8ODBL/75IR3g5+lND/2bMdUvv/wS4J9Ztad37978Owad4JwWCBHaJkhn1NC7S9XRGhDdffXVV+KfsMCVO2hd0D8/qEXixIm5xz409fHTTz+J7Nmzy7uVgnqQ2uTJk42dVqPRJtXRmjaTzmmyCUILeES5cuVE06ZNuVIP7WwpXLgwV3qiaYWFCxdy5R4KLLp/LoPrwoUL4p936DKs0FZZWucVXHT7tYlU2M32LhRYokWLxhXoBKEFPIbum1GV7qMs9M5chbMkaPGvyn/P3kTXJBQsWFB06dJF/P3339wbfCdOnDDu9OBt27YpvwA3a9asokWLFlyBbhBawGNoV0TYsGG5UkeZMmVE+fLludIP/XDr3LkzV+6hsNK9e3eu7NK1a1c5Wkd/F560fPlybplBh6P7aZRFxe9TEDgILeAxdGuyirde6z7KQoHF0z8sg4qmg2hayDY0/VOpUiWvXflw7NgxbplB9fUsBQoUEJ999hlXoCOEFvCo69evc0sN9E2qTp06XOmHDm6jqSE30YJbCiy0ANcmtJ2/dOnSYt68edzjeaaFFtXXs2Dxrf4QWsBj6PRcFe7A8U/nURYaaldhWogCi4ojaN5Ei54/+ugjr98TRucdmYLuVlN5PUupUqVEvXr1uAJdIbSAx9BpuSrJnDmztqHl0aNHMrDQRzfRtlw6RM4W58+fl/c5ObXo+cGDB+LcuXNc6W3Dhg3cUhNGWcyA0AIeQ9e7q4QCS+jQen6JU2BZu3YtV+6gI/rpsQXtfKGt+3T8vpNMGW2h6z1U9emnn4qqVatyBTpDaAGPoSPyVZE8eXJtR1loGyytZXETja7YdKfQnDlz5PoVN66kMOHyzhcvXii7noVGXE241R3+hdACHuPNBYtBRYElatSoXOmlb9++3HIHrV+xaafQ8OHDRZUqVcSNGze4xzl0/w09uqOpIVXXs1Bgwf1C5kBoAY+gS9I8ceCWJ0SJEkXUr1+fK73QCMvKlSu5cscPP/xgzRH93bp1E1988QVXzjNl++3GjRu5pRY6X6dChQpcgQkQWsAjFi9ezC33ffjhh+KDDz7gSh9Hjhxx/fbf7777TpQtW5Yrs9E6B/rzuoW2kJuyyHn9+vXcUgcdKvntt99yBaZAaAGPUOnCRAotOqLAcvnyZa6cRwsV6Yh6G9C771GjRnHlDlpsnS1bNq709eTJE+XWs9C9QnRHFJgnFF31zG2AYDl06JBIly4dV+6ixZQqjfoE1syZM0X16tW5ch5NBy1dulSkSZOGe8xF1024vWi8UKFCSu+2CQr6cxQpUoQrNQwdOtTVaT/wHoy0QIipdOmbjqMs9E7V7cW3ffr0sSKwUDhTYZdbp06duKU/1c5noTuyEFjMhdACITZr1ixuuYu2jtatW5crfVBg2bJlC1fOa9u2rTz91WSPHz+Wd2N5+4TbwKCbsuk8GFOotAiXRnyxvdlsCC0QIrQAz+3dLr5olCV8+PBc6WHnzp2uLr6lixDdHuXxNgoqFFgouLiNAotJN2U/fPhQqWkuCiwJEiTgCkyE0AIhMmPGDG65K0yYMFqOsvz666/yziY3RIwYUU4LhQsXjnvMQ1NBqmzfNi2wEJXOZ2nVqhVOvbUAQgsE2/3798X06dO5cheNsqiyGDiwaC3Q2LFjuXIejbDkz5+fK/PQlBstulWBiYGFqDI1lCFDBnnmDpgPoQWCjQLLqVOnuHKXjqMsAwcO5JbzaLEivTM1FV3emSdPHq7cQ3df9e/f38jAQlRZhEuHyMWKFYsrMBlCCwSbKqMsBQoUEOXLl+dKDxMmTHD8Yj5f9K6UpoVMRYGF/oxuy5kzp9xG/tVXX3GPWe7evatEaGnatKmoU6cOV2A6hBYIlr1794rZs2dz5S4dtzm7OcpC00Lx48fnyiwUWPLmzcuVe+h4fpr+K168OPeYh6aG3F7PkiJFCjnKAvZAaIFgUWUBLu0U0C20UGDZvHkzV86itRUVK1bkyiwUWGrUqCHu3LnDPc6jxc10sNmIESNE9OjRuddMKoyy0DqWRIkScQU2QGiBILt9+7arC0j9o8ASI0YMrtR39epV10ZZaNHtN998w5VZLly4IL8W6HRmt9CR/AsXLrTmYDO3F+FWqlRJ24tRIfgQWiDIKLCocqOzjqMsx48f58pZFFhoa7iJ6IC8PXv2cOU8+uFJ26vp3BsbXLt2Taxdu5Yrd9BaFrAPQgsE2bhx47jlLrqrR5UtrYFBowBujbK0bt1au8XKgdWzZ08xefJkrpy3fPlyZUYenbJ69Wp55IFbaJTF1GlOeDuEFggS2vWybds2rtyl4yjLrVu3uHIOnV9j6rQQhRVap+MWCvAmL7Z9E4yygFsQWiBIVBllofUDNWvW5Ep9dFz/8OHDuXJWly5dROzYsbkyB00Hffnll1w5r127duKTTz7hyi5uhhaMstgNoQUCbfHixfJRgW6jLL///rt48eIFV86hQ+Tq1avHlVnozqbz589z5ayCBQuKH3/8kSu7nD59Wmzfvp0r52GUxW4ILRBoqoyyRIsWTavQsm/fPhlanEZnsZg6LTRt2jQ5VemWjh07css+tIbHLXQ7NkZZ7IbQAoFC61jc/CHhHwUWnc5moMDixg3DFFhSpUrFlTmePXsmj8Z3C21prlChAlf2WbFiBbecV7lyZW6BrRBaIFCGDRvGLffpNMpy+PBhV0ZZ6Jt7ixYtuDILBRa3DuejUT6bR1mIW+tZfHx85HoWsBtCC7zTmjVrxB9//MGVu8qWLSsKFSrElfoosNy7d48rZ4QPH14uvjXRlStXxODBg7lyHp3D8sEHH3BlHzp12K1LUimwJEyYkCuwFUILvNOQIUO45T6dRllOnDjhyigLBZZcuXJxZZYxY8aIs2fPcuU8Ww6PexM3p4YwygIEoQXeasGCBWLKlClcuStNmjSibt26XKmPAovTF8rRzcKmLr599OiRGD16NFfuqFKlCrfs5NYiXBphQWgBgtACb6XaKEu4cOG4UtuZM2dcGWVp1qwZt8xDoywHDx7kynkZM2YUKVOm5MpO69at45azKLDQmhYAhBZ4IxphoZEWFdCliI0aNeJKfRRYaP2Fk/LlyyeaNGnClXnWr1/PLXdkyZKFW3aiReV04acbsGsIfCG0wBupNMpCgUWXBZAPHz4U48eP58o5Jo+ykN27d3PLHSZuHw8KN0Nj9uzZuQW2Q2iBANFuIdo1pAKaEmrcuDFX6psxY4bjt2DTAlGTr+mn9Sxu3uJMbJ8aciu0ZM6cWcSNG5crsB1CC7yGDkJTbZQlffr0XKlv+vTp3HKO6aMse/fu5ZZ7EFrcCS22T8vByxBa4DUDBgwQO3bs4Mp9Oq1loYWiNNLipBIlSmi1FTw47t69yy332Dw9RGtZaE2LG7JmzcotAIQWeAUdHEWhRRUfffSRyJMnD1fqczqwENNHWVRBi8FttWHDBm45T6d//+B9CC3wEgosFy5c4Mp9Oo2yEKenhuiE4Jo1a3IF4B1uLsLNnTs3twAQWsCfTZs2KTXKQgd50dSHLmh7+M6dO7lyBkZZwAluhRbaNRQ2bFiuABBawB+VAgvRbZTF6amh8uXLW3NCa7x48bgFbnArtOCuIXgVQgtIM2fOFJMnT+bKfTTCotMPZJpSczq01KhRg1vmS5o0KbfAaW4uyrd5HREEDKEFJIyyhAwFlhs3bnDlffQO1KbQQjdXY7TFHU5PefoXPXp0bgH8C6EFxMCBA5U5SI7QbgHaNaQTpy+So8ASNWpUruyA0RZ3YKQFVILQYrkjR46I77//nis16DbKQqe1Oh36bBpl8ZUpUyZuueP27dvcsgtGWkAlCC2Wo8By6dIlrtyXIUMG7UILjbJcu3aNK++jI/vpsY3b98/YGlow0gIqQWix2KRJk8TYsWO5UgMFFrprSCerV6/mljNsHGUh2bJl45Y7bAwtBw4ckCOJbsFIC7wKocVSN2/eVG5aiG5x1m2UhTg5NUTrWGwNLRhpcZ7b13ngjBZ4FUKLpSiwqHAJnX90k7Nuw8F0JwsdyucUCiy2nl1BP8AyZszIlfMQWpz38OFDbgH8C6HFQitWrBA//vgjV2qgsKLjKIsbu4Zs5uZoi42hxc1FuOTBgwfcAvgXQotlaMFop06duFIHBRaaHtKNk6ElYsSIolChQlzZyc11LTaGlpMnT3LLHRhpgVchtFimVatWYsuWLVypgRbe0tSQjpwMLXRxXOTIkbmyE0ZanOV2aMFIC7wKocUiXbp0ERMnTuRKHTTKkj59eq70cf36dXHixAmuvK9AgQLcshdCi3PcDiwEIy3wKoQWS4wePVr07t2bK3WECRNG25uKjx8/zi1nlCxZklv28vHxEZEiReLKWQgtzsNIC7wKocUCdI4ITQupqHnz5iJr1qxc6eXYsWPcckby5Mm5ZTe3ri9AaHEeRlrgVQgthrt8+bJo3bq1uHfvHveog9ZnfPHFF1zpx8mRFhqR0nGhsjdEiRKFW86yLbScOnWKW+7Zt28ftwD+hdBiuK+//lrs3r2bK7VQYEmbNi1X+nEytGCU5T8YaXGGCiMtCC3wKoQWg/3666/KHdPvK3bs2HJqSGdOTg8lSJCAW4CRFmeoEFoOHToknj59yhUAQoux6Gj5Dh06cKUeCixJkiThSk9OL8SFf2GkxRm0O04FGG0B/xBaDHTnzh0ZWNy86OxtaG2GzmtZCK0RunDhAlfgJLdGWujflU1u3LjBLXchtIB/CC0GonUsTt6HE1QUWOLGjcuVnjDK4h6MtDgDIy2gIoQWw4wYMUIMHz6cK/WkTp1a+7UsxOlv6KdPn+YWILR4H43SqrLjEKEF/ENoMcjWrVuVXsdCKLC4NbyvMzp59+bNm1zZza0ForQg1JbDzlSZGiJr167lFgBCizHoGypNC6n8gy1Llizar2Vx04EDB7hlNzd3tdiyrkWVqSFCI1zbtm3jCmyH0GIICiyrVq3iSk0UWOhyRAieBQsWcMtuboaWu3fvcstsKo20kJUrV3ILbIfQYoDx48eLX375hSs15c2bV3z++edcQXDMnj2bW3ZDaPG+0KHV+tGwYsUKboHtEFo0d/bsWdGjRw+u1IVpoZCjBYnTp0/nyk5uH3hmy/RQxIgRuaUGCi227d6CgCG0aK5Xr15ykabKihYtKurXr88VhESTJk2sPh/G7dBiy0hLhAgRuKWGx48fY0EuSAgtGps2bZr47bffuFKXCVucVXHr1i1RsGBBruyD0OIM1UZaCJ3yDYDQoinaJUSjLKorV66cqFWrFlfmiBQpErecRyNrxYoV48oubt88bMv0kGojLUT1jQbgDIQWTVFgUfX2Zv9MXcuSLl06brmDvoFTcKFhc5usW7eOW+7ASIt7tmzZIpYtW8YV2AqhRUOLFy8WP/30E1fqosBSqVIlrszi4+MjEidOzJU7KLiUKVNGLsa2xfr167nlDqxpcdeMGTO4BbZCaNHMs2fPxHfffceVupInTy6++eYbrszk9mgLoeBSpUoVsXTpUu4x18aNG10/kdamSxNVvIV95syZyp0hA85CaNEMTQu5/W4zMCiwJEyYkCszqRBayI4dO0Tp0qVFq1atxJkzZ7jXPCpcAmrLSAuh29hVc/HiRRlcwF4ILRrZvHmz+P7777lSV+3atUXjxo25MpcqocXX4MGD5c4i+mgiGmlxm02hRcWRFoLQYjeEFo306dNH+YWXdANv586duTKbaqGF0G3QNOJCIy+0Jd4kKowwYnrIffPmzRN79uzhCmyD0KIJOo9Fh2PcKbDQxYg2UDG0+KI1LrTVnP4uevfuLY4dO8av6IlGWc6fP8+VezA9pAaMttgLoUUD9O5Zh2mh4sWLy4sbbRE7dmyROXNmrtRE70i7dOkiMmbMKBo0aCDmz58vjh8/zq/qY8yYMdxyl9sLgZ2k6kgLGTZsmPy+CPYJ9eIf3AZFNWvWTPmTb8OGDSuWL18uChUqxD12+OGHH0SHDh240keUKFFE0qRJ5S6v1KlTy3fVtHA6QYIE8qNKi6i3b98ucubMyZW76EoKW24cpkXdKo+2dOrUSYs3c+BZCC2KoymhqlWrcqUu+uHdvn17ruxB0y6pUqXiyiw0vVS5cmU5gkZhxi10O/iIESO4cpdNoYXEiBFD2S3G0aJFkwfOmfrvDwKG6SGF0aJbWnyruurVq1sZWEjKlCnlDzITTZ06VXzyySdy1KVGjRqurCmhURZVAouNVF6fRleZDB8+nCuwBUKLwiiw0DZnldE7cFroaTMKbaajk0hLlizp+KV1CCzuorVQKqO1Lfv27eMKbIDQoigagu7RowdX6qLAkjZtWq7sRJdC2uDgwYOiSJEi4sCBA9zjXRhlcV+aNGm4pSZaGI3RFrsgtCjo+fPnWgQWWmvQsGFDruxFU0S2BBdC00ZO0OHfgOlUDy2ERlso4IIdEFoURN+snR6GDyrf8z/gXzZMEflyIrTQ1xYdIqYaWvxpk1KlSik/RURv8n788UeuwHQILYqhq9dVvxAxdOjQon///iJmzJjcA59++qkoXLgwV2bbv3+/V08kpVBEZ8uoKG7cuNyyB13IqbrJkyeLv/76iyswGUKLQp48eaLFkDgFFlqUCS9r2bIlt8znrR8QtIWc7q5SVZw4cbhlD9r2roN+/fqJ27dvcwWmQmhRCAUW1W9wposQ27ZtyxX4R+eaVKpUiSuz0bk8nl4ke/LkSeXP3LAxtOTOnVuLbf179+6VwQXMhtCiiCVLlih/uiN986JRFngzm0ZbaCE2PdeuXeOe4KNj+pMlS8aVumwMLUSX0RYK05s2beIKTITQooCHDx+K7t27c6WmCBEiyMASPXp07oGA0O3KdCCbLWi0pUSJEqJXr17iyJEj3Bt4a9euFTVr1hSNGjXiHrXZGlrq1q3r6qnIgfX06VOMtpiOjvEHd3Xo0IGuUlD6GTp0KP9u4V02b94c4OfQhuefAPNiwoQJL/bs2fPi6tWr/Bl52eXLl18MGTLkRZ06dQL8b6j83Lx5k/8U9unRo0eAnxMVn1GjRvHvGkyDu4dctnDhQlG+fHmu1NSmTRvxyy+/cAWB8U/IEy1atODKXuHChZPv0OPHjy/u3r0rrwLwxHSSG2j66sSJE1zZ58KFC/LiSjeucwiqWLFiiUWLFokcOXJwD5gC00MuunfvnvK7heiyRgSWoGvevLn4+uuvubIX3Z9FC2w3btwoF0rqGlhItmzZuGUnCp5NmzblSm1Xr16VGwbu37/PPWAKhBYXUWChW0pVRd+kZ86cyRUEFc2tq7x9F4LG9tBCKLTosLaF0Hop7HQ0D0KLS+i0T5V34tCV9Kpvv9YBHXqVJ08erkBnWbNm5Za9dBptIbRQfMCAAVyBCbCmxQV0AFLx4sWVvi/j77//FkmTJuUKQoq+2V+8eJEr0NGdO3eEj48PV/a6fPmyyJcvn1bre2h9S5kyZbgCnWGkxQU0LaRyYKFzDhBYPIsWMdK2cdATnQCNwPIv2vbdunVrrvRA00SnTp3iCnSG0OKw2bNnK72wdeXKlZjO8BJaFJgpUyauQCe4tuJl//vf/0T+/Pm5Ut/BgwfFl19+yRXoDKHFQdevX1d6txAFFh2O69YZXTRIO7JALwULFuQW+NJttGXGjBlYGG8AhBYHdevWTezatYsrtSCwOId2ZOn2Dd9mdH1FgQIFuAJfFACqV6/OlR7oBnEEF70htDhk0qRJYsiQIVypBYHFebSjAee46AGHBL6ZjuEbwUVv7/VQ/XQzA5w9e1Y0bNhQTg+pBoHFPaVKlaJrNMTq1au5B1RD9yr99NNPXMGrkiRJIndD6nZJ4YEDB+RDN7ODXjDS4gCaFjp69ChX6qD1FQgs7urZs6e8yqFw4cLcAyqx6dbu4Pruu++0XLxPIy46nTkD/0Jo8bI//vhDjB49mis10HbmK1euYCeLIsqWLStHW/r27SuiRo3KveC2xo0bY9F0IESKFEkGFx2NHDlSfPPNN1yBDjA95EWHDx+W00J0KJUqatSoIdasWWPNmRN0EFaDBg3EZ599Jv766y+xdetW2afiRWq0Q6VChQri5s2bYt++fdwLbkibNq0YO3asiBw5MvfA26RIkUKEChVKrFq1inv0Qcf90xQXDp/TBJ2IC95Ru3btl65Ld/tp2bIl/87scPfu3RfZsmUL8HPxT2jhX6Wm8ePHv0ifPn2Av3c83n+mTp3KfxMQFKVKlQrw86nD88knn/CfAlSG0OIlAwcODPAfhltPly5d+HdmD/ozB/S58H1q1arFv1JN165de/Hdd9+9SJ48eYC/fzzeeXr16sV/AxBUmzZtehEpUqQAP686POXLl3/x9OlT/tOAihBavGDHjh0vokWLFuA/CqefKFGivBg1ahT/zuyxcePGF2HChAnwc+L/GTduHP8v1HXz5s0XAwYMeJElS5YA/wx4PPcMHjyYP+sQXD///HOAn1tdnty5c784deoU/2lANQgtXlCxYsUA/zE4/dA/vvXr1/Pvyi5VqlQJ8HPy6qPTkPCzZ89kAC1YsGCAfxY8IXvGjh3Ln2kIqXr16gX4OdblodFNeuMD6kFo8bA+ffoE+I/A6ad+/fpyesFGFy5cePHee+8F+Hl59cmcOTP/r/QyZcqUF+XKlQvwz4QnaA+F+2XLlvFnFjzh9OnTL9KmTRvg51uXJ2rUqC+mTZvGfyJQBUKLB61du/ZF2LBhA/wH4OTTu3dv/h3ZaeLEiQF+Xt706IzWEPTo0eNFnjx5Avyz4Xn706JFixe3b9/mzyZ40qxZswL8nOv20LoyUAdCiwcVK1YswC96p56sWbO+mDlzJv9u7NWoUaMAPz9vekz5nO3atQsBJpBP4cKFMR3kgG7dugX4+dftqVu37otz587xnwrchNDiId9++22AX+xOPW3atHlx48YN/t3YLXr06AF+jt700FSaaY4fP/7ip59+elGoUKEA/8w2Pj4+Pi8+/fTTF0uXLuXPEjihQoUKAf596PZkypTpxZIlS/hPBW4JRf/nn78QCIENGzbI4/CfPHnCPc7JmjWr6N69O07uZHS4VbFixbgKvJ9//lm0bduWK7PcvXtX7Ny5U94w7v+jDVKmTClvaKandOnS8q4ccNb+/fvlPVsXLlzgHn2FDh1a3kX1z5tE7gGnIbR4QLly5cSiRYu4cg79w6HAEi1aNO6BkNzgSjdx16lThyvzBRRkKODoLF26dCJ//vwypBQqVEiGFnAfnUb98ccfc6W/Tz/9VIaXKFGicA84BaElhOgLt127dlw5g457b9++vahcuTL3gK+hQ4eKFi1acBV0lSpVkpeoVaxYkXvsQu+GT5w4EeBz/vx5/lXueu+990SsWLHkEzt2bBlSfJ/o0aPzrwLV9OrVS3Tt2pUr/eXLl0/+mYoXL8494ASElhCgd6dFihSR91Y4IV68eDIgffXVV9wDr6Jbkz1xnVbJkiXlxZL00D00mTNnFqlSpeJX7fTw4cOXQszVq1fllCg9jx8/9mu/qe/58+cifPjwIkKECEH+SJfyUUChoBIjRgz+HYFu6BJK1S6QDakOHTrISxdxT5UzEFpCgKZnfv31V668q1mzZjKw0MVk8GY0ykKjLd5APzTpCv769euLWrVqcS8ABNb9+/flpaA6Xqz4NrS2sEuXLvJCWvAuhJZgevTokUiUKJF8t+lNJUqUkFNBuIE0cGg9C61r8TYaGv7888/lDdIAEHh0gzkFl9OnT3OPOeg2eRp1wYJv7wnNHyGIRo0a5dXAQl/0gwcPFsuWLUNgCYIrV65wy7s2btwoGjZsKBfknTt3jnsB4F0yZswov7eZaOTIkXLJAH0E70BoCSYKLd7SunVrsX79+hAtKLVVzJgxueUM+jqghXi08wgAAocWvA8YMIArs5w6dUou5qcpZFr3CJ6F0BJMO3bs4Jbn0JDpypUr5T/mhAkTci8EBS3UdNqRI0fEhx9+KFq2bCmuXbvGvQDwNvTmrFOnTlyZZ9q0afLMKFPDmVuwpiWYQoUKxa2QS506tVy3QlMNEDK0GK53795cOY92GdEOJhz2B96wfft2MW/ePHHmzBlx9uxZeU4Ira0rXLiwtl9zFPaHDBnClZno7+a7776TU2MQMggtweSJ0EJbaGkhJy3odGOEwES//PKL+PLLL7lyT//+/bE1HTxi4cKFfs+xY8e493V0yOQnn3wiD7ukRye0I2/8+PFcmYl2ftIhpDjwMIQotEDQlShRgsJesB66Cv+fdxYv7t69y/818JRx48YF+Dl34/nnHST/rgCCbsOGDS+KFy8e4NfWu54iRYq8WLZsGf+X9FClSpUA/ywmPTFixHhx584d/hNDcCC0BNPevXtfRI4cOcAvzDc9ZcqUeTFhwgT+L4A3zJ8/P8DPvVtPxYoV+XcGEHg///zziwgRIgT4NRWUp2PHji/u3bvH/1X1uX1TvlMPBB+mh0Jgzpw5YuDAgWL58uXc87JkyZL5XdZGR+9jPtP76OwH1c5IoL/33bt3y8vWAN6GFnXTuixPnjWUK1cueXw+7djRQc6cOeXaHZNVq1ZNzJgxgysICoQWD1iyZIncTURzyr5PmjRpZGgB59FaobfN/buBjqGn225x6BS8yZQpU+Q6KFpg6w39+vUTX3/9NVdqo80JR48e5cpMHTt2FH369OEKAguhBYxDVx789ttvXKll7dq1ctQNwL9x48Y5crryzJkztdhlRMf9J0+eXFy6dIl7zESLj026/doJGK8G49B0nKoKFSokDh06xBWAECNGjHDsOgg6Zl6HA88iRowo9u7dKy/LNBkdz3D58mWuIDAQWsA4uXPn5paa0qVLJ06ePMkV2IwOHqMjD5xCV4/QuSg3b97kHnXRBaUHDx7kykz0BsbNc6V0hOkhMBItfqU1JCqjO4sSJEjAFdjGmzeSvwsFpeHDh3OltgMHDogMGTJwZR4fHx/5Z0ycODH3wNtgpAWMVKVKFW6pi0aEvH1LOKipVKlSrgUWMmbMGG1uWU6fPr3YunUrV+a5e/cudhIFAUILGIkWt4ULF44rNdFIC903dfv2be4BG9B2V7q93U2PHj0Sw4YN40p9tA169erVXJkHoSXwEFrASLRuhI40V92WLVtEvXr1xIMHD7gHTEb3i82aNYsrd3nzpnpvoPuVVDvKwFPWrFkjb/aHd0NoAWPpspVw/vz5Mrg8e/aMe8BEHTp0UCooXLlyRaxatYorPdD9PbSIOGrUqNxjDjqsFN4NoQWMVbRoUVG5cmWu1Ebvvhs2bMgVmOann34SP/zwA1cQEhRYbty4IbJly8Y9Zpg9eza34G0QWsBogwcP5pb6/vzzT3l9PZhl4sSJol27dlyBJ9At+3QKefXq1blHf4cPH8bC/EBAaAGj0TbCnTt3yqsVdNCtWzd5nDuYgaZfnDyHxTbTp0+XVx+YgoILvB1CCxgva9ascpFb2bJluUdtbdq0kRcsgt6OHz8uA8udO3e4B7yhf//+om/fvlzpDaHl3RBawAp01sPChQvFN998wz3qunDhggwuDx8+5B7QUfv27eWtzSrLnz8/t/RGi5x12sL9JmfOnOEWvAlCC1ilV69eWky/0LQCBRfQU8+ePeXlhCorV66c8mcZBQVdlPrXX39xBaZCaAHr1KpVS4vgQjdV//zzz1yBLiis9OjRgyt1lS9fnlvmoKMD5s6dKy9cBDMhtICVKLiMHj2aK3XRIkM6xwX0QOtYaFpIBxUrVuSWWejPRVPByZIl4x4wCUILWIvORdHhbBSaJjp16hRXoDIKLBRcVEd3cyVNmpQr89DpuTTilS9fPu7RA91sDW+H0AJW6969u4gVKxZXaqKjy7/99luuQFU6rGMhYcOGFR07duTKXFmyZBGLFy8WTZs25R71IbS8G0ILWI3ebepwau4ff/yBRYYK02UdC6HAkjdvXq7MFjlyZLk2bODAgVosOkZoebdQL/7BbQArbdy4UYutn6lTp5a7iuLHj889oAKaDipTpowW00I5cuQQa9euFREiROAee6xcuVKeTEwn6aqIQtW9e/dEmDBhuAcCgpEWsB7Ne0eJEoUrddGZH5gmUo8u61hIp06drAwspFixYnK6qH79+tyjllKlSiGwBAJCC8A/6Lh/HQwfPlxMnTqVK3AbncaqwzoW0qhRI1GjRg2u7ETr18aOHSv/3kKHVuvHX65cubgFb4PQAvAPHUZafNFoy7Vr17gCt9C0YteuXblSG11hMXToUK6AjhJYsmSJnC5TBR3DAO+G0ALwDzo6Xxf79u3DNJECKLDocNVChgwZxJgxY0T48OG5B0iJEiVkcGnSpAn3uIcCC101Au+G0ALwj/Pnz3NLD7Qbgk7+BHfQTqHly5dzpbYZM2aIuHHjcgX+xYgRQ/z+++9i8ODBrp2iS1vQW7VqxRW8C0ILWI/WiDx+/JgrfZhwQZyO6N05ncmigy1btshdZ/B2LVq0kH+vtBjWaXQfWqFChbiCd0FoAevpev4JHVU+bdo0rsAJtCW1W7duXKlt1qxZWNwZBAUKFJDBhdb+JE+enHu9q2rVquLrr7/mCgIDoQWstnnzZjF79myu9IPRFmdRYKGvGdXR9BUd1Q9B98UXX4h169aJL7/8knu8I1q0aPLgOwgahBaw2qBBg7ilpxUrVuCkXIfQ2hAdbt2mr2m6ngKCjw5w/Omnn+RBfN46MXvp0qUiTpw4XEFg4URcsBZNr5hwPT8Na9M7Q/CeS5cuieLFi4sDBw5wj5omTpwo6tatyxV4Cp2mO27cODF+/Hjx7Nkz7g0eOi/nl19+EVGjRuUeCAqEFrDSkydPRMmSJcWaNWu4R2+jRo0SjRs35go8jS7dGzlyJFdqcmshqU3ouAHf8HLx4kXuDRy6eZpO41Vhi7XOEFrASjr8EAqKnDlziq1bt3IFnkQnqDZs2JArNdF9OtmyZeMKvO3mzZtyapZGYOjZv38/v/Iy2kZN00t16tSRi24h5BBawDq0XVWXG3mDghYU63BjtU6uX78up98OHTrEPeo5ffq0NtdQmIr+DmjqkMKM7+N7g7xb57+YCqEFrNKsWTNjV+zT9BBNE4HndO7cWfTp04cr9dAWbPxQBJsgtIA1OnbsKPr168eVeegyuCtXrnAFIUUHs9Eoy9OnT7lHHbTrhBYHA9gGW57BeLdv35YjLCYHFnL16lVx48YNriCk6CZgFQML3SWEwAK2QmgBo9HuoNKlS1tziFNQdzRAwGjrMF3voJpixYrJHSwAtkJoAWPRpYIUWHQ4wdRT8A7cM+gcDdXUrl1b7lgBsBlCCxiH1nXQAU6tW7cWjx494l474DbfkFu0aJFy28dbtmwpJk+ezBWAvRBawCh0NDaNrowZM4Z77BIvXjxuQXBNnz6dW2qgLfq6XzcB4CnYPQRGOHnypBgwYID49ddfucc+4cKFs25kydMuXLgg0qdPL8/ZUAFdiEmLyAHgXxhpAa09ePBA9O3bV+TLl8/qwEIwNRRy06ZNUyaw0O8FgQXgZQgtoK3Ro0fLsNKpUyfsmvkHQkvIqTI1tGDBAlGjRg2uAMAXQgtoh25nLlOmjDwBdvfu3dwLBQsW5BYEx6lTp8Tq1au5ck+rVq1EuXLluAIA/xBaQBu0o6NBgwaifPny8kZbeBntmILgU+F+Ifr6pq36ABAwhBZQGp1m+8cff8igkjt3bnktPLyuaNGiInPmzFxBcBw8eJBb7kidOrW1u94AAguhBZS0YcMG8eWXX4qMGTOKJk2ayCkheLO6detyC4Jrz5493HJHpUqVuAUAb4Itz6CMa9euyR0T9Cxbtox74V2SJEkiRwkiRIjAPRAc2bNnFzt37uTKeStXrpQjZgDwZhhpAdfR4kdafEijKrTFE4ElaLp3747A4gFuBhayfft2bgHAmyC0gCvu378vRo0aJUqWLCnfXQ4ePBjbloOhR48eWIDrAXfv3uWWe2y6IwsguDA9BI46cOCAvEF3woQJ4sSJE9wLwUHXFSxevJgrCAkKzPHjx+fKPbSO66effuIKAF6F0AKOmD9/vgwr9Dx//px7ISQePnwo3n//fa4gJI4dOyZSpUrFlbvq168vg0usWLG4BwB8YXoIvOb69etiyJAh8tCzihUrir/++guBxUO2bNmCwOJBd+7c4Zb7aFt/gQIFxMiRI7kHAHxhpAU8jhYU+o6qnD9/nnvBU+iQvZw5c3IFnrB27VpRuHBhrtRRtmxZ0a5dO1GiRAnuAbAbQgt4zLx58+ThWKpd7W+KOHHiiDVr1og0adJwD3iKStNDAWnRooUML0mTJuUeADshtECI0WLQ4cOHi1mzZnEPeFq2bNlkKEyQIAH3gKeFChWKW2qiv3sKLm3btuUeAPsgtECwLV++XIYVOgwOvIfWA9Fuq8iRI3MPeAONtNCIi+oKFSokw0vlypW5B8AeWIgLQUaHwdWrV0+esYLA4j0xYsQQffv2FXPnzkVgcYDK00P+0fqbKlWqyDU4v/32mxJnzAA4BSMtEGh0HxCNrIwfP557wFto22uHDh1E+vTpuQe87X//+58YNGgQV/pIliyZ+Oijj+STNm1a7gUwE0ILvBNtr6WwMnr0aO4Bb6FdQRRWatasyT3glDlz5sgRDF2FDRvWL7zQKCiAiRBa4I1Onz4tevfuLUaMGME94C2RIkUSX3/9tQwsOH/FPbRD68qVK1zpi8JvqVKl5KnJuIQRTILQAgGihZ/dunUTx48f5x7wBlqr0qBBA9G4cWO5Qwjc1bFjR9GvXz+uzEBb5Cm8UIihJ3z48PwKgH4QWuAlV69elWFl2LBh3APekCRJEhlW6EmePDn3gtvWrVsnd+eYKmHChH7hJV++fHI9DIBOEFrAD52zQoFl79693AOeRqMpvmElWrRo3AsqyZMnj1zHZQMahaGvSXpy584tgwymJ0FlCC0g9ezZU/To0YMr8DQ6hp2CyieffMI9oKo//vhDNGnShCu7vPfeey8FmAwZMogPPvhAxIwZk38FgLsQWixHa1bat28vZs6cyT3gKT4+PqJWrVpyJ1D58uW5F3RAZ6DQeSjwL1ooTuEloIe+zul1+ujbDhcuHP8vATwLocViFFQosGCxrWfRO1QKKvTQN3XQz6RJk8SHH37IFQQVHYxIh/WlTJnS72OWLFlExowZ+VcABA9Ci6XozBXasQKeET16dL9RFVrkCPorV66cWLRoEVfgCRRgqlWrJooVKya3YmMnEwQVQouFfv31V9GmTRuuICRoGsF3VCV+/PjcCyag6xNwv4/3xIsXT1SoUEF8/PHHOEsGAg2hxTJYcBtytE2ULjGsXr06vtkazsRzW1RE4YUWqdepU4d7AAKG0GKRxYsXi7Jly3IFQUGjKPSNlcIKfQwTJgy/AqajqYxVq1ZxBd5EJ/nSDdYIL/AmCC2WuH37ttx2u23bNu6Bd6F1KhRQfB/ctGyvCBEiiIcPH3IF3kZTRjTKRVuuAfxDaLFE3759RadOnbiCN6GFgb6jKfTEjh2bXwGb0YGLmTNn5gqcQIcvUnCh+7gAfCG0WIK+4eKk2zejgOIbVhInTsy9AP/Zt2+fyJQpE1fgFJqeo3VFuXLl4h6wGUKLBejyQ7quHl5Gi2grVaokw0rq1Km5F+DNDhw4IM8befr0KfeAE+iwugEDBogvvviCe8BWCC0WoB/K8+fP58pu9G6NPh/0ZM+enXsBAo+CS5UqVcSxY8e4B5zSqFEjec0C2AuhxXD0jZUOdLJZunTp/IIKnasCEFIUXOjE3D179nAPOKV06dJyJyTYKTR/BEMtXLiQW3YJHTq0nBKbN2+e/AHzww8/ILCAx6RPn14sWbIEF2C6gD7vuGLBXhhpMRxd1GdTcKGD3+rVqye/qWG7JDihf//+8g4vcFbz5s3FkCFDuAJbILQY7OLFi9YcLU87DHzDCt0yC+AkevdPwQXTRc765ptvRK9evbgCGyC0GMyGE3BpYR6FlZIlS3IPgDsuXbokunTpIn7//XfuASdMnDhR1K1blyswHda0GGzXrl3cMk/Tpk3l6b60kwCBBVQQN25cMXLkSLFy5Up5LxU4g0ZX6XMOdkBoMdju3bu5ZQ7fsPLbb7+JHDlycC+AOuj8n+nTp8sHF2o6o3jx4mLLli1cgckwPWSwFClSiBMnTnClNwor9CCogG5oumjMmDFi/fr13APeQAdEzpgxAwvwDYfQYqjTp0+LJEmScKWvxo0by10CCCugu9mzZ4s///xTTJs2jXvA0+iYA/ocg7kQWgw1d+5cUblyZa70QyfX0mVpWBsApqFpDPrBSs+NGze4FzyFRluqVavGFZgGocVQXbt21XIrIN2yTGGFnvfff597zXTy5Em5Rfbs2bPi8ePHInfu3PJiSx8fH/4VYLIzZ87I6zVWr14tVq1aJY8ogJArWLCgWLt2LVdgGoQWQ9FR10uXLuVKDzVq1JBhJWfOnNxjnsuXL8sLLCdNmiQ2b97Mvf+JESOG/LvzfRImTMivQEjROSr79++Xn+MPPvhAXuuQP39+ftVdDx8+lMHFN8Bs2rSJX4Hg+OWXX0SbNm24ApMgtBgqatSo4vbt21ypLXHixKJnz57yzBWT0XUCtWvXlj84A4NGnXzDS82aNeWWWggeusahQ4cOXP2HphHoKH7VphMOHTokNmzYIIMtPSbuBPQm+p5CwS9BggTcA6ZAaDEQvZvX5Qcc/RCnaSzTL3U8fvy4vBk4sIHlVUmTJhWtWrWST9iwYbkXAuPOnTsiU6ZM4tSpU9zzOhpxod1pDRo04B61XLhwQWzcuFEGGd+P8HY4LddMCC0GonNMaCGrymjdBn1Dad26NfeYjRYUz5w5k6vgy549u9x9QncsQeDQgW8USAKjSZMm4ttvv9XiHTqtifJ9KJD5r+mxXfTo0eWi55QpU3IPmAChxUD0w1HlXTc03UGBRfVg5Sk09dWjRw+uQq5AgQJizpw5cm0GvFuJEiXEihUruHq3NGnSyOBCo4A6e/TokVwrQx99H//1gwcP5CgUTSP7fqRF4TSNSSOCV65c4f+Svtq2bSt+/vlnrsAECC0G+vXXX5VdhEY/vLt3786VHWhqYt++fVx5RqVKleTWzjBhwnAPBIR+AAf3sLGWLVvK8ELv2G1EoYXCy7p16/yee/fu8at6oB2INNpCu/LADDjG30B0sJyKBg4caF1goVEvTwcWQufw/Pjjj1zBm9D6j+AaPHiwPB7e1u2zsWPHltcQ0CWQixYtkhdCzps3T15QqgsaURo6dChXYAKEFgPR+Q+q+euvv+QiUtvQ/TPeQp/TZ8+ecQUBCUloIXTpKG2NximrQkSKFElUqFBBft3R+UJ0PEHMmDH5VXWNHz/emOtMAKHFSKqNtCxcuFCrd2eeQjuGvHlkOw3d44fp261Zs4ZbwUdrPWhbNHai/IemPPv06SNHoerXr8+9arp//76YMmUKV6A7hBYDqRRa6Mr4smXLcmUXGmWh4Wlvone9EDBaz3L06FGuQo5OmaZ1LvCfdOnSibFjx4rJkyeLjBkzcq966PcHZkBoMczTp0/lmQ4qmDhxotVX88+aNYtb3kOnHh8+fJgr8C+kU0MBGTJkiKhVqxZX4It2WtGFkHSEvopomo8WroP+EFoMo8ooS7NmzUTdunW5sg8tWvTGD82A0Lk88Doa5fMGmvKjbfvwsuTJk8vpojp16nCPWjBFZAaEFsOoEFro5Ndhw4ZxZSfaZukUhJaALV++nFueRyNcthyMGFR0r5YnzyXyFJoiwqF7+kNoMcyTJ0+45Q46+MyJaRHVIbS4i7aZe/vWZNrCT9ui4XV0tMHXX3/NlTq8NfoGzkFoMczjx4+55Ty6H2fUqFFc2Y0O4nIKQsvrvDnK4h9t48fXfMD69esnR11VgtCiP4QWw7g50kLvrugIdNvRFstVq1Zx5X10NPuOHTu4AuKNA/3e5NNPP8UurjegSwsjRIjAlfsQWvSH0GIYt0ZaGjZsKB9wdmrIF3YQvcyTW50D4+OPP3Z0dE0XdL8YBRdV0N1Kbvz7BM9BaDGMGyMtNC1k2/H8b7N69WpuOQcnfr7M6dBC6LA1eB2FlqxZs3LlPlpEDfpCaDGMGyMtFFgouMC/nJwa8oXQ8p+7d++K8+fPc+WcBQsWyHNc4HUNGjTglvuWLVvGLdARQothnA4tdHgcpoVeRiexOg2h5T9ujLL46tu3L7bVBoC+R6jyxmb9+vXcAh0htBjG6ekhnA76smvXronLly9z5RyElv+4GVpozQSmiV4XLVo0Zd7c0PdIrGvRF0KLYZwcaaGr6xFaXubGKAuhQwXpCgdwN7SQESNGyKkieFn16tW55T6MtugLocUwTo60UGCh4AL/OXjwILech9GWf7kdWsicOXO4Bb7oZujKlStz5S6EFn0htBjGyZEWjLK8zq2RFnLmzBlu2U2V0HLr1i2uwJcqoy0bNmzgFugGocUw7733Hre8i9412XyD85u4OdJy584dbtlNhdBCN60vWbKEK/BVqFAhbrmL/n4wMqknhBbDRIoUiVveRXcMwevcHGlBaBHi5s2b4sqVK1y5y6lbvnVCN0GnSJGCK3ft2rWLW6AThBbDILS4h0ID7R5xC0KLGqMsvjZt2sQt8E+Vg+aOHTvGLdAJQothEFrc4+YoC0FoUSu0YKQlYNmyZeOWu1T6WoHAQ2gxjBOhJVmyZPKBl7m5noUgtKj3g8iNk3lVFz16dG65CyMtekJoMYyPjw+3vCdJkiTcAv/cvrQQoUWIixcvcksN586d4xb4UiW0YKRFTwgthnFqeghe5/bx7bdv3+aWvVQLLRhpeZ0qoYUC5YMHD7gCXSC0GAahxT1uhxaMtCC06CBMmDDcch9GW/SD0GIYhBb3ILS4D9ND6nv48CG33Hfq1ClugS4QWgyD0OIO+kbs9g9MlX4YuAUjLepT6esUfz/6QWgxjBOh5fr169wCX26PshCnb/hWDR0sp1pww0jL61RaR4K/H/0gtBjGidCCeeDXIbS4T7VRFqLS+g1VYKQFQgKhxUAffPABt7yD3inhHcrLEFrcp2JoiRo1KrfAF0ILhARCi4ESJ07MLe/BaMvLVFjQ9/TpU27ZScXQEiVKFG6BL5VCC9586QehxUDeHmkhOE3yZRhpcR9Cix4w0gIhgdBiICdCy+7du7kFBKHFfZcuXeKWOhBaXnfkyBFuue/q1avi+fPnXIEOEFoM5MT00Ny5c7kFBKHFfRhp0YNqb3hU23EGb4fQYiAnRlpoDcfmzZu5sht901PhBybWtCC0qI6+Rt2+Df1VCC16QWgxkBOhhSxatIhbdlNhlIVgpEW90ILdQy/btWuXePbsGVdqQGjRC0KLgZyYHiLz58/nlt1UOQocoQUjLaqj0KIahBa9ILQYKEaMGMLHx4cr79m6dSumiP5x9uxZbrkLoUW90OLUGwhdHDx4kFvqQGjRC0KLoZyaIho5ciS37KVKaLF5Tcvp06e5pZbkyZNzC4hq61kIQoteEFoMlTJlSm5516hRo8S6deu4stOZM2e45S6bR1pUDC30xgHH+L8MIy0QUggthsqTJw+3vG/o0KHcspMqIy3E1uCiYmjBKMvL1q9fr8z6L/9s33WnG4QWQzkZWiZOnCiWLFnClX1UCi22fgNGaFHfnDlzuKWWcOHCcQt0gNBiqKxZs3LLGTaPtqgyPUQw0qIOhJaXzZ49m1tqQWjRC0KLoWLGjCkyZMjAlffRNyQacbHN7du35aMKhBZ1ILT8h0ZZDh8+zJVaEFr0gtBiMCeniEi/fv3EnTt3uLKDSlNDBKFFHQgt/1F1lIUgtOgFocVg2bJl45Yz6E4RCi42UWlqiGBNizoQWv5FlxKqup6FILToBaHFYFmyZOGWcyi02HTgHEZa3Hfr1i35qCRy5MgiduzYXNmNAgsFF1UhtOgFocVgtBg3QoQIXDmD3unbNNqC0OI+jLKoTeVRFoLQoheEFoPRuz2np4jIzJkzxR9//MGV2TA95D4VQ0vGjBm5Zbdt27YpvZ6FILToBaHFcBUrVuSWs1q0aGHFLdAYaXGfiqElV65c3LLbsGHDuKUuhBa9ILQYrlq1atxyFh2N3ahRI3HkyBHuMRNCi/tUDC25c+fmlr02bNigxYgrQoteEFoMlzZtWteCC926W6VKFa7MpNr0EEKLGhBa9BhliRQpkggdGj8GdYK/LQtUrVqVW847dOiQyJcvH1dmuXHjhlIHyxGsaXFf9uzZxXvvvceVnVatWiX+/PNPrtQVNWpUboEuEFosUKdOHZE6dWqunLdp0yZRr149rszx999/c0sdCC3uwyiLHqMsBKFFPwgtFnj//fddDw10xH/Pnj25MsOJEye4pQ6EFvfZHloWL14spkyZwpXaEFr0g9BiCQot4cOH58odPXr0MCq4qBhanj17xi077Nq1i1vqsH3n0PDhw7mlPoQW/SC0WCJVqlSiSZMmXLnHpOCC0OI+1UJLxIgRrT6jZdasWfLRBUKLfhBaLNK+fXuRMGFCrtxDwaVTp05c6QtrWtxH912pxOapofPnz4vOnTtzpQeEFv0gtFgkSZIkol27dly5q2/fvuKLL77gSk8YaXGfaiMtNoeWb775Rhw8eJArPSC06AehxTJt2rQRRYoU4cpdNPf94YcfyvNcdISFuO5TLbTYup6FdguNGTOGK33gUkv9ILRYSJXRFjJp0iRRunRp7Y78P3XqlHj+/DlX6rBppOXkyZPi5s2bXKnBxpGWHTt2yFEWHaVMmZJboAuEFgvRfUSNGzfmyn179+4V5cqVE3369OEe9ak4ykJsCi2qjbLEixdPfPDBB1zZg9ax0EGLOkJo0Q9Ci6W6d+8uUqRIwZUa6JsfHYRHoxiqUzW02DQ9hEW47qPvI3Qui65oVyXoBaHFUvSOUMWtx3QoFU0XqX6dvYo7hwhGWtyTP39+btlhwYIF4ttvv+VKP7STMkKECFyBLhBaLPbRRx+JZs2acaUOuhma7kuiUKXqBYCYHnKfaqHF1Du2AkLriTp27MiVnjDKoieEFstRMMiQIQNXaqHzXGin07x587hHHUePHuWWWmyZHqIFuPSDUyW2jLQ8fPhQNG3aVK5F0xnWs+gJocVyceLEUXqId+PGjaJSpUqiVatWSm2N3rlzJ7fUYstIi4pbncOECcOV2T7//HOxdOlSrvSl6ps1eDuEFhDVq1eXp+WqbPDgwaJw4cJi7Nix3OMeeoepajhAaHGHLVNDHTp0EOPGjeNKb4UKFeIW6AShBaQffvhBbjtWGU3JNGzYUF7+uG/fPu51nmo/MP2zZXpItZ1DNkwN9e/fX36fMEGsWLFEjhw5uAKdILSAH/qmlDhxYq7UNXHiRLnWhc51ofl1p6kcWjDS4g7TR1r++OMP5Udjg6JAgQLcAt0gtICf9OnTy+Cig+vXr8tzXeiHhdPD1aquZyEILc5LlCiR0YfK0a3NKtwQ70m2bU83CUILvKR27dqia9euXKmPfng1aNBAnvK7bNky7vUuTA+5a8mSJdxSg8mjLPS5rlatGlfmwEiLvhBa4DW0m4gW5+pk/vz5olSpUnIrpjdvmqXTelU+svz+/fvcMpdqJ7Ca+q6dRl3LlCnDlTmyZcuG0KIxhBYI0IgRI0TWrFm50sfIkSPlO186f8Yb1wGoPMpCVLtA0BtU225r4khL/fr1jVrD4p9K965B0CG0QIBixowp14pEjhyZe/Rx69YteTAdvaP68ssvxZ49e/iVkFM9tOh6cV1gnT9/XqlDzd577z2RJ08ersxAoyvjx4/nyixp0qRBaNEcQgu8UaZMmcS0adO40g/9AP/ll19keKGFhGvXruVXgm/GjBncUpPpIy2qTQ2ZNMpy6dIleemjamuGPIkCS8SIEbkCHSG0wFvR5YWjR4/mSk/Pnz+XWzbpcLqaNWsG+1qAAwcOeHTUxhtMDy1OLbYOLFPWs6xZs0au89i6dSv3mId2eGGURX8ILfBOdKDb999/z5Xepk+fLq8FSJIkiRx9mTp1Kr/ybiregfQq06eH1q1bxy01mDDSQjeq0w6h48ePc4+ZKLDQoXKgt1Av/sFtgLfq3bu36NKlC1fmoHU7ZcuWFbVq1ZKnZCZPnpxf+Q+dC0O3Yi9atIh71BQ7dmxx+fJlrsxCowA0faESmlKh+7t0RTsFu3fvzpW5SpYsacR9SYDQAkFE2yBN3VXg6/333xdp06aVT7p06eRtwjt27FB+aojQpX1Pnjzhyix9+/YVnTp14sp9KVKkEMeOHeNKL+vXr5dhZfny5dxjrvDhw4sVK1YYfZ6OTRBaIMgGDRok/ve//3EFqrlz547w8fHhyhx0gCCdx6MKGnn7888/udIHhT8KLI8fP+Yes9F9Saa/0bIJ1rRAkLVq1UoMHz6cK1CNietaHjx4oNx6lly5cnFLDzS9Vr58eTlaZUtgqVy5MgKLYRBaIFg+//xz7XcVmcrEHUQ0vE/n76hEtfU1b/PTTz+JYsWKiYULF3KP+Wj6jtbhgVkQWiDYaFfRhAkTuAJVmDjSotooC9EhtGzbtk1UrVpVtGvXTty7d4977UDHHGTMmJErMAVCC4TIhx9+qPUBdCYycaRFtdCSPXt2eRququjcFXpTQVNYtKXZNnQzNZ3LBOZBaIEQq1Gjhpg7dy5X4DbTRlqOHj2qXGihXWUqoukf2rpfpEgRMXbsWO61y++//y6qVKnCFZgGoQU8gnZ2qHbEuq1MG2lZsGABt9SRKlUqbrmPpn3oBzWdRUILbW0e+aQDI+kBcyG0gMfQkf8bN27kCtyC0OJ9KVOm5JZ79u3bJ7755ht5R9hnn31mxZkrb1O0aFEZ3sBsCC3gUXnz5hUPHz5U4pu6rQ4ePMgt/dGfRcUL/OjkYTds3rxZXqlBoyoUVqj9999/86v2osCycuVKrsBkCC3gcXSiLK1DaNSoEfeAk0wKLSqOspCLFy9yy7vOnj0r78dq06aNDCn0poBGV2wfVfEPgcUuOBEXvIrOcsHNqs4KGzasMYeHlShRQp7Rohoa4fD0lQI0Qklhf9euXWLDhg3y0eHqCDchsNgHoQW8jt4V0nA2OId++Ok+Rbd3716ROXNmrtQTnG+dz549E0eOHJF/P68+Z86c4V8FgYHAYieEFnAEfVOuX7++2LRpE/eAN9EWdNrRpbN+/fqJjh07cqUm2qlSsGBBUalSJXkx3+3bt/2eq1evvhZMTpw4wf9LCAkEFnshtIBjHj16JJo3by5PqgTvMuGSODprhA5JA/CPgiJ2CdkLC3HBMbRAd9SoUaJHjx7cA96i+2LcnTt3IrDAa/r374/AYjmEFnAcXYtPoy0xYsTgHvA03UOLqruGwB1hwoQR8+bNE1999RX3gK0QWsAVtB167dq14uOPP+Ye8CSEFjBF+vTpxeHDh0WFChW4B2yGNS3gOropuk+fPvKET/Cc8+fPi/jx43Olj61bt2pxgzJ4H90hRJcfAvjCSAu4rl69enLU5euvv+Ye8ARdR1swygKEFpIjsMCrEFpACdGiRZNbXGkbI91hBCGnY2ihrcK23k4M/4oePboYMWKE3AEH8CqEFlAKnb9At0UPGDBAxI0bl3shOGgHjm4osOAuHXvVrFlTrFq1Sl4ACRAQhBZQUuvWreWW14YNG3IPBBUdA6+bcePGcQtskjBhQjF8+HB5z5LKpyCD+xBaQFmpU6eWdxdNmTJF5MiRg3shsGh6iC7c0wUtyN62bRtXYAs6KZtGVz7//HPuAXgzhBZQXq1ateQPs99++w3hJYg2btzILfVhlMUudDcWTQfSo/s9WeAchBbQRtOmTRFegkiX0ELrmOgBO9CoyurVq+UoC0BQILSAdvyHlwIFCnAvBESXdS0YZbEDrVehdSu0fiVBggTcCxB4OFwOtEc3Gv/1119i8uTJ3AP+0c3aefLk4Uo9FEBz5crFFZiIAgq92fjf//4ntzQDBBdGWkB7lSpVEpMmTRLbt28XX375JbZKv2LRokXcUhNGWcxFYYUuSKVgSneOIbBASGGkBYxz9epVMWfOHPnMnj2be+1Foyw02qIiOpMla9as8lA5MIfvyAo9Ol4lAepCaAGj0UVrFFwowKxfv5577aPqFFHPnj3lO3EwA8IKeBtCC1jjwIEDcjcNPfRDfP/+/fyK+Tp16iS+//57rtRAF2Tmz59f3Llzh3tAVwgr4BSEFrAWTSNReNm1a5c88p4eU4+QT5s2rXJ3ETVq1EiMGTOGK9BR0qRJ5anVCCvgFIQWAH9u3bolw8vdu3dfe+i1mzdv+j0nTpyQjy5mzpwpqlatypW75s+fLypWrMgV6IYWv9M9QfREjBiRewG8D6EFIASePHki183Q7gg6LIuOIz958iS/qhY6yEuVG5SLFy8ub/QGfaRKlcovqGTPnp17AZyF0ALgYb/++qt8VJxqou3PZcqU4codP/30k2jXrh1XoLpq1ar5hZVw4cJxL4A7EFoAvODy5cuiZcuW8vRPlRQtWtTVEQ76/12qVCnx7Nkz7gEVpUuXToYUuvcrU6ZM3AvgPoQWAC+qXbu2csHlxx9/dGWkg9YBlS5dWmzdupV7QCVJkiSRobZChQoysIQKFYpfAVAHQguAF124cEHkzJlTnD9/nnvcFyZMGLko1+mFsM2aNZP3RYE68uXLJ0qWLCmKFSsmAwuCCqgOoQXAy1Q8QC1WrFji7Nmz4v333+ce7xo6dKho0aIFV+AWWpNCO3/Kli0rg0qKFCn4FQA9ILQAeBmdj5I+fXqu1JEyZUpx9OhRrryHdlTRD0hwB52lQqNqFFbo7yFs2LD8CoB+EFoAHEBTRHSho2qyZMkidxTFixePezzrypUrIk6cOFyBEzJnzixvzaaHThzGQlowCUILgANUvmOHpopGjhzp8YPnDh06JHehgPfQaJlvQPF9nJryA3ADQguAAwYPHixatWrFlZoaNGggvvrqK4+8Mx8wYIBo27YtV+AJCRMmlCN2/gNK9OjR+VUAOyC0ADhg0qRJ4sMPP+RKXT4+PnI7NC3UDM6t0DS6MnnyZNzcHAw0QpIsWbI3PggoAAgtAI5YunSpPKNEJxRaypUrJ9dI5M2b940X4l26dEleY0DBjJ6nT5/yK3YLHz68iBAhgrybhz76bwcUSuimZAB4O4QWAAeouoMoKGh7bOLEibn6F92zpOpdS8ERO3ZsuXCYPvo+VFPY8P9EihTJL4C8KZjgzBMAz0NoAXDAvXv35NQLqIH+LrJlyyayZs360kcAUBtCC4BDaJfOtWvXuAKnUTCh26XpAsCCBQtyLwDoBKEFwCF0nf/OnTu5AicULlxYhhQ6VI3OpAEAvYXmjwDgZXh37wya+vn000/l4ufVq1eLNm3aILAAGAIjLQAOWbt2rXznD95D58zQeTh0YzEAmAehBcBBtAPnxIkTXIGnlChRQnTq1El+BABzYXoIwEFVqlThFngCTQX1799fLFu2DIEFwAIILQAO0u2AOZXRVButW6EpIQCwA0ILgIPoePzq1atzBcFFi2spsNBJvQBgD4QWAIe1aNGCWxAc48aNE7/88osIFy4c9wCALRBaABxGB5x98sknXEFQzJ8/H587AIth9xCACzZt2iTy5cvHFQQGbRnHWTcAdsNIC4ALaC1G69atuYJ32bBhAwILAGCkBcAtdA9RkSJFxP79+7kHAjJq1CjRuHFjrgDAZhhpAXBJzJgxRdeuXbmCgDRt2hSBBQD8YKQFwGX0g3nkyJFcga+iRYuKlStXcgUAgNAC4LozZ87IH9A43v8/6dOnx7QZALwG00MALkucOLHo2bMnV0DTZnPnzuUKAOA/CC0ACvj4449Fhw4duLLbiBEjRPLkybkCAPgPpocAFFKxYkV5gJqthg4dKr744guuAABehpEWAIXQjcVJkiThyi49evRAYAGAt8JIC4Bipk+fLmrWrMmVHbJlyybWrVsnIkaMyD0AAK/DSAuAYmrUqCFHHWzy9ddfI7AAwDthpAVAUXXq1BFTpkzhylypU6cWhw8f5goA4M0w0gKgqMmTJ4uMGTNyZa4cOXJwCwDg7RBaABQ2e/ZsETq02f9MEyRIwC0AgLdDaAFQGJ1XsmDBAq7MtH37dm4BALwdQguA4sqUKSMGDhzIlXkotGBNCwAEBkILgAZatWpl7I6iO3fuiM8++4wrAIA3e++fb4R27a0E0BRdqhgqVCixatUq7jHH6dOn5Z+N/owAAG+CLc8AmqHLFU19r1GuXDnj1/AAQPAhtABoyOTgQrc8r1y5UmTKlIl7AAD+hTUtABrq3r27saHl2rVrInPmzGLs2LHcAwDwL4QWAE1RcOnbty9X5mnYsKFo3bq1ePDgAfcAgO0wPQSgOdMvWCxQoICcDitRogT3AICtEFoADLB8+XJRsmRJrszUtm1b0bFjRxEnThzuAQDbILQAGGLdunVyNOLx48fcYx66XJFuhG7SpAn3AIBNEFoADLJt2zbx0UcfiSNHjnCPmWhUqU2bNqJChQrcAwA2QGgBMMzevXtF06ZNxaZNm7jHXJ988olo2bKlyJ07N/cAgMkQWgAMdPPmTTkSYcu2YRp5qVatmnzix4/PvQBgGoQWAIPRluhOnTpxZb5o0aL5hZdKlSpxLwCYAqEFwHAzZ86UO29OnTrFPXbImDGjX4DJli0b9wKAzhBaACxw8OBBOV20ZMkS7rEL3WnkG2BixYrFvQCgG4QWAEs8f/5cjrgMHDiQe+wTPXp0Ubp0aVGqVCn5fPDBB/wKAOgAoQXAMkOHDpWjLk+ePOEeO4UNG/alAJM+fXp+BQBUhdACYKEVK1bI4ELbo+FfhQsX9gsx2EINoCaEFgBLnTt3TgaXadOmcQ/4yp49uwwvFGKKFy/OvQDgNoQWAMt17dpV9OrViyt4FV0dkD9/fpEjRw6RM2dOkTdvXn4FAJyG0AIA4s8//xSdO3cWZ86c4R54k9ixY/sFmDx58shbqGmBLwB4H0ILAEjHjh2Toy6TJk3iHgisrFmzily5comCBQvKEJMiRQp+BQA8CaEFAF4yaNAgGV5u3brFPRBUdJUATSnR4l5aG5MuXTp+BQBCAqEFAF6zfft2GVwWLlzIPRASiRIl8ttaTSMxOB8GIHgQWgDgjWiBLoUX8Cy6VqBEiRIywNBD62QA4N0QWgDgrdavXy/69esn5s6dyz3gSaFChZLbqmk6iQJMmTJl+BUAeBVCCwAEysiRI2V4OX78OPeAN6RMmVLeleT7AMB/EFoAINAuXrwog8uAAQO4B7wJAQbgZQgtABBkdA0AhRdbb412AwIMAEILAITAsGHDxK+//ioOHz7MPeAEuhupRYsWon79+twDYAeEFgAIkRs3boiBAwfK8EJtcA7tQGrZsqWoWrUq9wCYDaEFADyCRlsouNDoCzirWrVqMrzgckcwHUILAHjU2rVrZXiZPn0694BTGjVqJFq3bi2yZMnCPQBmQWgBAK+YN2+eGDFiBM53cVjMmDHFzz//jPUuYCSEFgDwKoQXd3z//feiU6dOXAGYAaEFAByB8OI82pJO9x0BmAKhBQAcReHlr7/+ErNmzRIPHz7kXvCWHTt2yLuOAEyA0AIArjh58qQMLrNnzxarVq3iXvC0SpUqiTlz5nAFoDeEFgBw3aZNm2R4oRBz6NAh7gVPoSm5ihUrcgWgL4QWAFDK/Pnz5UPTSGfOnOFeCIm2bdvKHUUAukNoAQAl0XoXCi6+IebKlSv8CgRVjRo1xLRp07gC0BdCCwAoj64HWLp0qVi3bp1Yv369XFwKgVemTBmxaNEirgD0hdACANqhKwN8Awx9PHr0KL8CAWnatKn47bffuALQF0ILAGhv27ZtfiGGngsXLvArQOg+qGbNmnEFoC+EFgAwypMnT14ahaFppefPn/Or9kmRIoXYtWuX8PHx4R4AfSG0AIDR/v77b3ky7OLFi+XHe/fu8St26NGjh+jevTtXAHpDaAEAa1y8eNEvvNBz9epVfsVMCCxgGoQWALDSrVu3Xgowpp0JU7ZsWbFw4UKuAMyA0AIA1nv06JFfeKGtwceOHeNX9FSuXDmxYMECrgDMgdACAOAPfUukw+zohz49p06d4lf00KpVKzFw4ECuAMyC0AIA8AY0AuMbXijIqLyVmnYH/fjjj9jaDEZDaAEACIS7d+/6hRf6qNIi3vz588vAQh8BTIbQAgAQRHStAN1IPWHCBLFs2TLudV6ECBFEmzZtROfOnXEOC1gBoQUAIASWL18uwws9dMmjUxo2bCgDS5YsWbgHwHwILQAAHkD3H/mGlyNHjnCv59WqVUs0adJEXoIIYBuEFgAAD6LFu5MnTxYzZswQs2fP5t6QyZAhgwwr9KRPn557AWwjxP8B8xQI/fiTW28AAAAASUVORK5CYII=;" vertex="1" parent="1">
          <mxGeometry x="660" y="270" width="265.74" height="356.86" as="geometry" />
        </mxCell>
      </root>
    </mxGraphModel>
  </diagram>
</mxfile>
